<?xml version="1.0" encoding="UTF-8" standalone="no"?>
<!DOCTYPE svg PUBLIC "-//W3C//DTD SVG 1.1//EN"
 "http://www.w3.org/Graphics/SVG/1.1/DTD/svg11.dtd">
<!-- Generated by graphviz version 2.38.0 (20140413.2041)
 -->
<!-- Title: G Pages: 1 -->
<svg width="1018pt" height="709pt"
 viewBox="0.00 0.00 1017.59 709.05" xmlns="http://www.w3.org/2000/svg" xmlns:xlink="http://www.w3.org/1999/xlink">
<g id="graph0" class="graph" transform="scale(1 1) rotate(0) translate(4 705.054)">
<title>G</title>
<polygon fill="white" stroke="none" points="-4,4 -4,-705.054 1013.59,-705.054 1013.59,4 -4,4"/>
<!-- http://postdata.linhd.uned.es/ontology/postdata&#45;core#CreatorRole -->
<g id="node1" class="node"><title>http://postdata.linhd.uned.es/ontology/postdata&#45;core#CreatorRole</title>
<ellipse fill="#1f77b4" stroke="#1f77b4" cx="922.619" cy="-579.79" rx="86.9483" ry="16.0303"/>
<text text-anchor="middle" x="922.619" y="-576.09" font-family="Times,serif" font-size="14.00">pdcore:CreatorRole</text>
</g>
<!-- http://postdata.linhd.uned.es/ontology/postdata&#45;core#Redaction -->
<g id="node2" class="node"><title>http://postdata.linhd.uned.es/ontology/postdata&#45;core#Redaction</title>
<ellipse fill="#1f77b4" stroke="#1f77b4" cx="561.619" cy="-433.027" rx="79.3924" ry="16.0303"/>
<text text-anchor="middle" x="561.619" y="-429.327" font-family="Times,serif" font-size="14.00">pdcore:Redaction</text>
</g>
<!-- http://postdata.linhd.uned.es/ontology/postdata&#45;core#Person -->
<g id="node3" class="node"><title>http://postdata.linhd.uned.es/ontology/postdata&#45;core#Person</title>
<ellipse fill="#1f77b4" stroke="#1f77b4" cx="396.619" cy="-674.054" rx="66.4361" ry="16.0303"/>
<text text-anchor="middle" x="396.619" y="-670.354" font-family="Times,serif" font-size="14.00">pdcore:Person</text>
</g>
<!-- http://postdata.linhd.uned.es/ontology/postdata&#45;core#Ensemble -->
<g id="node4" class="node"><title>http://postdata.linhd.uned.es/ontology/postdata&#45;core#Ensemble</title>
<ellipse fill="#1f77b4" stroke="#1f77b4" cx="353.619" cy="-140.527" rx="78.4777" ry="16.0303"/>
<text text-anchor="middle" x="353.619" y="-136.827" font-family="Times,serif" font-size="14.00">pdcore:Ensemble</text>
</g>
<!-- http://postdata.linhd.uned.es/ontology/postdata&#45;core#AgentRole -->
<g id="node5" class="node"><title>http://postdata.linhd.uned.es/ontology/postdata&#45;core#AgentRole</title>
<ellipse fill="#1f77b4" stroke="#1f77b4" cx="402.619" cy="-579.79" rx="82.0488" ry="16.0303"/>
<text text-anchor="middle" x="402.619" y="-576.09" font-family="Times,serif" font-size="14.00">pdcore:AgentRole</text>
</g>
<!-- http://postdata.linhd.uned.es/ontology/postdata&#45;core#PoeticWork -->
<g id="node6" class="node"><title>http://postdata.linhd.uned.es/ontology/postdata&#45;core#PoeticWork</title>
<ellipse fill="#1f77b4" stroke="#1f77b4" cx="278.619" cy="-275.527" rx="86.0347" ry="16.0303"/>
<text text-anchor="middle" x="278.619" y="-271.827" font-family="Times,serif" font-size="14.00">pdcore:PoeticWork</text>
</g>
<!-- http://postdata.linhd.uned.es/data/Redaction_1 -->
<g id="node7" class="node"><title>http://postdata.linhd.uned.es/data/Redaction_1</title>
<ellipse fill="#e377c2" stroke="#e377c2" cx="477.619" cy="-275.527" rx="94.5053" ry="16.0303"/>
<text text-anchor="middle" x="477.619" y="-271.827" font-family="Times,serif" font-size="14.00">postdata:Redaction_1</text>
</g>
<!-- http://postdata.linhd.uned.es/data/Redaction_1&#45;&gt;http://postdata.linhd.uned.es/ontology/postdata&#45;core#Redaction -->
<g id="edge21" class="edge"><title>http://postdata.linhd.uned.es/data/Redaction_1&#45;&gt;http://postdata.linhd.uned.es/ontology/postdata&#45;core#Redaction</title>
<path fill="none" stroke="black" d="M501.34,-291.36C511.69,-298.931 523.145,-308.982 530.619,-320.527 547.663,-346.854 555.447,-382.529 558.927,-406.365"/>
<polygon fill="black" stroke="black" points="555.473,-406.946 560.241,-416.408 562.414,-406.038 555.473,-406.946"/>
<text text-anchor="middle" x="542.119" y="-324.327" font-family="Times,serif" font-size="14.00">a</text>
</g>
<!-- http://postdata.linhd.uned.es/data/Agent_Role_2 -->
<g id="node9" class="node"><title>http://postdata.linhd.uned.es/data/Agent_Role_2</title>
<ellipse fill="#e377c2" stroke="#e377c2" cx="200.619" cy="-433.027" rx="101.647" ry="16.0303"/>
<text text-anchor="middle" x="200.619" y="-429.327" font-family="Times,serif" font-size="14.00">postdata:Agent_Role_2</text>
</g>
<!-- http://postdata.linhd.uned.es/data/Redaction_1&#45;&gt;http://postdata.linhd.uned.es/data/Agent_Role_2 -->
<g id="edge4" class="edge"><title>http://postdata.linhd.uned.es/data/Redaction_1&#45;&gt;http://postdata.linhd.uned.es/data/Agent_Role_2</title>
<path fill="none" stroke="black" d="M430.526,-289.663C412.796,-294.248 392.385,-299.099 373.619,-302.527 339.724,-308.718 244.613,-296.81 219.619,-320.527 196.685,-342.289 195.083,-380.779 197.052,-406.349"/>
<polygon fill="black" stroke="black" points="193.582,-406.829 198.063,-416.43 200.547,-406.131 193.582,-406.829"/>
<text text-anchor="middle" x="278.619" y="-324.327" font-family="Times,serif" font-size="14.00">pdcore:hasAgentRole</text>
</g>
<!-- 09b95c64e378418c8d0f64822e9c00f6 -->
<g id="node18" class="node"><title>09b95c64e378418c8d0f64822e9c00f6</title>
<polygon fill="#ff7f0e" stroke="#ff7f0e" points="374.619,-460.027 320.619,-460.027 320.619,-406.027 374.619,-406.027 374.619,-460.027"/>
<text text-anchor="middle" x="347.619" y="-428.827" font-family="Times,serif" font-size="14.00">Soneto</text>
<text text-anchor="middle" x="347.619" y="-413.827" font-family="Times,serif" font-size="14.00"> &#160;XL &#160;</text>
</g>
<!-- http://postdata.linhd.uned.es/data/Redaction_1&#45;&gt;09b95c64e378418c8d0f64822e9c00f6 -->
<g id="edge20" class="edge"><title>http://postdata.linhd.uned.es/data/Redaction_1&#45;&gt;09b95c64e378418c8d0f64822e9c00f6</title>
<path fill="none" stroke="black" d="M421.877,-288.767C391.261,-296.735 357.694,-307.962 348.619,-320.527 333.117,-341.989 333.893,-372.342 337.978,-395.96"/>
<polygon fill="black" stroke="black" points="334.583,-396.829 339.968,-405.953 341.448,-395.462 334.583,-396.829"/>
<text text-anchor="middle" x="403.119" y="-324.327" font-family="Times,serif" font-size="14.00">pdcore:originalTitle</text>
</g>
<!-- 16acea2b15c04c9db729174fa2d82392 -->
<g id="node22" class="node"><title>16acea2b15c04c9db729174fa2d82392</title>
<polygon fill="#ff7f0e" stroke="#ff7f0e" points="464.119,-512.527 405.119,-512.527 405.119,-353.527 464.119,-353.527 464.119,-512.527"/>
<text text-anchor="middle" x="434.619" y="-481.327" font-family="Times,serif" font-size="14.00">Suspiro</text>
<text text-anchor="middle" x="434.619" y="-466.327" font-family="Times,serif" font-size="14.00">y</text>
<text text-anchor="middle" x="434.619" y="-451.327" font-family="Times,serif" font-size="14.00">pruebo</text>
<text text-anchor="middle" x="434.619" y="-436.327" font-family="Times,serif" font-size="14.00">[..]</text>
<text text-anchor="middle" x="434.619" y="-421.327" font-family="Times,serif" font-size="14.00">la</text>
<text text-anchor="middle" x="434.619" y="-406.327" font-family="Times,serif" font-size="14.00">vida</text>
<text text-anchor="middle" x="434.619" y="-391.327" font-family="Times,serif" font-size="14.00">en</text>
<text text-anchor="middle" x="434.619" y="-376.327" font-family="Times,serif" font-size="14.00">el</text>
<text text-anchor="middle" x="434.619" y="-361.327" font-family="Times,serif" font-size="14.00">suspiro.</text>
</g>
<!-- http://postdata.linhd.uned.es/data/Redaction_1&#45;&gt;16acea2b15c04c9db729174fa2d82392 -->
<g id="edge7" class="edge"><title>http://postdata.linhd.uned.es/data/Redaction_1&#45;&gt;16acea2b15c04c9db729174fa2d82392</title>
<path fill="none" stroke="black" d="M473.339,-292.005C469.852,-304.615 464.621,-323.53 459.123,-343.412"/>
<polygon fill="black" stroke="black" points="455.701,-342.656 456.409,-353.227 462.448,-344.522 455.701,-342.656"/>
<text text-anchor="middle" x="496.119" y="-324.327" font-family="Times,serif" font-size="14.00">pdcore:text</text>
</g>
<!-- http://postdata.linhd.uned.es/data/Agent_Role_1 -->
<g id="node8" class="node"><title>http://postdata.linhd.uned.es/data/Agent_Role_1</title>
<ellipse fill="#e377c2" stroke="#e377c2" cx="760.619" cy="-433.027" rx="101.647" ry="16.0303"/>
<text text-anchor="middle" x="760.619" y="-429.327" font-family="Times,serif" font-size="14.00">postdata:Agent_Role_1</text>
</g>
<!-- http://postdata.linhd.uned.es/data/Agent_Role_1&#45;&gt;http://postdata.linhd.uned.es/ontology/postdata&#45;core#CreatorRole -->
<g id="edge17" class="edge"><title>http://postdata.linhd.uned.es/data/Agent_Role_1&#45;&gt;http://postdata.linhd.uned.es/ontology/postdata&#45;core#CreatorRole</title>
<path fill="none" stroke="black" d="M779.603,-449.26C802.582,-467.886 842.224,-500.631 874.619,-530.527 883.529,-538.749 893.006,-548.133 901.165,-556.426"/>
<polygon fill="black" stroke="black" points="898.745,-558.958 908.234,-563.671 903.756,-554.069 898.745,-558.958"/>
<text text-anchor="middle" x="893.119" y="-534.327" font-family="Times,serif" font-size="14.00">a</text>
</g>
<!-- http://postdata.linhd.uned.es/data/Agent_Role_1&#45;&gt;http://postdata.linhd.uned.es/ontology/postdata&#45;core#AgentRole -->
<g id="edge8" class="edge"><title>http://postdata.linhd.uned.es/data/Agent_Role_1&#45;&gt;http://postdata.linhd.uned.es/ontology/postdata&#45;core#AgentRole</title>
<path fill="none" stroke="black" d="M743.384,-449.191C722.537,-466.797 685.728,-495.579 649.619,-512.527 592.911,-539.142 523.682,-556.548 472.96,-566.811"/>
<polygon fill="black" stroke="black" points="472.201,-563.394 463.072,-568.769 473.561,-570.26 472.201,-563.394"/>
<text text-anchor="middle" x="608.119" y="-534.327" font-family="Times,serif" font-size="14.00">a</text>
</g>
<!-- http://postdata.linhd.uned.es/data/Person_1 -->
<g id="node12" class="node"><title>http://postdata.linhd.uned.es/data/Person_1</title>
<ellipse fill="#e377c2" stroke="#e377c2" cx="603.619" cy="-579.79" rx="82.0488" ry="16.0303"/>
<text text-anchor="middle" x="603.619" y="-576.09" font-family="Times,serif" font-size="14.00">postdata:Person_1</text>
</g>
<!-- http://postdata.linhd.uned.es/data/Agent_Role_1&#45;&gt;http://postdata.linhd.uned.es/data/Person_1 -->
<g id="edge15" class="edge"><title>http://postdata.linhd.uned.es/data/Agent_Role_1&#45;&gt;http://postdata.linhd.uned.es/data/Person_1</title>
<path fill="none" stroke="black" d="M744.114,-449.246C716.244,-474.943 659.75,-527.034 627.537,-556.736"/>
<polygon fill="black" stroke="black" points="624.882,-554.424 619.903,-563.776 629.627,-559.57 624.882,-554.424"/>
<text text-anchor="middle" x="700.619" y="-534.327" font-family="Times,serif" font-size="14.00">pdcore:hasAgent</text>
</g>
<!-- http://postdata.linhd.uned.es/kos/role&#45;function/Creator -->
<g id="node15" class="node"><title>http://postdata.linhd.uned.es/kos/role&#45;function/Creator</title>
<ellipse fill="#e377c2" stroke="#e377c2" cx="760.619" cy="-579.79" rx="56.6372" ry="16.0303"/>
<text text-anchor="middle" x="760.619" y="-576.09" font-family="Times,serif" font-size="14.00">ns2:Creator</text>
</g>
<!-- http://postdata.linhd.uned.es/data/Agent_Role_1&#45;&gt;http://postdata.linhd.uned.es/kos/role&#45;function/Creator -->
<g id="edge22" class="edge"><title>http://postdata.linhd.uned.es/data/Agent_Role_1&#45;&gt;http://postdata.linhd.uned.es/kos/role&#45;function/Creator</title>
<path fill="none" stroke="black" d="M760.619,-449.519C760.619,-474.335 760.619,-523.25 760.619,-553.28"/>
<polygon fill="black" stroke="black" points="757.119,-553.409 760.619,-563.41 764.119,-553.41 757.119,-553.409"/>
<text text-anchor="middle" x="815.619" y="-534.327" font-family="Times,serif" font-size="14.00">pdcore:roleFunction</text>
</g>
<!-- http://postdata.linhd.uned.es/data/Agent_Role_2&#45;&gt;http://postdata.linhd.uned.es/ontology/postdata&#45;core#AgentRole -->
<g id="edge2" class="edge"><title>http://postdata.linhd.uned.es/data/Agent_Role_2&#45;&gt;http://postdata.linhd.uned.es/ontology/postdata&#45;core#AgentRole</title>
<path fill="none" stroke="black" d="M221.476,-448.974C257.707,-474.939 332.341,-528.426 373.603,-557.996"/>
<polygon fill="black" stroke="black" points="371.708,-560.944 381.876,-563.925 375.786,-555.255 371.708,-560.944"/>
<text text-anchor="middle" x="358.119" y="-534.327" font-family="Times,serif" font-size="14.00">a</text>
</g>
<!-- http://postdata.linhd.uned.es/data/Person_2 -->
<g id="node10" class="node"><title>http://postdata.linhd.uned.es/data/Person_2</title>
<ellipse fill="#e377c2" stroke="#e377c2" cx="200.619" cy="-579.79" rx="82.0488" ry="16.0303"/>
<text text-anchor="middle" x="200.619" y="-576.09" font-family="Times,serif" font-size="14.00">postdata:Person_2</text>
</g>
<!-- http://postdata.linhd.uned.es/data/Agent_Role_2&#45;&gt;http://postdata.linhd.uned.es/data/Person_2 -->
<g id="edge14" class="edge"><title>http://postdata.linhd.uned.es/data/Agent_Role_2&#45;&gt;http://postdata.linhd.uned.es/data/Person_2</title>
<path fill="none" stroke="black" d="M200.619,-449.519C200.619,-474.335 200.619,-523.25 200.619,-553.28"/>
<polygon fill="black" stroke="black" points="197.119,-553.409 200.619,-563.41 204.119,-553.41 197.119,-553.409"/>
<text text-anchor="middle" x="246.619" y="-534.327" font-family="Times,serif" font-size="14.00">pdcore:hasAgent</text>
</g>
<!-- http://postdata.linhd.uned.es/data/Person_2&#45;&gt;http://postdata.linhd.uned.es/ontology/postdata&#45;core#Person -->
<g id="edge5" class="edge"><title>http://postdata.linhd.uned.es/data/Person_2&#45;&gt;http://postdata.linhd.uned.es/ontology/postdata&#45;core#Person</title>
<path fill="none" stroke="black" d="M268.761,-588.918C306.343,-594.508 348.403,-602.935 363.619,-614.054 375.094,-622.439 383.096,-636.093 388.345,-648.154"/>
<polygon fill="black" stroke="black" points="385.205,-649.735 392.121,-657.761 391.72,-647.174 385.205,-649.735"/>
<text text-anchor="middle" x="381.119" y="-617.854" font-family="Times,serif" font-size="14.00">a</text>
</g>
<!-- http://postdata.linhd.uned.es/kos/Editor -->
<g id="node13" class="node"><title>http://postdata.linhd.uned.es/kos/Editor</title>
<ellipse fill="#e377c2" stroke="#e377c2" cx="51.6188" cy="-674.054" rx="51.7379" ry="16.0303"/>
<text text-anchor="middle" x="51.6188" y="-670.354" font-family="Times,serif" font-size="14.00">ns1:Editor</text>
</g>
<!-- http://postdata.linhd.uned.es/data/Person_2&#45;&gt;http://postdata.linhd.uned.es/kos/Editor -->
<g id="edge9" class="edge"><title>http://postdata.linhd.uned.es/data/Person_2&#45;&gt;http://postdata.linhd.uned.es/kos/Editor</title>
<path fill="none" stroke="black" d="M125.404,-586.388C105.17,-591.23 84.7319,-599.641 69.6188,-614.054 60.5404,-622.711 56.0013,-635.799 53.7482,-647.45"/>
<polygon fill="black" stroke="black" points="50.2511,-647.175 52.2571,-657.578 57.1765,-648.195 50.2511,-647.175"/>
<text text-anchor="middle" x="124.619" y="-617.854" font-family="Times,serif" font-size="14.00">pdcore:roleFunction</text>
</g>
<!-- eabe46afaa294c7fbc0a5aedb269597a -->
<g id="node23" class="node"><title>eabe46afaa294c7fbc0a5aedb269597a</title>
<polygon fill="#ff7f0e" stroke="#ff7f0e" points="212.619,-693.554 156.619,-693.554 156.619,-654.554 212.619,-654.554 212.619,-693.554"/>
<text text-anchor="middle" x="184.619" y="-662.354" font-family="Times,serif" font-size="14.00">Ramón</text>
</g>
<!-- http://postdata.linhd.uned.es/data/Person_2&#45;&gt;eabe46afaa294c7fbc0a5aedb269597a -->
<g id="edge3" class="edge"><title>http://postdata.linhd.uned.es/data/Person_2&#45;&gt;eabe46afaa294c7fbc0a5aedb269597a</title>
<path fill="none" stroke="black" d="M192.081,-596.239C189.492,-601.701 186.975,-607.996 185.619,-614.054 183.432,-623.818 182.769,-634.72 182.784,-644.47"/>
<polygon fill="black" stroke="black" points="179.286,-644.578 183.028,-654.49 186.284,-644.407 179.286,-644.578"/>
<text text-anchor="middle" x="221.119" y="-617.854" font-family="Times,serif" font-size="14.00">pdcore:name</text>
</g>
<!-- a2c34194c6404e30aa69c5071de19111 -->
<g id="node24" class="node"><title>a2c34194c6404e30aa69c5071de19111</title>
<polygon fill="#ff7f0e" stroke="#ff7f0e" points="312.619,-701.054 244.619,-701.054 244.619,-647.054 312.619,-647.054 312.619,-701.054"/>
<text text-anchor="middle" x="278.619" y="-669.854" font-family="Times,serif" font-size="14.00">García</text>
<text text-anchor="middle" x="278.619" y="-654.854" font-family="Times,serif" font-size="14.00">González</text>
</g>
<!-- http://postdata.linhd.uned.es/data/Person_2&#45;&gt;a2c34194c6404e30aa69c5071de19111 -->
<g id="edge24" class="edge"><title>http://postdata.linhd.uned.es/data/Person_2&#45;&gt;a2c34194c6404e30aa69c5071de19111</title>
<path fill="none" stroke="black" d="M232.783,-594.927C241.433,-599.956 250.167,-606.33 256.619,-614.054 262.26,-620.808 266.529,-629.148 269.731,-637.41"/>
<polygon fill="black" stroke="black" points="266.457,-638.652 273.017,-646.971 273.077,-636.377 266.457,-638.652"/>
<text text-anchor="middle" x="313.119" y="-617.854" font-family="Times,serif" font-size="14.00">pdcore:forename</text>
</g>
<!-- http://postdata.linhd.uned.es/data/Ensemble_1 -->
<g id="node11" class="node"><title>http://postdata.linhd.uned.es/data/Ensemble_1</title>
<ellipse fill="#e377c2" stroke="#e377c2" cx="556.619" cy="-16.2635" rx="94.0904" ry="16.0303"/>
<text text-anchor="middle" x="556.619" y="-12.5635" font-family="Times,serif" font-size="14.00">postdata:Ensemble_1</text>
</g>
<!-- http://postdata.linhd.uned.es/data/Ensemble_1&#45;&gt;http://postdata.linhd.uned.es/ontology/postdata&#45;core#Ensemble -->
<g id="edge11" class="edge"><title>http://postdata.linhd.uned.es/data/Ensemble_1&#45;&gt;http://postdata.linhd.uned.es/ontology/postdata&#45;core#Ensemble</title>
<path fill="none" stroke="black" d="M530.127,-31.8713C506.464,-45.0436 470.955,-65.1167 440.619,-83.5269 421.832,-94.9284 401.131,-108.222 384.637,-118.996"/>
<polygon fill="black" stroke="black" points="382.39,-116.284 375.945,-124.694 386.227,-122.138 382.39,-116.284"/>
<text text-anchor="middle" x="498.119" y="-54.3269" font-family="Times,serif" font-size="14.00">a</text>
</g>
<!-- http://postdata.linhd.uned.es/data/Poetic_Work_1 -->
<g id="node14" class="node"><title>http://postdata.linhd.uned.es/data/Poetic_Work_1</title>
<ellipse fill="#e377c2" stroke="#e377c2" cx="556.619" cy="-140.527" rx="106.547" ry="16.0303"/>
<text text-anchor="middle" x="556.619" y="-136.827" font-family="Times,serif" font-size="14.00">postdata:Poetic_Work_1</text>
</g>
<!-- http://postdata.linhd.uned.es/data/Ensemble_1&#45;&gt;http://postdata.linhd.uned.es/data/Poetic_Work_1 -->
<g id="edge12" class="edge"><title>http://postdata.linhd.uned.es/data/Ensemble_1&#45;&gt;http://postdata.linhd.uned.es/data/Poetic_Work_1</title>
<path fill="none" stroke="black" d="M556.619,-32.7482C556.619,-53.2345 556.619,-89.6108 556.619,-114.144"/>
<polygon fill="black" stroke="black" points="553.119,-114.168 556.619,-124.168 560.119,-114.168 553.119,-114.168"/>
<text text-anchor="middle" x="602.119" y="-54.3269" font-family="Times,serif" font-size="14.00">pdcore:hasWork</text>
</g>
<!-- ddf1d346adc245898b320444b14fc611 -->
<g id="node19" class="node"><title>ddf1d346adc245898b320444b14fc611</title>
<polygon fill="#ff7f0e" stroke="#ff7f0e" points="749.619,-197.527 681.619,-197.527 681.619,-83.5269 749.619,-83.5269 749.619,-197.527"/>
<text text-anchor="middle" x="715.619" y="-166.327" font-family="Times,serif" font-size="14.00">Algunas</text>
<text text-anchor="middle" x="715.619" y="-151.327" font-family="Times,serif" font-size="14.00">obras</text>
<text text-anchor="middle" x="715.619" y="-136.327" font-family="Times,serif" font-size="14.00">de</text>
<text text-anchor="middle" x="715.619" y="-121.327" font-family="Times,serif" font-size="14.00">Fernando</text>
<text text-anchor="middle" x="715.619" y="-106.327" font-family="Times,serif" font-size="14.00">de</text>
<text text-anchor="middle" x="715.619" y="-91.3269" font-family="Times,serif" font-size="14.00">Herrera </text>
</g>
<!-- http://postdata.linhd.uned.es/data/Ensemble_1&#45;&gt;ddf1d346adc245898b320444b14fc611 -->
<g id="edge1" class="edge"><title>http://postdata.linhd.uned.es/data/Ensemble_1&#45;&gt;ddf1d346adc245898b320444b14fc611</title>
<path fill="none" stroke="black" d="M610.242,-29.7094C624.572,-34.6642 639.443,-41.4223 651.619,-50.5269 660.814,-57.4027 669.229,-65.9804 676.722,-75.076"/>
<polygon fill="black" stroke="black" points="674.143,-77.4594 683.065,-83.1727 679.653,-73.1423 674.143,-77.4594"/>
<text text-anchor="middle" x="686.619" y="-54.3269" font-family="Times,serif" font-size="14.00">dc:title</text>
</g>
<!-- http://postdata.linhd.uned.es/data/Person_1&#45;&gt;http://postdata.linhd.uned.es/ontology/postdata&#45;core#Person -->
<g id="edge18" class="edge"><title>http://postdata.linhd.uned.es/data/Person_1&#45;&gt;http://postdata.linhd.uned.es/ontology/postdata&#45;core#Person</title>
<path fill="none" stroke="black" d="M558.009,-593.333C539.843,-598.89 518.939,-605.999 500.619,-614.054 475.241,-625.211 448.038,-640.784 427.821,-653.129"/>
<polygon fill="black" stroke="black" points="425.722,-650.311 419.055,-658.546 429.402,-656.266 425.722,-650.311"/>
<text text-anchor="middle" x="504.119" y="-617.854" font-family="Times,serif" font-size="14.00">a</text>
</g>
<!-- d989e467117d45d99969e43a5c0e0500 -->
<g id="node17" class="node"><title>d989e467117d45d99969e43a5c0e0500</title>
<polygon fill="#ff7f0e" stroke="#ff7f0e" points="538.619,-693.554 480.619,-693.554 480.619,-654.554 538.619,-654.554 538.619,-693.554"/>
<text text-anchor="middle" x="509.619" y="-662.354" font-family="Times,serif" font-size="14.00">Herrera</text>
</g>
<!-- http://postdata.linhd.uned.es/data/Person_1&#45;&gt;d989e467117d45d99969e43a5c0e0500 -->
<g id="edge10" class="edge"><title>http://postdata.linhd.uned.es/data/Person_1&#45;&gt;d989e467117d45d99969e43a5c0e0500</title>
<path fill="none" stroke="black" d="M550.001,-592.118C538.089,-597.019 526.636,-604.029 518.619,-614.054 511.872,-622.49 509.128,-633.839 508.245,-644.33"/>
<polygon fill="black" stroke="black" points="504.745,-644.283 507.903,-654.396 511.741,-644.52 504.745,-644.283"/>
<text text-anchor="middle" x="562.619" y="-617.854" font-family="Times,serif" font-size="14.00">pdcore:surname</text>
</g>
<!-- 9897e36248a9436ba6a74848c439707d -->
<g id="node20" class="node"><title>9897e36248a9436ba6a74848c439707d</title>
<polygon fill="#ff7f0e" stroke="#ff7f0e" points="654.619,-693.554 586.619,-693.554 586.619,-654.554 654.619,-654.554 654.619,-693.554"/>
<text text-anchor="middle" x="620.619" y="-662.354" font-family="Times,serif" font-size="14.00">Fernando</text>
</g>
<!-- http://postdata.linhd.uned.es/data/Person_1&#45;&gt;9897e36248a9436ba6a74848c439707d -->
<g id="edge16" class="edge"><title>http://postdata.linhd.uned.es/data/Person_1&#45;&gt;9897e36248a9436ba6a74848c439707d</title>
<path fill="none" stroke="black" d="M606.503,-596.442C608.927,-609.6 612.455,-628.747 615.377,-644.607"/>
<polygon fill="black" stroke="black" points="611.938,-645.259 617.193,-654.459 618.823,-643.991 611.938,-645.259"/>
<text text-anchor="middle" x="659.119" y="-617.854" font-family="Times,serif" font-size="14.00">pdcore:forename</text>
</g>
<!-- 2d09674196e1490eb5c6c59ab6d6c21e -->
<g id="node21" class="node"><title>2d09674196e1490eb5c6c59ab6d6c21e</title>
<polygon fill="#ff7f0e" stroke="#ff7f0e" points="763.619,-693.554 709.619,-693.554 709.619,-654.554 763.619,-654.554 763.619,-693.554"/>
<text text-anchor="middle" x="736.619" y="-662.354" font-family="Times,serif" font-size="14.00">de</text>
</g>
<!-- http://postdata.linhd.uned.es/data/Person_1&#45;&gt;2d09674196e1490eb5c6c59ab6d6c21e -->
<g id="edge19" class="edge"><title>http://postdata.linhd.uned.es/data/Person_1&#45;&gt;2d09674196e1490eb5c6c59ab6d6c21e</title>
<path fill="none" stroke="black" d="M665.036,-590.712C680.949,-595.641 697.107,-603.017 709.619,-614.054 718.738,-622.098 724.968,-633.85 729.123,-644.751"/>
<polygon fill="black" stroke="black" points="725.864,-646.039 732.379,-654.393 732.496,-643.799 725.864,-646.039"/>
<text text-anchor="middle" x="771.119" y="-617.854" font-family="Times,serif" font-size="14.00">pdcore:nameLink</text>
</g>
<!-- http://postdata.linhd.uned.es/data/Poetic_Work_1&#45;&gt;http://postdata.linhd.uned.es/ontology/postdata&#45;core#PoeticWork -->
<g id="edge23" class="edge"><title>http://postdata.linhd.uned.es/data/Poetic_Work_1&#45;&gt;http://postdata.linhd.uned.es/ontology/postdata&#45;core#PoeticWork</title>
<path fill="none" stroke="black" d="M526.114,-156.316C502.734,-167.635 469.661,-183.615 440.619,-197.527 398.826,-217.547 350.881,-240.31 318.058,-255.863"/>
<polygon fill="black" stroke="black" points="316.34,-252.804 308.801,-260.248 319.336,-259.13 316.34,-252.804"/>
<text text-anchor="middle" x="405.119" y="-219.327" font-family="Times,serif" font-size="14.00">a</text>
</g>
<!-- http://postdata.linhd.uned.es/data/Poetic_Work_1&#45;&gt;http://postdata.linhd.uned.es/data/Redaction_1 -->
<g id="edge25" class="edge"><title>http://postdata.linhd.uned.es/data/Poetic_Work_1&#45;&gt;http://postdata.linhd.uned.es/data/Redaction_1</title>
<path fill="none" stroke="black" d="M532.623,-156.423C514.072,-169.457 489.74,-190.238 478.619,-215.527 474.072,-225.866 473.256,-238.242 473.801,-248.984"/>
<polygon fill="black" stroke="black" points="470.324,-249.401 474.711,-259.044 477.295,-248.77 470.324,-249.401"/>
<text text-anchor="middle" x="550.119" y="-219.327" font-family="Times,serif" font-size="14.00">pdcore:isRealisedThrough</text>
</g>
<!-- http://postdata.linhd.uned.es/data/Poetic_Work_1&#45;&gt;http://postdata.linhd.uned.es/data/Agent_Role_1 -->
<g id="edge6" class="edge"><title>http://postdata.linhd.uned.es/data/Poetic_Work_1&#45;&gt;http://postdata.linhd.uned.es/data/Agent_Role_1</title>
<path fill="none" stroke="black" d="M573.743,-156.612C588.501,-170.515 609.315,-192.438 621.619,-215.527 640.427,-250.823 625.639,-267.322 644.619,-302.527 667.855,-345.626 708.221,-386.103 734.678,-409.975"/>
<polygon fill="black" stroke="black" points="732.605,-412.815 742.407,-416.835 737.251,-407.579 732.605,-412.815"/>
<text text-anchor="middle" x="703.619" y="-271.827" font-family="Times,serif" font-size="14.00">pdcore:hasAgentRole</text>
</g>
<!-- 0ff9438a347b4061bafe3e42f9b4eba5 -->
<g id="node16" class="node"><title>0ff9438a347b4061bafe3e42f9b4eba5</title>
<polygon fill="#ff7f0e" stroke="#ff7f0e" points="825.619,-302.527 771.619,-302.527 771.619,-248.527 825.619,-248.527 825.619,-302.527"/>
<text text-anchor="middle" x="798.619" y="-271.327" font-family="Times,serif" font-size="14.00">Soneto</text>
<text text-anchor="middle" x="798.619" y="-256.327" font-family="Times,serif" font-size="14.00"> &#160;XL &#160;</text>
</g>
<!-- http://postdata.linhd.uned.es/data/Poetic_Work_1&#45;&gt;0ff9438a347b4061bafe3e42f9b4eba5 -->
<g id="edge13" class="edge"><title>http://postdata.linhd.uned.es/data/Poetic_Work_1&#45;&gt;0ff9438a347b4061bafe3e42f9b4eba5</title>
<path fill="none" stroke="black" d="M585.958,-156.26C625.445,-176.288 697.659,-213.623 757.619,-248.527 759.312,-249.513 761.037,-250.534 762.772,-251.576"/>
<polygon fill="black" stroke="black" points="761.094,-254.653 771.449,-256.893 764.751,-248.684 761.094,-254.653"/>
<text text-anchor="middle" x="780.119" y="-219.327" font-family="Times,serif" font-size="14.00">pdcore:originalTitle</text>
</g>
</g>
</svg>
