<?xml version="1.0" encoding="UTF-8" standalone="no"?>
<!DOCTYPE svg PUBLIC "-//W3C//DTD SVG 1.1//EN"
 "http://www.w3.org/Graphics/SVG/1.1/DTD/svg11.dtd">
<!-- Generated by graphviz version 2.38.0 (20140413.2041)
 -->
<!-- Title: G Pages: 1 -->
<svg width="986pt" height="521pt"
 viewBox="0.00 0.00 986.00 520.53" xmlns="http://www.w3.org/2000/svg" xmlns:xlink="http://www.w3.org/1999/xlink">
<g id="graph0" class="graph" transform="scale(1 1) rotate(0) translate(4 516.527)">
<title>G</title>
<polygon fill="white" stroke="none" points="-4,4 -4,-516.527 982,-516.527 982,4 -4,4"/>
<!-- http://postdata.linhd.uned.es/ontology/postdata&#45;core#Redaction -->
<g id="node1" class="node"><title>http://postdata.linhd.uned.es/ontology/postdata&#45;core#Redaction</title>
<ellipse fill="#1f77b4" stroke="#1f77b4" cx="155" cy="-380.527" rx="79.3924" ry="16.0303"/>
<text text-anchor="middle" x="155" y="-376.827" font-family="Times,serif" font-size="14.00">pdcore:Redaction</text>
</g>
<!-- http://postdata.linhd.uned.es/ontology/postdata&#45;core#Ensemble -->
<g id="node2" class="node"><title>http://postdata.linhd.uned.es/ontology/postdata&#45;core#Ensemble</title>
<ellipse fill="#1f77b4" stroke="#1f77b4" cx="222" cy="-140.527" rx="78.4777" ry="16.0303"/>
<text text-anchor="middle" x="222" y="-136.827" font-family="Times,serif" font-size="14.00">pdcore:Ensemble</text>
</g>
<!-- http://postdata.linhd.uned.es/ontology/postdata&#45;core#CreatorRole -->
<g id="node3" class="node"><title>http://postdata.linhd.uned.es/ontology/postdata&#45;core#CreatorRole</title>
<ellipse fill="#1f77b4" stroke="#1f77b4" cx="735" cy="-380.527" rx="86.9483" ry="16.0303"/>
<text text-anchor="middle" x="735" y="-376.827" font-family="Times,serif" font-size="14.00">pdcore:CreatorRole</text>
</g>
<!-- http://postdata.linhd.uned.es/ontology/postdata&#45;core#PoeticWork -->
<g id="node4" class="node"><title>http://postdata.linhd.uned.es/ontology/postdata&#45;core#PoeticWork</title>
<ellipse fill="#1f77b4" stroke="#1f77b4" cx="129" cy="-275.527" rx="86.0347" ry="16.0303"/>
<text text-anchor="middle" x="129" y="-271.827" font-family="Times,serif" font-size="14.00">pdcore:PoeticWork</text>
</g>
<!-- http://postdata.linhd.uned.es/ontology/postdata&#45;core#Person -->
<g id="node5" class="node"><title>http://postdata.linhd.uned.es/ontology/postdata&#45;core#Person</title>
<ellipse fill="#1f77b4" stroke="#1f77b4" cx="335" cy="-485.527" rx="66.4361" ry="16.0303"/>
<text text-anchor="middle" x="335" y="-481.827" font-family="Times,serif" font-size="14.00">pdcore:Person</text>
</g>
<!-- http://postdata.linhd.uned.es/data/Person_2 -->
<g id="node6" class="node"><title>http://postdata.linhd.uned.es/data/Person_2</title>
<ellipse fill="#e377c2" stroke="#e377c2" cx="334" cy="-380.527" rx="82.0488" ry="16.0303"/>
<text text-anchor="middle" x="334" y="-376.827" font-family="Times,serif" font-size="14.00">postdata:Person_2</text>
</g>
<!-- http://postdata.linhd.uned.es/data/Person_2&#45;&gt;http://postdata.linhd.uned.es/ontology/postdata&#45;core#Person -->
<g id="edge13" class="edge"><title>http://postdata.linhd.uned.es/data/Person_2&#45;&gt;http://postdata.linhd.uned.es/ontology/postdata&#45;core#Person</title>
<path fill="none" stroke="black" d="M334.152,-397.17C334.311,-413.524 334.562,-439.453 334.75,-458.821"/>
<polygon fill="black" stroke="black" points="331.253,-459.108 334.85,-469.074 338.253,-459.04 331.253,-459.108"/>
<text text-anchor="middle" x="337.5" y="-429.327" font-family="Times,serif" font-size="14.00">a</text>
</g>
<!-- 37fb0c3b6bf6491baa728a77e05d6442 -->
<g id="node19" class="node"><title>37fb0c3b6bf6491baa728a77e05d6442</title>
<polygon fill="#ff7f0e" stroke="#ff7f0e" points="152,-505.027 96,-505.027 96,-466.027 152,-466.027 152,-505.027"/>
<text text-anchor="middle" x="124" y="-473.827" font-family="Times,serif" font-size="14.00">Ramón</text>
</g>
<!-- http://postdata.linhd.uned.es/data/Person_2&#45;&gt;37fb0c3b6bf6491baa728a77e05d6442 -->
<g id="edge8" class="edge"><title>http://postdata.linhd.uned.es/data/Person_2&#45;&gt;37fb0c3b6bf6491baa728a77e05d6442</title>
<path fill="none" stroke="black" d="M291.139,-394.545C275.999,-398.938 258.809,-403.694 243,-407.527 203.356,-417.138 185.333,-400.656 153,-425.527 142.994,-433.223 136.221,-445.282 131.755,-456.497"/>
<polygon fill="black" stroke="black" points="128.427,-455.41 128.401,-466.005 135.028,-457.739 128.427,-455.41"/>
<text text-anchor="middle" x="188.5" y="-429.327" font-family="Times,serif" font-size="14.00">pdcore:name</text>
</g>
<!-- faef875fc0614f7caf73f70a27c09917 -->
<g id="node21" class="node"><title>faef875fc0614f7caf73f70a27c09917</title>
<polygon fill="#ff7f0e" stroke="#ff7f0e" points="251,-512.527 183,-512.527 183,-458.527 251,-458.527 251,-512.527"/>
<text text-anchor="middle" x="217" y="-481.327" font-family="Times,serif" font-size="14.00">García</text>
<text text-anchor="middle" x="217" y="-466.327" font-family="Times,serif" font-size="14.00">González</text>
</g>
<!-- http://postdata.linhd.uned.es/data/Person_2&#45;&gt;faef875fc0614f7caf73f70a27c09917 -->
<g id="edge18" class="edge"><title>http://postdata.linhd.uned.es/data/Person_2&#45;&gt;faef875fc0614f7caf73f70a27c09917</title>
<path fill="none" stroke="black" d="M287.169,-393.987C269.406,-400.768 250.281,-410.861 237,-425.527 231.104,-432.038 226.936,-440.356 223.993,-448.68"/>
<polygon fill="black" stroke="black" points="220.614,-447.76 221.07,-458.345 227.315,-449.786 220.614,-447.76"/>
<text text-anchor="middle" x="283.5" y="-429.327" font-family="Times,serif" font-size="14.00">pdcore:forename</text>
</g>
<!-- http://postdata.linhd.uned.es/data/Redaction_1 -->
<g id="node7" class="node"><title>http://postdata.linhd.uned.es/data/Redaction_1</title>
<ellipse fill="#e377c2" stroke="#e377c2" cx="328" cy="-275.527" rx="94.5053" ry="16.0303"/>
<text text-anchor="middle" x="328" y="-271.827" font-family="Times,serif" font-size="14.00">postdata:Redaction_1</text>
</g>
<!-- http://postdata.linhd.uned.es/data/Redaction_1&#45;&gt;http://postdata.linhd.uned.es/ontology/postdata&#45;core#Redaction -->
<g id="edge12" class="edge"><title>http://postdata.linhd.uned.es/data/Redaction_1&#45;&gt;http://postdata.linhd.uned.es/ontology/postdata&#45;core#Redaction</title>
<path fill="none" stroke="black" d="M303.213,-291.284C273.067,-309.233 222.053,-339.605 188.447,-359.614"/>
<polygon fill="black" stroke="black" points="186.263,-356.84 179.461,-364.963 189.844,-362.855 186.263,-356.84"/>
<text text-anchor="middle" x="255.5" y="-324.327" font-family="Times,serif" font-size="14.00">a</text>
</g>
<!-- http://postdata.linhd.uned.es/data/Redaction_1&#45;&gt;http://postdata.linhd.uned.es/data/Person_2 -->
<g id="edge21" class="edge"><title>http://postdata.linhd.uned.es/data/Redaction_1&#45;&gt;http://postdata.linhd.uned.es/data/Person_2</title>
<path fill="none" stroke="black" d="M328.911,-292.17C329.864,-308.524 331.374,-334.453 332.503,-353.821"/>
<polygon fill="black" stroke="black" points="329.024,-354.294 333.1,-364.074 336.012,-353.887 329.024,-354.294"/>
<text text-anchor="middle" x="377.5" y="-324.327" font-family="Times,serif" font-size="14.00">pdcore:hasEditor</text>
</g>
<!-- 6f3fe9214d5241dbaf1696d807c2ddf6 -->
<g id="node18" class="node"><title>6f3fe9214d5241dbaf1696d807c2ddf6</title>
<polygon fill="#ff7f0e" stroke="#ff7f0e" points="54,-407.527 0,-407.527 0,-353.527 54,-353.527 54,-407.527"/>
<text text-anchor="middle" x="27" y="-376.327" font-family="Times,serif" font-size="14.00">Soneto</text>
<text text-anchor="middle" x="27" y="-361.327" font-family="Times,serif" font-size="14.00"> &#160;XL &#160;</text>
</g>
<!-- http://postdata.linhd.uned.es/data/Redaction_1&#45;&gt;6f3fe9214d5241dbaf1696d807c2ddf6 -->
<g id="edge7" class="edge"><title>http://postdata.linhd.uned.es/data/Redaction_1&#45;&gt;6f3fe9214d5241dbaf1696d807c2ddf6</title>
<path fill="none" stroke="black" d="M279.237,-289.522C261.867,-293.937 242.121,-298.714 224,-302.527 177.667,-312.276 163.184,-303.51 119,-320.527 99.0966,-328.193 78.9345,-340.501 62.5782,-351.898"/>
<polygon fill="black" stroke="black" points="60.4958,-349.084 54.3933,-357.745 64.5648,-354.78 60.4958,-349.084"/>
<text text-anchor="middle" x="173.5" y="-324.327" font-family="Times,serif" font-size="14.00">pdcore:originalTitle</text>
</g>
<!-- http://postdata.linhd.uned.es/data/Ensemble_1 -->
<g id="node8" class="node"><title>http://postdata.linhd.uned.es/data/Ensemble_1</title>
<ellipse fill="#e377c2" stroke="#e377c2" cx="425" cy="-16.2635" rx="94.0904" ry="16.0303"/>
<text text-anchor="middle" x="425" y="-12.5635" font-family="Times,serif" font-size="14.00">postdata:Ensemble_1</text>
</g>
<!-- http://postdata.linhd.uned.es/data/Ensemble_1&#45;&gt;http://postdata.linhd.uned.es/ontology/postdata&#45;core#Ensemble -->
<g id="edge17" class="edge"><title>http://postdata.linhd.uned.es/data/Ensemble_1&#45;&gt;http://postdata.linhd.uned.es/ontology/postdata&#45;core#Ensemble</title>
<path fill="none" stroke="black" d="M398.509,-31.8713C374.845,-45.0436 339.336,-65.1167 309,-83.5269 290.213,-94.9284 269.512,-108.222 253.018,-118.996"/>
<polygon fill="black" stroke="black" points="250.771,-116.284 244.326,-124.694 254.609,-122.138 250.771,-116.284"/>
<text text-anchor="middle" x="365.5" y="-54.3269" font-family="Times,serif" font-size="14.00">a</text>
</g>
<!-- http://postdata.linhd.uned.es/data/Poetic_Work_1 -->
<g id="node11" class="node"><title>http://postdata.linhd.uned.es/data/Poetic_Work_1</title>
<ellipse fill="#e377c2" stroke="#e377c2" cx="425" cy="-140.527" rx="106.547" ry="16.0303"/>
<text text-anchor="middle" x="425" y="-136.827" font-family="Times,serif" font-size="14.00">postdata:Poetic_Work_1</text>
</g>
<!-- http://postdata.linhd.uned.es/data/Ensemble_1&#45;&gt;http://postdata.linhd.uned.es/data/Poetic_Work_1 -->
<g id="edge3" class="edge"><title>http://postdata.linhd.uned.es/data/Ensemble_1&#45;&gt;http://postdata.linhd.uned.es/data/Poetic_Work_1</title>
<path fill="none" stroke="black" d="M425,-32.7482C425,-53.2345 425,-89.6108 425,-114.144"/>
<polygon fill="black" stroke="black" points="421.5,-114.168 425,-124.168 428.5,-114.168 421.5,-114.168"/>
<text text-anchor="middle" x="463" y="-54.3269" font-family="Times,serif" font-size="14.00">partof:hasPart</text>
</g>
<!-- 81ec5dd97e834e4c961b792cb4382fe1 -->
<g id="node15" class="node"><title>81ec5dd97e834e4c961b792cb4382fe1</title>
<polygon fill="#ff7f0e" stroke="#ff7f0e" points="618,-197.527 550,-197.527 550,-83.5269 618,-83.5269 618,-197.527"/>
<text text-anchor="middle" x="584" y="-166.327" font-family="Times,serif" font-size="14.00">Algunas</text>
<text text-anchor="middle" x="584" y="-151.327" font-family="Times,serif" font-size="14.00">obras</text>
<text text-anchor="middle" x="584" y="-136.327" font-family="Times,serif" font-size="14.00">de</text>
<text text-anchor="middle" x="584" y="-121.327" font-family="Times,serif" font-size="14.00">Fernando</text>
<text text-anchor="middle" x="584" y="-106.327" font-family="Times,serif" font-size="14.00">de</text>
<text text-anchor="middle" x="584" y="-91.3269" font-family="Times,serif" font-size="14.00">Herrera </text>
</g>
<!-- http://postdata.linhd.uned.es/data/Ensemble_1&#45;&gt;81ec5dd97e834e4c961b792cb4382fe1 -->
<g id="edge2" class="edge"><title>http://postdata.linhd.uned.es/data/Ensemble_1&#45;&gt;81ec5dd97e834e4c961b792cb4382fe1</title>
<path fill="none" stroke="black" d="M465.833,-31.0633C478.832,-36.2774 492.954,-42.8399 505,-50.5269 518.99,-59.4547 531.979,-71.5426 543.217,-83.9284"/>
<polygon fill="black" stroke="black" points="540.761,-86.4358 549.982,-91.6532 546.027,-81.8242 540.761,-86.4358"/>
<text text-anchor="middle" x="542" y="-54.3269" font-family="Times,serif" font-size="14.00">dc:title</text>
</g>
<!-- http://postdata.linhd.uned.es/data/Creator_Role_1 -->
<g id="node9" class="node"><title>http://postdata.linhd.uned.es/data/Creator_Role_1</title>
<ellipse fill="#e377c2" stroke="#e377c2" cx="548" cy="-275.527" rx="107.46" ry="16.0303"/>
<text text-anchor="middle" x="548" y="-271.827" font-family="Times,serif" font-size="14.00">postdata:Creator_Role_1</text>
</g>
<!-- http://postdata.linhd.uned.es/data/Creator_Role_1&#45;&gt;http://postdata.linhd.uned.es/ontology/postdata&#45;core#CreatorRole -->
<g id="edge10" class="edge"><title>http://postdata.linhd.uned.es/data/Creator_Role_1&#45;&gt;http://postdata.linhd.uned.es/ontology/postdata&#45;core#CreatorRole</title>
<path fill="none" stroke="black" d="M591.205,-290.431C612.3,-298.016 637.667,-308.348 659,-320.527 677.432,-331.05 696.289,-345.662 710.61,-357.711"/>
<polygon fill="black" stroke="black" points="708.61,-360.607 718.479,-364.459 713.166,-355.293 708.61,-360.607"/>
<text text-anchor="middle" x="684.5" y="-324.327" font-family="Times,serif" font-size="14.00">a</text>
</g>
<!-- http://postdata.linhd.uned.es/data/Person_1 -->
<g id="node10" class="node"><title>http://postdata.linhd.uned.es/data/Person_1</title>
<ellipse fill="#e377c2" stroke="#e377c2" cx="548" cy="-380.527" rx="82.0488" ry="16.0303"/>
<text text-anchor="middle" x="548" y="-376.827" font-family="Times,serif" font-size="14.00">postdata:Person_1</text>
</g>
<!-- http://postdata.linhd.uned.es/data/Creator_Role_1&#45;&gt;http://postdata.linhd.uned.es/data/Person_1 -->
<g id="edge16" class="edge"><title>http://postdata.linhd.uned.es/data/Creator_Role_1&#45;&gt;http://postdata.linhd.uned.es/data/Person_1</title>
<path fill="none" stroke="black" d="M548,-292.17C548,-308.524 548,-334.453 548,-353.821"/>
<polygon fill="black" stroke="black" points="544.5,-354.074 548,-364.074 551.5,-354.074 544.5,-354.074"/>
<text text-anchor="middle" x="601.5" y="-324.327" font-family="Times,serif" font-size="14.00">objectrole:isRoleOf</text>
</g>
<!-- http://postdata.linhd.uned.es/data/Person_1&#45;&gt;http://postdata.linhd.uned.es/ontology/postdata&#45;core#Person -->
<g id="edge20" class="edge"><title>http://postdata.linhd.uned.es/data/Person_1&#45;&gt;http://postdata.linhd.uned.es/ontology/postdata&#45;core#Person</title>
<path fill="none" stroke="black" d="M491.238,-392.37C462.941,-399.274 428.897,-409.917 401,-425.527 383.895,-435.098 367.453,-449.775 355.258,-462.096"/>
<polygon fill="black" stroke="black" points="352.65,-459.759 348.247,-469.396 357.698,-464.608 352.65,-459.759"/>
<text text-anchor="middle" x="404.5" y="-429.327" font-family="Times,serif" font-size="14.00">a</text>
</g>
<!-- 0f226a5de6ca449eae1bef2506ab6358 -->
<g id="node12" class="node"><title>0f226a5de6ca449eae1bef2506ab6358</title>
<polygon fill="#ff7f0e" stroke="#ff7f0e" points="820,-505.027 766,-505.027 766,-466.027 820,-466.027 820,-505.027"/>
<text text-anchor="middle" x="793" y="-473.827" font-family="Times,serif" font-size="14.00">de</text>
</g>
<!-- http://postdata.linhd.uned.es/data/Person_1&#45;&gt;0f226a5de6ca449eae1bef2506ab6358 -->
<g id="edge9" class="edge"><title>http://postdata.linhd.uned.es/data/Person_1&#45;&gt;0f226a5de6ca449eae1bef2506ab6358</title>
<path fill="none" stroke="black" d="M589.387,-394.598C604.843,-399.149 622.617,-403.994 639,-407.527 692.578,-419.081 716.081,-394.121 761,-425.527 771.562,-432.912 778.971,-444.928 783.98,-456.196"/>
<polygon fill="black" stroke="black" points="780.838,-457.768 787.782,-465.77 787.344,-455.184 780.838,-457.768"/>
<text text-anchor="middle" x="822.5" y="-429.327" font-family="Times,serif" font-size="14.00">pdcore:nameLink</text>
</g>
<!-- cbcaf261b1d346e1a9b4dc6eb654f4af -->
<g id="node13" class="node"><title>cbcaf261b1d346e1a9b4dc6eb654f4af</title>
<polygon fill="#ff7f0e" stroke="#ff7f0e" points="942,-505.027 884,-505.027 884,-466.027 942,-466.027 942,-505.027"/>
<text text-anchor="middle" x="913" y="-473.827" font-family="Times,serif" font-size="14.00">Herrera</text>
</g>
<!-- http://postdata.linhd.uned.es/data/Person_1&#45;&gt;cbcaf261b1d346e1a9b4dc6eb654f4af -->
<g id="edge15" class="edge"><title>http://postdata.linhd.uned.es/data/Person_1&#45;&gt;cbcaf261b1d346e1a9b4dc6eb654f4af</title>
<path fill="none" stroke="black" d="M587.907,-394.819C603.658,-399.565 622.018,-404.486 639,-407.527 690.773,-416.799 829.816,-398.604 875,-425.527 886.975,-432.662 895.837,-445.205 901.976,-456.896"/>
<polygon fill="black" stroke="black" points="898.846,-458.463 906.323,-465.97 905.159,-455.439 898.846,-458.463"/>
<text text-anchor="middle" x="934" y="-429.327" font-family="Times,serif" font-size="14.00">pdcore:surname</text>
</g>
<!-- e620b61a4a024efb85f50f6dd6d70ea8 -->
<g id="node14" class="node"><title>e620b61a4a024efb85f50f6dd6d70ea8</title>
<polygon fill="#ff7f0e" stroke="#ff7f0e" points="473,-512.527 419,-512.527 419,-458.527 473,-458.527 473,-512.527"/>
<text text-anchor="middle" x="446" y="-481.327" font-family="Times,serif" font-size="14.00">El</text>
<text text-anchor="middle" x="446" y="-466.327" font-family="Times,serif" font-size="14.00">Divino</text>
</g>
<!-- http://postdata.linhd.uned.es/data/Person_1&#45;&gt;e620b61a4a024efb85f50f6dd6d70ea8 -->
<g id="edge14" class="edge"><title>http://postdata.linhd.uned.es/data/Person_1&#45;&gt;e620b61a4a024efb85f50f6dd6d70ea8</title>
<path fill="none" stroke="black" d="M476.77,-388.708C453.588,-394.82 430.195,-405.832 416,-425.527 410.671,-432.921 411.524,-441.396 415.239,-449.573"/>
<polygon fill="black" stroke="black" points="412.218,-451.34 420.237,-458.264 418.286,-447.85 412.218,-451.34"/>
<text text-anchor="middle" x="480" y="-429.327" font-family="Times,serif" font-size="14.00">pdcore:additionalName</text>
</g>
<!-- 3e04cd2ba8d340d0bc673937f893ad6e -->
<g id="node17" class="node"><title>3e04cd2ba8d340d0bc673937f893ad6e</title>
<polygon fill="#ff7f0e" stroke="#ff7f0e" points="582,-505.027 514,-505.027 514,-466.027 582,-466.027 582,-505.027"/>
<text text-anchor="middle" x="548" y="-473.827" font-family="Times,serif" font-size="14.00">Fernando</text>
</g>
<!-- http://postdata.linhd.uned.es/data/Person_1&#45;&gt;3e04cd2ba8d340d0bc673937f893ad6e -->
<g id="edge4" class="edge"><title>http://postdata.linhd.uned.es/data/Person_1&#45;&gt;3e04cd2ba8d340d0bc673937f893ad6e</title>
<path fill="none" stroke="black" d="M548,-397.17C548,-412.673 548,-436.781 548,-455.747"/>
<polygon fill="black" stroke="black" points="544.5,-455.941 548,-465.941 551.5,-455.942 544.5,-455.941"/>
<text text-anchor="middle" x="583.5" y="-429.327" font-family="Times,serif" font-size="14.00">pdcore:name</text>
</g>
<!-- dec0820029f14df8a67ec8001abdb2f5 -->
<g id="node20" class="node"><title>dec0820029f14df8a67ec8001abdb2f5</title>
<polygon fill="#ff7f0e" stroke="#ff7f0e" points="669,-512.527 615,-512.527 615,-458.527 669,-458.527 669,-512.527"/>
<text text-anchor="middle" x="642" y="-481.327" font-family="Times,serif" font-size="14.00">The</text>
<text text-anchor="middle" x="642" y="-466.327" font-family="Times,serif" font-size="14.00">Divine</text>
</g>
<!-- http://postdata.linhd.uned.es/data/Person_1&#45;&gt;dec0820029f14df8a67ec8001abdb2f5 -->
<g id="edge1" class="edge"><title>http://postdata.linhd.uned.es/data/Person_1&#45;&gt;dec0820029f14df8a67ec8001abdb2f5</title>
<path fill="none" stroke="black" d="M580.806,-395.615C594.475,-402.864 609.562,-412.869 620,-425.527 625.599,-432.316 629.852,-440.67 633.052,-448.932"/>
<polygon fill="black" stroke="black" points="629.778,-450.175 636.342,-458.491 636.397,-447.896 629.778,-450.175"/>
<text text-anchor="middle" x="693" y="-429.327" font-family="Times,serif" font-size="14.00">pdcore:additionalName</text>
</g>
<!-- http://postdata.linhd.uned.es/data/Poetic_Work_1&#45;&gt;http://postdata.linhd.uned.es/ontology/postdata&#45;core#PoeticWork -->
<g id="edge19" class="edge"><title>http://postdata.linhd.uned.es/data/Poetic_Work_1&#45;&gt;http://postdata.linhd.uned.es/ontology/postdata&#45;core#PoeticWork</title>
<path fill="none" stroke="black" d="M395.615,-156.17C372.269,-167.693 338.718,-184.006 309,-197.527 262.708,-218.589 209.038,-241.335 172.429,-256.601"/>
<polygon fill="black" stroke="black" points="170.928,-253.435 163.04,-260.508 173.618,-259.898 170.928,-253.435"/>
<text text-anchor="middle" x="267.5" y="-219.327" font-family="Times,serif" font-size="14.00">a</text>
</g>
<!-- http://postdata.linhd.uned.es/data/Poetic_Work_1&#45;&gt;http://postdata.linhd.uned.es/data/Redaction_1 -->
<g id="edge11" class="edge"><title>http://postdata.linhd.uned.es/data/Poetic_Work_1&#45;&gt;http://postdata.linhd.uned.es/data/Redaction_1</title>
<path fill="none" stroke="black" d="M408.107,-156.752C393.084,-170.918 371.202,-193.152 356,-215.527 348.829,-226.082 342.551,-238.76 337.768,-249.654"/>
<polygon fill="black" stroke="black" points="334.468,-248.47 333.812,-259.045 340.919,-251.188 334.468,-248.47"/>
<text text-anchor="middle" x="427.5" y="-219.327" font-family="Times,serif" font-size="14.00">pdcore:isRealisedThrough</text>
</g>
<!-- http://postdata.linhd.uned.es/data/Poetic_Work_1&#45;&gt;http://postdata.linhd.uned.es/data/Creator_Role_1 -->
<g id="edge5" class="edge"><title>http://postdata.linhd.uned.es/data/Poetic_Work_1&#45;&gt;http://postdata.linhd.uned.es/data/Creator_Role_1</title>
<path fill="none" stroke="black" d="M441.019,-156.71C456.304,-171.391 479.782,-194.447 499,-215.527 509.437,-226.975 520.508,-240.203 529.481,-251.229"/>
<polygon fill="black" stroke="black" points="526.883,-253.584 535.888,-259.166 532.33,-249.186 526.883,-253.584"/>
<text text-anchor="middle" x="561" y="-219.327" font-family="Times,serif" font-size="14.00">pdcore:hasCreator</text>
</g>
<!-- e587b995e0d741f681f5bda1a52b5782 -->
<g id="node16" class="node"><title>e587b995e0d741f681f5bda1a52b5782</title>
<polygon fill="#ff7f0e" stroke="#ff7f0e" points="727,-302.527 673,-302.527 673,-248.527 727,-248.527 727,-302.527"/>
<text text-anchor="middle" x="700" y="-271.327" font-family="Times,serif" font-size="14.00">Soneto</text>
<text text-anchor="middle" x="700" y="-256.327" font-family="Times,serif" font-size="14.00"> &#160;XL &#160;</text>
</g>
<!-- http://postdata.linhd.uned.es/data/Poetic_Work_1&#45;&gt;e587b995e0d741f681f5bda1a52b5782 -->
<g id="edge6" class="edge"><title>http://postdata.linhd.uned.es/data/Poetic_Work_1&#45;&gt;e587b995e0d741f681f5bda1a52b5782</title>
<path fill="none" stroke="black" d="M451.493,-156.311C474.566,-168.697 509.213,-186.133 541,-197.527 572.863,-208.948 584.034,-201.86 615,-215.527 639.02,-226.129 642.466,-233.505 664,-248.527 664.182,-248.654 664.364,-248.781 664.547,-248.909"/>
<polygon fill="black" stroke="black" points="662.754,-251.928 672.941,-254.84 666.794,-246.211 662.754,-251.928"/>
<text text-anchor="middle" x="694.5" y="-219.327" font-family="Times,serif" font-size="14.00">pdcore:originalTitle</text>
</g>
</g>
</svg>
