<?xml version="1.0" encoding="UTF-8" standalone="no"?>
<!DOCTYPE svg PUBLIC "-//W3C//DTD SVG 1.1//EN"
 "http://www.w3.org/Graphics/SVG/1.1/DTD/svg11.dtd">
<!-- Generated by graphviz version 2.38.0 (20140413.2041)
 -->
<!-- Title: G Pages: 1 -->
<svg width="1546pt" height="649pt"
 viewBox="0.00 0.00 1545.69 649.05" xmlns="http://www.w3.org/2000/svg" xmlns:xlink="http://www.w3.org/1999/xlink">
<g id="graph0" class="graph" transform="scale(1 1) rotate(0) translate(4 645.054)">
<title>G</title>
<polygon fill="white" stroke="none" points="-4,4 -4,-645.054 1541.69,-645.054 1541.69,4 -4,4"/>
<!-- http://postdata.linhd.uned.es/ontology/postdata&#45;core#Role -->
<g id="node1" class="node"><title>http://postdata.linhd.uned.es/ontology/postdata&#45;core#Role</title>
<ellipse fill="#1f77b4" stroke="#1f77b4" cx="58.6899" cy="-260.527" rx="58.8803" ry="16.0303"/>
<text text-anchor="middle" x="58.6899" y="-256.827" font-family="Times,serif" font-size="14.00">pdcore:Role</text>
</g>
<!-- http://postdata.linhd.uned.es/ontology/postdata&#45;core#Person -->
<g id="node2" class="node"><title>http://postdata.linhd.uned.es/ontology/postdata&#45;core#Person</title>
<ellipse fill="#1f77b4" stroke="#1f77b4" cx="867.69" cy="-606.554" rx="66.4361" ry="16.0303"/>
<text text-anchor="middle" x="867.69" y="-602.854" font-family="Times,serif" font-size="14.00">pdcore:Person</text>
</g>
<!-- http://postdata.linhd.uned.es/ontology/postdata&#45;core#PoeticWork -->
<g id="node3" class="node"><title>http://postdata.linhd.uned.es/ontology/postdata&#45;core#PoeticWork</title>
<ellipse fill="#1f77b4" stroke="#1f77b4" cx="1040.69" cy="-410.527" rx="86.0347" ry="16.0303"/>
<text text-anchor="middle" x="1040.69" y="-406.827" font-family="Times,serif" font-size="14.00">pdcore:PoeticWork</text>
</g>
<!-- http://postdata.linhd.uned.es/ontology/postdata&#45;core#CreatorRole -->
<g id="node4" class="node"><title>http://postdata.linhd.uned.es/ontology/postdata&#45;core#CreatorRole</title>
<ellipse fill="#1f77b4" stroke="#1f77b4" cx="813.69" cy="-504.79" rx="86.9483" ry="16.0303"/>
<text text-anchor="middle" x="813.69" y="-501.09" font-family="Times,serif" font-size="14.00">pdcore:CreatorRole</text>
</g>
<!-- http://postdata.linhd.uned.es/ontology/postdata&#45;core#Redaction -->
<g id="node5" class="node"><title>http://postdata.linhd.uned.es/ontology/postdata&#45;core#Redaction</title>
<ellipse fill="#1f77b4" stroke="#1f77b4" cx="734.69" cy="-260.527" rx="79.3924" ry="16.0303"/>
<text text-anchor="middle" x="734.69" y="-256.827" font-family="Times,serif" font-size="14.00">pdcore:Redaction</text>
</g>
<!-- http://postdata.linhd.uned.es/data/Marques&#45;Santillana -->
<g id="node6" class="node"><title>http://postdata.linhd.uned.es/data/Marques&#45;Santillana</title>
<ellipse fill="#e377c2" stroke="#e377c2" cx="1040.69" cy="-504.79" rx="121.745" ry="16.0303"/>
<text text-anchor="middle" x="1040.69" y="-501.09" font-family="Times,serif" font-size="14.00">postdata:Marques&#45;Santillana</text>
</g>
<!-- http://postdata.linhd.uned.es/data/Marques&#45;Santillana&#45;&gt;http://postdata.linhd.uned.es/ontology/postdata&#45;core#Person -->
<g id="edge27" class="edge"><title>http://postdata.linhd.uned.es/data/Marques&#45;Santillana&#45;&gt;http://postdata.linhd.uned.es/ontology/postdata&#45;core#Person</title>
<path fill="none" stroke="black" d="M1007.48,-520.495C995.695,-525.995 982.443,-532.504 970.69,-539.054 945.1,-553.315 917.255,-571.464 896.975,-585.197"/>
<polygon fill="black" stroke="black" points="894.79,-582.451 888.501,-590.977 898.735,-588.234 894.79,-582.451"/>
<text text-anchor="middle" x="974.19" y="-542.854" font-family="Times,serif" font-size="14.00">a</text>
</g>
<!-- 988611bf3e01475582c3fecb1a992421 -->
<g id="node16" class="node"><title>988611bf3e01475582c3fecb1a992421</title>
<polygon fill="#ff7f0e" stroke="#ff7f0e" points="1019.69,-641.054 951.69,-641.054 951.69,-572.054 1019.69,-572.054 1019.69,-641.054"/>
<text text-anchor="middle" x="985.69" y="-609.854" font-family="Times,serif" font-size="14.00">López</text>
<text text-anchor="middle" x="985.69" y="-594.854" font-family="Times,serif" font-size="14.00">de</text>
<text text-anchor="middle" x="985.69" y="-579.854" font-family="Times,serif" font-size="14.00">Mendoza</text>
</g>
<!-- http://postdata.linhd.uned.es/data/Marques&#45;Santillana&#45;&gt;988611bf3e01475582c3fecb1a992421 -->
<g id="edge17" class="edge"><title>http://postdata.linhd.uned.es/data/Marques&#45;Santillana&#45;&gt;988611bf3e01475582c3fecb1a992421</title>
<path fill="none" stroke="black" d="M1005.39,-520.48C997.949,-525.276 991.043,-531.396 986.69,-539.054 982.842,-545.824 980.952,-553.643 980.255,-561.487"/>
<polygon fill="black" stroke="black" points="976.75,-561.633 979.963,-571.729 983.747,-561.833 976.75,-561.633"/>
<text text-anchor="middle" x="1030.69" y="-542.854" font-family="Times,serif" font-size="14.00">pdcore:surname</text>
</g>
<!-- 6736279087004271945f8b57105026ae -->
<g id="node22" class="node"><title>6736279087004271945f8b57105026ae</title>
<polygon fill="#ff7f0e" stroke="#ff7f0e" points="1132.19,-641.054 1061.19,-641.054 1061.19,-572.054 1132.19,-572.054 1132.19,-641.054"/>
<text text-anchor="middle" x="1096.69" y="-609.854" font-family="Times,serif" font-size="14.00">Marqués</text>
<text text-anchor="middle" x="1096.69" y="-594.854" font-family="Times,serif" font-size="14.00">de</text>
<text text-anchor="middle" x="1096.69" y="-579.854" font-family="Times,serif" font-size="14.00">Santillana</text>
</g>
<!-- http://postdata.linhd.uned.es/data/Marques&#45;Santillana&#45;&gt;6736279087004271945f8b57105026ae -->
<g id="edge24" class="edge"><title>http://postdata.linhd.uned.es/data/Marques&#45;Santillana&#45;&gt;6736279087004271945f8b57105026ae</title>
<path fill="none" stroke="black" d="M1059.37,-520.982C1064.9,-526.235 1070.58,-532.469 1074.69,-539.054 1079.13,-546.168 1082.77,-554.275 1085.73,-562.324"/>
<polygon fill="black" stroke="black" points="1082.49,-563.68 1089,-572.042 1089.13,-561.448 1082.49,-563.68"/>
<text text-anchor="middle" x="1141.69" y="-542.854" font-family="Times,serif" font-size="14.00">pdcore:positionName</text>
</g>
<!-- 7e2754bca87c4d8fbed34e8b039123d7 -->
<g id="node25" class="node"><title>7e2754bca87c4d8fbed34e8b039123d7</title>
<polygon fill="#ff7f0e" stroke="#ff7f0e" points="1264.69,-626.054 1210.69,-626.054 1210.69,-587.054 1264.69,-587.054 1264.69,-626.054"/>
<text text-anchor="middle" x="1237.69" y="-594.854" font-family="Times,serif" font-size="14.00">Iñigo</text>
</g>
<!-- http://postdata.linhd.uned.es/data/Marques&#45;Santillana&#45;&gt;7e2754bca87c4d8fbed34e8b039123d7 -->
<g id="edge4" class="edge"><title>http://postdata.linhd.uned.es/data/Marques&#45;Santillana&#45;&gt;7e2754bca87c4d8fbed34e8b039123d7</title>
<path fill="none" stroke="black" d="M1127.07,-516.334C1159.67,-521.74 1191.96,-529.274 1204.69,-539.054 1216.91,-548.44 1224.91,-563.559 1229.97,-577.011"/>
<polygon fill="black" stroke="black" points="1226.78,-578.492 1233.29,-586.85 1233.41,-576.256 1226.78,-578.492"/>
<text text-anchor="middle" x="1254.19" y="-542.854" font-family="Times,serif" font-size="14.00">pdcore:name</text>
</g>
<!-- http://postdata.linhd.uned.es/data/Redaction_1 -->
<g id="node7" class="node"><title>http://postdata.linhd.uned.es/data/Redaction_1</title>
<ellipse fill="#e377c2" stroke="#e377c2" cx="897.69" cy="-110.527" rx="94.5053" ry="16.0303"/>
<text text-anchor="middle" x="897.69" y="-106.827" font-family="Times,serif" font-size="14.00">postdata:Redaction_1</text>
</g>
<!-- http://postdata.linhd.uned.es/data/Redaction_1&#45;&gt;http://postdata.linhd.uned.es/ontology/postdata&#45;core#Redaction -->
<g id="edge16" class="edge"><title>http://postdata.linhd.uned.es/data/Redaction_1&#45;&gt;http://postdata.linhd.uned.es/ontology/postdata&#45;core#Redaction</title>
<path fill="none" stroke="black" d="M870.984,-126.268C857.685,-134.165 841.71,-144.521 828.69,-155.527 799.353,-180.326 770.459,-214.079 752.614,-236.318"/>
<polygon fill="black" stroke="black" points="749.807,-234.224 746.337,-244.235 755.292,-238.573 749.807,-234.224"/>
<text text-anchor="middle" x="832.19" y="-159.327" font-family="Times,serif" font-size="14.00">a</text>
</g>
<!-- http://postdata.linhd.uned.es/data/Redaction_Trans_2 -->
<g id="node8" class="node"><title>http://postdata.linhd.uned.es/data/Redaction_Trans_2</title>
<ellipse fill="#e377c2" stroke="#e377c2" cx="1077.69" cy="-16.2635" rx="120.831" ry="16.0303"/>
<text text-anchor="middle" x="1077.69" y="-12.5635" font-family="Times,serif" font-size="14.00">postdata:Redaction_Trans_2</text>
</g>
<!-- http://postdata.linhd.uned.es/data/Redaction_1&#45;&gt;http://postdata.linhd.uned.es/data/Redaction_Trans_2 -->
<g id="edge28" class="edge"><title>http://postdata.linhd.uned.es/data/Redaction_1&#45;&gt;http://postdata.linhd.uned.es/data/Redaction_Trans_2</title>
<path fill="none" stroke="black" d="M929.419,-95.1849C946.883,-87.0016 968.783,-76.2596 987.69,-65.5269 998.303,-59.5021 1000.1,-56.5841 1010.69,-50.5269 1018.97,-45.7934 1028.01,-41.0384 1036.7,-36.6637"/>
<polygon fill="black" stroke="black" points="1038.53,-39.6633 1045.93,-32.085 1035.42,-33.392 1038.53,-39.6633"/>
<text text-anchor="middle" x="1071.19" y="-54.3269" font-family="Times,serif" font-size="14.00">pdcore:hasTranslation</text>
</g>
<!-- http://postdata.linhd.uned.es/data/Creator_Role_1 -->
<g id="node9" class="node"><title>http://postdata.linhd.uned.es/data/Creator_Role_1</title>
<ellipse fill="#e377c2" stroke="#e377c2" cx="828.69" cy="-410.527" rx="107.46" ry="16.0303"/>
<text text-anchor="middle" x="828.69" y="-406.827" font-family="Times,serif" font-size="14.00">postdata:Creator_Role_1</text>
</g>
<!-- http://postdata.linhd.uned.es/data/Redaction_1&#45;&gt;http://postdata.linhd.uned.es/data/Creator_Role_1 -->
<g id="edge8" class="edge"><title>http://postdata.linhd.uned.es/data/Redaction_1&#45;&gt;http://postdata.linhd.uned.es/data/Creator_Role_1</title>
<path fill="none" stroke="black" d="M888.014,-126.801C878.935,-141.889 865.729,-165.921 858.69,-188.527 837.343,-257.079 831.181,-342.272 829.406,-384.032"/>
<polygon fill="black" stroke="black" points="825.904,-384.02 829.027,-394.144 832.899,-384.282 825.904,-384.02"/>
<text text-anchor="middle" x="904.69" y="-256.827" font-family="Times,serif" font-size="14.00">pdcore:hasAgent</text>
</g>
<!-- http://postdata.linhd.uned.es/data/Serranilla_1 -->
<g id="node10" class="node"><title>http://postdata.linhd.uned.es/data/Serranilla_1</title>
<ellipse fill="#e377c2" stroke="#e377c2" cx="1052.69" cy="-260.527" rx="92.7622" ry="16.0303"/>
<text text-anchor="middle" x="1052.69" y="-256.827" font-family="Times,serif" font-size="14.00">postdata:Serranilla_1</text>
</g>
<!-- http://postdata.linhd.uned.es/data/Redaction_1&#45;&gt;http://postdata.linhd.uned.es/data/Serranilla_1 -->
<g id="edge5" class="edge"><title>http://postdata.linhd.uned.es/data/Redaction_1&#45;&gt;http://postdata.linhd.uned.es/data/Serranilla_1</title>
<path fill="none" stroke="black" d="M887.739,-126.746C880.73,-139.573 874.144,-157.816 883.69,-170.527 900.92,-193.471 919.659,-176.456 945.69,-188.527 974.843,-202.045 1005.09,-222.85 1025.95,-238.449"/>
<polygon fill="black" stroke="black" points="1023.93,-241.311 1034.02,-244.568 1028.17,-235.735 1023.93,-241.311"/>
<text text-anchor="middle" x="924.69" y="-159.327" font-family="Times,serif" font-size="14.00">pdcore:realises</text>
</g>
<!-- 7372b53023df47d885b980765466334a -->
<g id="node21" class="node"><title>7372b53023df47d885b980765466334a</title>
<polygon fill="#ff7f0e" stroke="#ff7f0e" points="1234.19,-332.527 1163.19,-332.527 1163.19,-188.527 1234.19,-188.527 1234.19,-332.527"/>
<text text-anchor="middle" x="1198.69" y="-301.327" font-family="Times,serif" font-size="14.00">Moça</text>
<text text-anchor="middle" x="1198.69" y="-286.327" font-family="Times,serif" font-size="14.00">tan</text>
<text text-anchor="middle" x="1198.69" y="-271.327" font-family="Times,serif" font-size="14.00">fermosa</text>
<text text-anchor="middle" x="1198.69" y="-256.327" font-family="Times,serif" font-size="14.00">Non</text>
<text text-anchor="middle" x="1198.69" y="-241.327" font-family="Times,serif" font-size="14.00">vi</text>
<text text-anchor="middle" x="1198.69" y="-226.327" font-family="Times,serif" font-size="14.00">en</text>
<text text-anchor="middle" x="1198.69" y="-211.327" font-family="Times,serif" font-size="14.00">la</text>
<text text-anchor="middle" x="1198.69" y="-196.327" font-family="Times,serif" font-size="14.00">frontera...</text>
</g>
<!-- http://postdata.linhd.uned.es/data/Redaction_1&#45;&gt;7372b53023df47d885b980765466334a -->
<g id="edge15" class="edge"><title>http://postdata.linhd.uned.es/data/Redaction_1&#45;&gt;7372b53023df47d885b980765466334a</title>
<path fill="none" stroke="black" d="M990.563,-113.789C1035.4,-118.555 1088.31,-129.876 1129.69,-155.527 1140.15,-162.013 1149.37,-170.742 1157.38,-180.4"/>
<polygon fill="black" stroke="black" points="1154.64,-182.578 1163.54,-188.319 1160.16,-178.278 1154.64,-182.578"/>
<text text-anchor="middle" x="1201.19" y="-159.327" font-family="Times,serif" font-size="14.00">pdcore:sampleText</text>
</g>
<!-- 3dcd3bd507414c8c94b2ec4977a021ab -->
<g id="node23" class="node"><title>3dcd3bd507414c8c94b2ec4977a021ab</title>
<polygon fill="#ff7f0e" stroke="#ff7f0e" points="1351.19,-280.027 1282.19,-280.027 1282.19,-241.027 1351.19,-241.027 1351.19,-280.027"/>
<text text-anchor="middle" x="1316.69" y="-248.827" font-family="Times,serif" font-size="14.00">Serranilla</text>
</g>
<!-- http://postdata.linhd.uned.es/data/Redaction_1&#45;&gt;3dcd3bd507414c8c94b2ec4977a021ab -->
<g id="edge11" class="edge"><title>http://postdata.linhd.uned.es/data/Redaction_1&#45;&gt;3dcd3bd507414c8c94b2ec4977a021ab</title>
<path fill="none" stroke="black" d="M973.258,-120.339C1077.96,-132.607 1254.74,-153.562 1257.69,-155.527 1284.13,-173.164 1300.05,-206.911 1308.58,-231.185"/>
<polygon fill="black" stroke="black" points="1305.33,-232.53 1311.78,-240.934 1311.98,-230.341 1305.33,-232.53"/>
<text text-anchor="middle" x="1329.19" y="-159.327" font-family="Times,serif" font-size="14.00">pdcore:originalTitle</text>
</g>
<!-- http://postdata.linhd.uned.es/data/Redaction_Trans_2&#45;&gt;http://postdata.linhd.uned.es/ontology/postdata&#45;core#Redaction -->
<g id="edge26" class="edge"><title>http://postdata.linhd.uned.es/data/Redaction_Trans_2&#45;&gt;http://postdata.linhd.uned.es/ontology/postdata&#45;core#Redaction</title>
<path fill="none" stroke="black" d="M977.516,-25.4219C938.286,-30.3472 893.284,-38.1688 853.69,-50.5269 822.004,-60.4169 808.079,-58.1434 786.69,-83.5269 749.598,-127.545 738.961,-197.091 735.913,-234.209"/>
<polygon fill="black" stroke="black" points="732.42,-233.978 735.214,-244.198 739.403,-234.467 732.42,-233.978"/>
<text text-anchor="middle" x="790.19" y="-106.827" font-family="Times,serif" font-size="14.00">a</text>
</g>
<!-- http://postdata.linhd.uned.es/data/Redaction_Trans_2&#45;&gt;http://postdata.linhd.uned.es/data/Redaction_1 -->
<g id="edge6" class="edge"><title>http://postdata.linhd.uned.es/data/Redaction_Trans_2&#45;&gt;http://postdata.linhd.uned.es/data/Redaction_1</title>
<path fill="none" stroke="black" d="M963.267,-21.6314C918.982,-25.9423 875.585,-34.3277 861.69,-50.5269 852.077,-61.7335 860.022,-75.7977 870.867,-87.3835"/>
<polygon fill="black" stroke="black" points="868.652,-90.1124 878.257,-94.5842 873.538,-85.0987 868.652,-90.1124"/>
<text text-anchor="middle" x="924.69" y="-54.3269" font-family="Times,serif" font-size="14.00">pdcore:isTranslationOf</text>
</g>
<!-- http://postdata.linhd.uned.es/data/Redaction_Trans_2&#45;&gt;http://postdata.linhd.uned.es/data/Serranilla_1 -->
<g id="edge10" class="edge"><title>http://postdata.linhd.uned.es/data/Redaction_Trans_2&#45;&gt;http://postdata.linhd.uned.es/data/Serranilla_1</title>
<path fill="none" stroke="black" d="M1113.07,-31.907C1120.51,-36.704 1127.39,-42.8364 1131.69,-50.5269 1137.01,-60.0456 1165.51,-77.0972 1129.69,-170.527 1119.48,-197.162 1097.5,-221.217 1079.63,-237.583"/>
<polygon fill="black" stroke="black" points="1076.93,-235.295 1071.77,-244.544 1081.57,-240.537 1076.93,-235.295"/>
<text text-anchor="middle" x="1188.69" y="-106.827" font-family="Times,serif" font-size="14.00">pdcore:realises</text>
</g>
<!-- http://postdata.linhd.uned.es/data/Role_2 -->
<g id="node11" class="node"><title>http://postdata.linhd.uned.es/data/Role_2</title>
<ellipse fill="#e377c2" stroke="#e377c2" cx="415.69" cy="-110.527" rx="73.5782" ry="16.0303"/>
<text text-anchor="middle" x="415.69" y="-106.827" font-family="Times,serif" font-size="14.00">postdata:Role_2</text>
</g>
<!-- http://postdata.linhd.uned.es/data/Redaction_Trans_2&#45;&gt;http://postdata.linhd.uned.es/data/Role_2 -->
<g id="edge29" class="edge"><title>http://postdata.linhd.uned.es/data/Redaction_Trans_2&#45;&gt;http://postdata.linhd.uned.es/data/Role_2</title>
<path fill="none" stroke="black" d="M962.568,-21.4113C877.837,-25.6679 760.064,-34.102 657.69,-50.5269 591.179,-61.198 516.011,-80.7269 467.345,-94.3834"/>
<polygon fill="black" stroke="black" points="466.346,-91.0286 457.676,-97.1175 468.251,-97.7645 466.346,-91.0286"/>
<text text-anchor="middle" x="703.69" y="-54.3269" font-family="Times,serif" font-size="14.00">pdcore:hasAgent</text>
</g>
<!-- c364c4dfe6e34103a254fceb3f4054a7 -->
<g id="node17" class="node"><title>c364c4dfe6e34103a254fceb3f4054a7</title>
<polygon fill="#ff7f0e" stroke="#ff7f0e" points="1317.19,-130.027 1246.19,-130.027 1246.19,-91.0269 1317.19,-91.0269 1317.19,-130.027"/>
<text text-anchor="middle" x="1281.69" y="-98.8269" font-family="Times,serif" font-size="14.00">Portugues</text>
</g>
<!-- http://postdata.linhd.uned.es/data/Redaction_Trans_2&#45;&gt;c364c4dfe6e34103a254fceb3f4054a7 -->
<g id="edge19" class="edge"><title>http://postdata.linhd.uned.es/data/Redaction_Trans_2&#45;&gt;c364c4dfe6e34103a254fceb3f4054a7</title>
<path fill="none" stroke="black" d="M1114.57,-31.8201C1128.74,-37.5167 1145.02,-44.1939 1159.69,-50.5269 1192.01,-64.4797 1200.06,-68.0688 1231.69,-83.5269 1233.5,-84.4131 1235.35,-85.3252 1237.21,-86.2534"/>
<polygon fill="black" stroke="black" points="1236.06,-89.594 1246.56,-90.9819 1239.22,-83.3468 1236.06,-89.594"/>
<text text-anchor="middle" x="1240.69" y="-54.3269" font-family="Times,serif" font-size="14.00">pdcore:language</text>
</g>
<!-- c9b12d088213450fa0465e8a20453018 -->
<g id="node19" class="node"><title>c9b12d088213450fa0465e8a20453018</title>
<polygon fill="#ff7f0e" stroke="#ff7f0e" points="1404.19,-130.027 1335.19,-130.027 1335.19,-91.0269 1404.19,-91.0269 1404.19,-130.027"/>
<text text-anchor="middle" x="1369.69" y="-98.8269" font-family="Times,serif" font-size="14.00">Serranilla</text>
</g>
<!-- http://postdata.linhd.uned.es/data/Redaction_Trans_2&#45;&gt;c9b12d088213450fa0465e8a20453018 -->
<g id="edge9" class="edge"><title>http://postdata.linhd.uned.es/data/Redaction_Trans_2&#45;&gt;c9b12d088213450fa0465e8a20453018</title>
<path fill="none" stroke="black" d="M1184.48,-23.9275C1219.02,-28.7079 1256.86,-36.8178 1289.69,-50.5269 1308.9,-58.5499 1327.78,-72.1163 1342.36,-84.2185"/>
<polygon fill="black" stroke="black" points="1340.12,-86.9093 1350,-90.7468 1344.67,-81.5885 1340.12,-86.9093"/>
<text text-anchor="middle" x="1371.19" y="-54.3269" font-family="Times,serif" font-size="14.00">pdcore:originalTitle</text>
</g>
<!-- 479e9521b3f3486c9b735cce472badee -->
<g id="node24" class="node"><title>479e9521b3f3486c9b735cce472badee</title>
<polygon fill="#ff7f0e" stroke="#ff7f0e" points="1537.69,-137.527 1465.69,-137.527 1465.69,-83.5269 1537.69,-83.5269 1537.69,-137.527"/>
<text text-anchor="middle" x="1501.69" y="-106.327" font-family="Times,serif" font-size="14.00">Serranilha</text>
<text text-anchor="middle" x="1501.69" y="-91.3269" font-family="Times,serif" font-size="14.00"> &#160;&#160;&#160;VI &#160;&#160;&#160;</text>
</g>
<!-- http://postdata.linhd.uned.es/data/Redaction_Trans_2&#45;&gt;479e9521b3f3486c9b735cce472badee -->
<g id="edge22" class="edge"><title>http://postdata.linhd.uned.es/data/Redaction_Trans_2&#45;&gt;479e9521b3f3486c9b735cce472badee</title>
<path fill="none" stroke="black" d="M1193.86,-20.9657C1279.59,-25.0548 1388.25,-33.4761 1429.69,-50.5269 1444.26,-56.5226 1458.18,-66.5094 1469.82,-76.5776"/>
<polygon fill="black" stroke="black" points="1467.74,-79.4085 1477.5,-83.5128 1472.43,-74.2132 1467.74,-79.4085"/>
<text text-anchor="middle" x="1478.19" y="-54.3269" font-family="Times,serif" font-size="14.00">dc:Title</text>
</g>
<!-- http://postdata.linhd.uned.es/data/Creator_Role_1&#45;&gt;http://postdata.linhd.uned.es/ontology/postdata&#45;core#CreatorRole -->
<g id="edge23" class="edge"><title>http://postdata.linhd.uned.es/data/Creator_Role_1&#45;&gt;http://postdata.linhd.uned.es/ontology/postdata&#45;core#CreatorRole</title>
<path fill="none" stroke="black" d="M826.145,-427.178C823.869,-441.18 820.49,-461.963 817.826,-478.351"/>
<polygon fill="black" stroke="black" points="814.347,-477.938 816.197,-488.37 821.256,-479.062 814.347,-477.938"/>
<text text-anchor="middle" x="825.19" y="-459.327" font-family="Times,serif" font-size="14.00">a</text>
</g>
<!-- http://postdata.linhd.uned.es/data/Creator_Role_1&#45;&gt;http://postdata.linhd.uned.es/data/Marques&#45;Santillana -->
<g id="edge18" class="edge"><title>http://postdata.linhd.uned.es/data/Creator_Role_1&#45;&gt;http://postdata.linhd.uned.es/data/Marques&#45;Santillana</title>
<path fill="none" stroke="black" d="M862.282,-426.146C898.924,-442.093 957.679,-467.663 997.669,-485.068"/>
<polygon fill="black" stroke="black" points="996.339,-488.306 1006.9,-489.087 999.132,-481.887 996.339,-488.306"/>
<text text-anchor="middle" x="1005.69" y="-459.327" font-family="Times,serif" font-size="14.00">pdcore:isRoleOf</text>
</g>
<!-- http://postdata.linhd.uned.es/data/Serranilla_1&#45;&gt;http://postdata.linhd.uned.es/ontology/postdata&#45;core#PoeticWork -->
<g id="edge21" class="edge"><title>http://postdata.linhd.uned.es/data/Serranilla_1&#45;&gt;http://postdata.linhd.uned.es/ontology/postdata&#45;core#PoeticWork</title>
<path fill="none" stroke="black" d="M1051.45,-276.808C1049.39,-302.177 1045.25,-353.244 1042.75,-384.108"/>
<polygon fill="black" stroke="black" points="1039.26,-383.857 1041.94,-394.107 1046.24,-384.423 1039.26,-383.857"/>
<text text-anchor="middle" x="1049.19" y="-354.327" font-family="Times,serif" font-size="14.00">a</text>
</g>
<!-- http://postdata.linhd.uned.es/data/Serranilla_1&#45;&gt;http://postdata.linhd.uned.es/data/Redaction_1 -->
<g id="edge12" class="edge"><title>http://postdata.linhd.uned.es/data/Serranilla_1&#45;&gt;http://postdata.linhd.uned.es/data/Redaction_1</title>
<path fill="none" stroke="black" d="M1042.12,-244.178C1026.88,-222.724 997.074,-183.289 965.69,-155.527 955.8,-146.779 944.017,-138.529 933.06,-131.588"/>
<polygon fill="black" stroke="black" points="934.852,-128.581 924.502,-126.318 931.182,-134.542 934.852,-128.581"/>
<text text-anchor="middle" x="1054.19" y="-159.327" font-family="Times,serif" font-size="14.00">pdcore:isRealisedThrough</text>
</g>
<!-- http://postdata.linhd.uned.es/data/Serranilla_1&#45;&gt;http://postdata.linhd.uned.es/data/Creator_Role_1 -->
<g id="edge2" class="edge"><title>http://postdata.linhd.uned.es/data/Serranilla_1&#45;&gt;http://postdata.linhd.uned.es/data/Creator_Role_1</title>
<path fill="none" stroke="black" d="M1030.16,-276.511C1008.52,-290.898 974.891,-313.23 945.69,-332.527 916.728,-351.666 883.682,-373.405 860.114,-388.892"/>
<polygon fill="black" stroke="black" points="858.01,-386.087 851.574,-394.503 861.854,-391.937 858.01,-386.087"/>
<text text-anchor="middle" x="967.69" y="-354.327" font-family="Times,serif" font-size="14.00">pdcore:hasCreator</text>
</g>
<!-- http://postdata.linhd.uned.es/data/Ensemble_1 -->
<g id="node12" class="node"><title>http://postdata.linhd.uned.es/data/Ensemble_1</title>
<ellipse fill="#e377c2" stroke="#e377c2" cx="1238.69" cy="-410.527" rx="94.0904" ry="16.0303"/>
<text text-anchor="middle" x="1238.69" y="-406.827" font-family="Times,serif" font-size="14.00">postdata:Ensemble_1</text>
</g>
<!-- http://postdata.linhd.uned.es/data/Serranilla_1&#45;&gt;http://postdata.linhd.uned.es/data/Ensemble_1 -->
<g id="edge25" class="edge"><title>http://postdata.linhd.uned.es/data/Serranilla_1&#45;&gt;http://postdata.linhd.uned.es/data/Ensemble_1</title>
<path fill="none" stroke="black" d="M1071.55,-276.532C1104.69,-302.904 1173.48,-357.643 1211.67,-388.028"/>
<polygon fill="black" stroke="black" points="1209.78,-390.994 1219.78,-394.482 1214.14,-385.516 1209.78,-390.994"/>
<text text-anchor="middle" x="1227.69" y="-354.327" font-family="Times,serif" font-size="14.00">pdcore:isPartOf</text>
</g>
<!-- 29fb93b6f1134a9182bb3a38b25f1dd2 -->
<g id="node18" class="node"><title>29fb93b6f1134a9182bb3a38b25f1dd2</title>
<polygon fill="#ff7f0e" stroke="#ff7f0e" points="1420.19,-437.527 1351.19,-437.527 1351.19,-383.527 1420.19,-383.527 1420.19,-437.527"/>
<text text-anchor="middle" x="1385.69" y="-406.327" font-family="Times,serif" font-size="14.00">Serranilla</text>
<text text-anchor="middle" x="1385.69" y="-391.327" font-family="Times,serif" font-size="14.00"> &#160;&#160;&#160;VI &#160;&#160;&#160;</text>
</g>
<!-- http://postdata.linhd.uned.es/data/Serranilla_1&#45;&gt;29fb93b6f1134a9182bb3a38b25f1dd2 -->
<g id="edge13" class="edge"><title>http://postdata.linhd.uned.es/data/Serranilla_1&#45;&gt;29fb93b6f1134a9182bb3a38b25f1dd2</title>
<path fill="none" stroke="black" d="M1069.11,-276.787C1087.99,-293.389 1120.65,-319.323 1153.69,-332.527 1204.18,-352.704 1222.79,-334.321 1274.69,-350.527 1306.37,-360.421 1312.49,-367.739 1341.69,-383.527 1341.78,-383.577 1341.88,-383.627 1341.97,-383.678"/>
<polygon fill="black" stroke="black" points="1340.32,-386.767 1350.76,-388.564 1343.72,-380.648 1340.32,-386.767"/>
<text text-anchor="middle" x="1330.69" y="-354.327" font-family="Times,serif" font-size="14.00">dc:title</text>
</g>
<!-- 8e9198c46231419aa8af46ed440d110a -->
<g id="node20" class="node"><title>8e9198c46231419aa8af46ed440d110a</title>
<polygon fill="#ff7f0e" stroke="#ff7f0e" points="1492.69,-430.027 1438.69,-430.027 1438.69,-391.027 1492.69,-391.027 1492.69,-430.027"/>
<text text-anchor="middle" x="1465.69" y="-398.827" font-family="Times,serif" font-size="14.00">es</text>
</g>
<!-- http://postdata.linhd.uned.es/data/Serranilla_1&#45;&gt;8e9198c46231419aa8af46ed440d110a -->
<g id="edge1" class="edge"><title>http://postdata.linhd.uned.es/data/Serranilla_1&#45;&gt;8e9198c46231419aa8af46ed440d110a</title>
<path fill="none" stroke="black" d="M1068.64,-276.839C1087.34,-293.75 1120.08,-320.211 1153.69,-332.527 1237.49,-363.234 1267.26,-328.262 1353.69,-350.527 1388.96,-359.612 1396.97,-365.637 1428.69,-383.527 1429.81,-384.156 1430.93,-384.811 1432.06,-385.485"/>
<polygon fill="black" stroke="black" points="1430.33,-388.533 1440.64,-390.94 1434.08,-382.625 1430.33,-388.533"/>
<text text-anchor="middle" x="1441.69" y="-354.327" font-family="Times,serif" font-size="14.00">pdcore:language</text>
</g>
<!-- http://postdata.linhd.uned.es/data/Role_2&#45;&gt;http://postdata.linhd.uned.es/ontology/postdata&#45;core#Role -->
<g id="edge20" class="edge"><title>http://postdata.linhd.uned.es/data/Role_2&#45;&gt;http://postdata.linhd.uned.es/ontology/postdata&#45;core#Role</title>
<path fill="none" stroke="black" d="M351.53,-118.476C290.261,-127.367 197.098,-146.925 126.69,-188.527 106.233,-200.615 87.915,-220.553 75.46,-236.228"/>
<polygon fill="black" stroke="black" points="72.4828,-234.359 69.1674,-244.421 78.0344,-238.623 72.4828,-234.359"/>
<text text-anchor="middle" x="197.19" y="-159.327" font-family="Times,serif" font-size="14.00">a</text>
</g>
<!-- http://postdata.linhd.uned.es/data/Jose&#45;J&#45;Prats -->
<g id="node13" class="node"><title>http://postdata.linhd.uned.es/data/Jose&#45;J&#45;Prats</title>
<ellipse fill="#e377c2" stroke="#e377c2" cx="227.69" cy="-260.527" rx="91.8478" ry="16.0303"/>
<text text-anchor="middle" x="227.69" y="-256.827" font-family="Times,serif" font-size="14.00">postdata:Jose&#45;J&#45;Prats</text>
</g>
<!-- http://postdata.linhd.uned.es/data/Role_2&#45;&gt;http://postdata.linhd.uned.es/data/Jose&#45;J&#45;Prats -->
<g id="edge14" class="edge"><title>http://postdata.linhd.uned.es/data/Role_2&#45;&gt;http://postdata.linhd.uned.es/data/Jose&#45;J&#45;Prats</title>
<path fill="none" stroke="black" d="M379.008,-124.7C360.815,-132.198 339.074,-142.669 321.69,-155.527 290.459,-178.626 261.631,-213.349 244.351,-236.222"/>
<polygon fill="black" stroke="black" points="241.461,-234.243 238.312,-244.359 247.082,-238.414 241.461,-234.243"/>
<text text-anchor="middle" x="366.69" y="-159.327" font-family="Times,serif" font-size="14.00">pdcore:isRoleOf</text>
</g>
<!-- http://postdata.linhd.uned.es/kos/definitely -->
<g id="node14" class="node"><title>http://postdata.linhd.uned.es/kos/definitely</title>
<ellipse fill="#e377c2" stroke="#e377c2" cx="415.69" cy="-260.527" rx="77.5641" ry="16.0303"/>
<text text-anchor="middle" x="415.69" y="-256.827" font-family="Times,serif" font-size="14.00">pdskos:definitely</text>
</g>
<!-- http://postdata.linhd.uned.es/data/Role_2&#45;&gt;http://postdata.linhd.uned.es/kos/definitely -->
<g id="edge3" class="edge"><title>http://postdata.linhd.uned.es/data/Role_2&#45;&gt;http://postdata.linhd.uned.es/kos/definitely</title>
<path fill="none" stroke="black" d="M415.69,-126.808C415.69,-152.066 415.69,-202.798 415.69,-233.702"/>
<polygon fill="black" stroke="black" points="412.19,-234.107 415.69,-244.107 419.19,-234.107 412.19,-234.107"/>
<text text-anchor="middle" x="459.69" y="-159.327" font-family="Times,serif" font-size="14.00">pdcore:certainty</text>
</g>
<!-- http://postdata.linhd.uned.es/kos/editor -->
<g id="node15" class="node"><title>http://postdata.linhd.uned.es/kos/editor</title>
<ellipse fill="#e377c2" stroke="#e377c2" cx="574.69" cy="-260.527" rx="62.8651" ry="16.0303"/>
<text text-anchor="middle" x="574.69" y="-256.827" font-family="Times,serif" font-size="14.00">pdskos:editor</text>
</g>
<!-- http://postdata.linhd.uned.es/data/Role_2&#45;&gt;http://postdata.linhd.uned.es/kos/editor -->
<g id="edge7" class="edge"><title>http://postdata.linhd.uned.es/data/Role_2&#45;&gt;http://postdata.linhd.uned.es/kos/editor</title>
<path fill="none" stroke="black" d="M454.314,-124.429C471.946,-131.642 492.281,-141.949 507.69,-155.527 533.071,-177.891 552.581,-212.102 563.838,-235.118"/>
<polygon fill="black" stroke="black" points="560.709,-236.687 568.15,-244.229 567.036,-233.693 560.709,-236.687"/>
<text text-anchor="middle" x="577.69" y="-159.327" font-family="Times,serif" font-size="14.00">pdcore:roleFunction</text>
</g>
</g>
</svg>
