<?xml version="1.0" encoding="UTF-8" standalone="no"?>
<!DOCTYPE svg PUBLIC "-//W3C//DTD SVG 1.1//EN"
 "http://www.w3.org/Graphics/SVG/1.1/DTD/svg11.dtd">
<!-- Generated by graphviz version 2.38.0 (20140413.2041)
 -->
<!-- Title: G Pages: 1 -->
<svg width="1482pt" height="641pt"
 viewBox="0.00 0.00 1482.02 640.53" xmlns="http://www.w3.org/2000/svg" xmlns:xlink="http://www.w3.org/1999/xlink">
<g id="graph0" class="graph" transform="scale(1 1) rotate(0) translate(4 636.527)">
<title>G</title>
<polygon fill="white" stroke="none" points="-4,4 -4,-636.527 1478.02,-636.527 1478.02,4 -4,4"/>
<!-- http://postdata.linhd.uned.es/ontology/postdata&#45;core#Person -->
<g id="node1" class="node"><title>http://postdata.linhd.uned.es/ontology/postdata&#45;core#Person</title>
<ellipse fill="#1f77b4" stroke="#1f77b4" cx="1057.02" cy="-598.027" rx="66.4361" ry="16.0303"/>
<text text-anchor="middle" x="1057.02" y="-594.327" font-family="Times,serif" font-size="14.00">pdcore:Person</text>
</g>
<!-- http://postdata.linhd.uned.es/ontology/postdata&#45;core#Redaction -->
<g id="node2" class="node"><title>http://postdata.linhd.uned.es/ontology/postdata&#45;core#Redaction</title>
<ellipse fill="#1f77b4" stroke="#1f77b4" cx="135.024" cy="-403.027" rx="79.3924" ry="16.0303"/>
<text text-anchor="middle" x="135.024" y="-399.327" font-family="Times,serif" font-size="14.00">pdcore:Redaction</text>
</g>
<!-- http://postdata.linhd.uned.es/ontology/postdata&#45;core#AgentRole -->
<g id="node3" class="node"><title>http://postdata.linhd.uned.es/ontology/postdata&#45;core#AgentRole</title>
<ellipse fill="#1f77b4" stroke="#1f77b4" cx="82.0244" cy="-598.027" rx="82.0488" ry="16.0303"/>
<text text-anchor="middle" x="82.0244" y="-594.327" font-family="Times,serif" font-size="14.00">pdcore:AgentRole</text>
</g>
<!-- http://postdata.linhd.uned.es/ontology/postdata&#45;core#CreatorRole -->
<g id="node4" class="node"><title>http://postdata.linhd.uned.es/ontology/postdata&#45;core#CreatorRole</title>
<ellipse fill="#1f77b4" stroke="#1f77b4" cx="1047.02" cy="-403.027" rx="86.9483" ry="16.0303"/>
<text text-anchor="middle" x="1047.02" y="-399.327" font-family="Times,serif" font-size="14.00">pdcore:CreatorRole</text>
</g>
<!-- http://postdata.linhd.uned.es/ontology/postdata&#45;core#PoeticWork -->
<g id="node5" class="node"><title>http://postdata.linhd.uned.es/ontology/postdata&#45;core#PoeticWork</title>
<ellipse fill="#1f77b4" stroke="#1f77b4" cx="337.024" cy="-215.527" rx="86.0347" ry="16.0303"/>
<text text-anchor="middle" x="337.024" y="-211.827" font-family="Times,serif" font-size="14.00">pdcore:PoeticWork</text>
</g>
<!-- http://postdata.linhd.uned.es/data/AgentRole_2 -->
<g id="node6" class="node"><title>http://postdata.linhd.uned.es/data/AgentRole_2</title>
<ellipse fill="#e377c2" stroke="#e377c2" cx="329.024" cy="-403.027" rx="96.7474" ry="16.0303"/>
<text text-anchor="middle" x="329.024" y="-399.327" font-family="Times,serif" font-size="14.00">postdata:AgentRole_2</text>
</g>
<!-- http://postdata.linhd.uned.es/data/AgentRole_2&#45;&gt;http://postdata.linhd.uned.es/ontology/postdata&#45;core#AgentRole -->
<g id="edge21" class="edge"><title>http://postdata.linhd.uned.es/data/AgentRole_2&#45;&gt;http://postdata.linhd.uned.es/ontology/postdata&#45;core#AgentRole</title>
<path fill="none" stroke="black" d="M316.38,-419.269C297.516,-441.442 260.224,-483.148 223.024,-512.527 190.387,-538.303 149.217,-562.115 119.804,-577.846"/>
<polygon fill="black" stroke="black" points="117.899,-574.895 110.694,-582.662 121.17,-581.083 117.899,-574.895"/>
<text text-anchor="middle" x="201.524" y="-534.327" font-family="Times,serif" font-size="14.00">a</text>
</g>
<!-- http://postdata.linhd.uned.es/kos/Editor -->
<g id="node7" class="node"><title>http://postdata.linhd.uned.es/kos/Editor</title>
<ellipse fill="#e377c2" stroke="#e377c2" cx="247.024" cy="-598.027" rx="65.1077" ry="16.0303"/>
<text text-anchor="middle" x="247.024" y="-594.327" font-family="Times,serif" font-size="14.00">pdskos:Editor</text>
</g>
<!-- http://postdata.linhd.uned.es/data/AgentRole_2&#45;&gt;http://postdata.linhd.uned.es/kos/Editor -->
<g id="edge13" class="edge"><title>http://postdata.linhd.uned.es/data/AgentRole_2&#45;&gt;http://postdata.linhd.uned.es/kos/Editor</title>
<path fill="none" stroke="black" d="M321.234,-419.378C309.414,-442.956 286.576,-489.646 270.024,-530.527 264.58,-543.973 259.238,-559.254 255.074,-571.774"/>
<polygon fill="black" stroke="black" points="251.662,-570.948 251.878,-581.541 258.315,-573.125 251.662,-570.948"/>
<text text-anchor="middle" x="325.024" y="-534.327" font-family="Times,serif" font-size="14.00">pdcore:roleFunction</text>
</g>
<!-- http://postdata.linhd.uned.es/kos/Definitely -->
<g id="node10" class="node"><title>http://postdata.linhd.uned.es/kos/Definitely</title>
<ellipse fill="#e377c2" stroke="#e377c2" cx="410.024" cy="-598.027" rx="79.8062" ry="16.0303"/>
<text text-anchor="middle" x="410.024" y="-594.327" font-family="Times,serif" font-size="14.00">pdskos:Definitely</text>
</g>
<!-- http://postdata.linhd.uned.es/data/AgentRole_2&#45;&gt;http://postdata.linhd.uned.es/kos/Definitely -->
<g id="edge22" class="edge"><title>http://postdata.linhd.uned.es/data/AgentRole_2&#45;&gt;http://postdata.linhd.uned.es/kos/Definitely</title>
<path fill="none" stroke="black" d="M335.516,-419.495C349.532,-452.891 382.727,-531.985 399.677,-572.371"/>
<polygon fill="black" stroke="black" points="396.517,-573.887 403.614,-581.753 402.972,-571.178 396.517,-573.887"/>
<text text-anchor="middle" x="433.024" y="-534.327" font-family="Times,serif" font-size="14.00">pdcore:certainty</text>
</g>
<!-- http://postdata.linhd.uned.es/data/Agent_2 -->
<g id="node15" class="node"><title>http://postdata.linhd.uned.es/data/Agent_2</title>
<ellipse fill="#e377c2" stroke="#e377c2" cx="587.024" cy="-598.027" rx="79.3924" ry="16.0303"/>
<text text-anchor="middle" x="587.024" y="-594.327" font-family="Times,serif" font-size="14.00">postdata:Agent_2</text>
</g>
<!-- http://postdata.linhd.uned.es/data/AgentRole_2&#45;&gt;http://postdata.linhd.uned.es/data/Agent_2 -->
<g id="edge16" class="edge"><title>http://postdata.linhd.uned.es/data/AgentRole_2&#45;&gt;http://postdata.linhd.uned.es/data/Agent_2</title>
<path fill="none" stroke="black" d="M340.294,-419.392C357.941,-442.486 394.217,-486.232 434.024,-512.527 452.688,-524.856 461.011,-520.536 481.024,-530.527 508.066,-544.027 537.022,-562.494 557.826,-576.542"/>
<polygon fill="black" stroke="black" points="555.98,-579.52 566.213,-582.265 559.925,-573.738 555.98,-579.52"/>
<text text-anchor="middle" x="555.024" y="-534.327" font-family="Times,serif" font-size="14.00">pdcore:hasAgent</text>
</g>
<!-- http://postdata.linhd.uned.es/resource/Redaction/SerranillaTrans1 -->
<g id="node8" class="node"><title>http://postdata.linhd.uned.es/resource/Redaction/SerranillaTrans1</title>
<ellipse fill="#e377c2" stroke="#e377c2" cx="819.024" cy="-16.2635" rx="91.4341" ry="16.0303"/>
<text text-anchor="middle" x="819.024" y="-12.5635" font-family="Times,serif" font-size="14.00">ns1:SerranillaTrans1</text>
</g>
<!-- http://postdata.linhd.uned.es/resource/Redaction/SerranillaTrans1&#45;&gt;http://postdata.linhd.uned.es/ontology/postdata&#45;core#Redaction -->
<g id="edge8" class="edge"><title>http://postdata.linhd.uned.es/resource/Redaction/SerranillaTrans1&#45;&gt;http://postdata.linhd.uned.es/ontology/postdata&#45;core#Redaction</title>
<path fill="none" stroke="black" d="M732.373,-21.3942C609.566,-31.5838 384.058,-66.8252 242.024,-188.527 182.273,-239.725 152.308,-332.351 140.804,-376.841"/>
<polygon fill="black" stroke="black" points="137.402,-376.018 138.388,-386.567 144.196,-377.706 137.402,-376.018"/>
<text text-anchor="middle" x="285.524" y="-159.327" font-family="Times,serif" font-size="14.00">a</text>
</g>
<!-- http://postdata.linhd.uned.es/data/Serranilla_1 -->
<g id="node9" class="node"><title>http://postdata.linhd.uned.es/data/Serranilla_1</title>
<ellipse fill="#e377c2" stroke="#e377c2" cx="671.024" cy="-110.527" rx="92.7622" ry="16.0303"/>
<text text-anchor="middle" x="671.024" y="-106.827" font-family="Times,serif" font-size="14.00">postdata:Serranilla_1</text>
</g>
<!-- http://postdata.linhd.uned.es/resource/Redaction/SerranillaTrans1&#45;&gt;http://postdata.linhd.uned.es/data/Serranilla_1 -->
<g id="edge19" class="edge"><title>http://postdata.linhd.uned.es/resource/Redaction/SerranillaTrans1&#45;&gt;http://postdata.linhd.uned.es/data/Serranilla_1</title>
<path fill="none" stroke="black" d="M739.299,-24.2772C720.916,-29.2749 702.753,-37.411 689.024,-50.5269 679.954,-59.1928 675.416,-72.2814 673.161,-83.9308"/>
<polygon fill="black" stroke="black" points="669.664,-83.6528 671.668,-94.0564 676.589,-84.674 669.664,-83.6528"/>
<text text-anchor="middle" x="752.024" y="-54.3269" font-family="Times,serif" font-size="14.00">pdcore:isTranslationOf</text>
</g>
<!-- 3da179d3dcdb42618ed3bd971a80b206 -->
<g id="node20" class="node"><title>3da179d3dcdb42618ed3bd971a80b206</title>
<polygon fill="#ff7f0e" stroke="#ff7f0e" points="855.024,-137.527 783.024,-137.527 783.024,-83.5269 855.024,-83.5269 855.024,-137.527"/>
<text text-anchor="middle" x="819.024" y="-106.327" font-family="Times,serif" font-size="14.00">Serranilha</text>
<text text-anchor="middle" x="819.024" y="-91.3269" font-family="Times,serif" font-size="14.00"> &#160;&#160;&#160;VI &#160;&#160;&#160;</text>
</g>
<!-- http://postdata.linhd.uned.es/resource/Redaction/SerranillaTrans1&#45;&gt;3da179d3dcdb42618ed3bd971a80b206 -->
<g id="edge2" class="edge"><title>http://postdata.linhd.uned.es/resource/Redaction/SerranillaTrans1&#45;&gt;3da179d3dcdb42618ed3bd971a80b206</title>
<path fill="none" stroke="black" d="M819.024,-32.9147C819.024,-43.8945 819.024,-59.0439 819.024,-72.9743"/>
<polygon fill="black" stroke="black" points="815.524,-73.3 819.024,-83.3 822.524,-73.3001 815.524,-73.3"/>
<text text-anchor="middle" x="840.524" y="-54.3269" font-family="Times,serif" font-size="14.00">dc:Title</text>
</g>
<!-- 150a80075d6849e7a12145101c78a495 -->
<g id="node21" class="node"><title>150a80075d6849e7a12145101c78a495</title>
<polygon fill="#ff7f0e" stroke="#ff7f0e" points="942.524,-130.027 873.524,-130.027 873.524,-91.0269 942.524,-91.0269 942.524,-130.027"/>
<text text-anchor="middle" x="908.024" y="-98.8269" font-family="Times,serif" font-size="14.00">Serranilla</text>
</g>
<!-- http://postdata.linhd.uned.es/resource/Redaction/SerranillaTrans1&#45;&gt;150a80075d6849e7a12145101c78a495 -->
<g id="edge3" class="edge"><title>http://postdata.linhd.uned.es/resource/Redaction/SerranillaTrans1&#45;&gt;150a80075d6849e7a12145101c78a495</title>
<path fill="none" stroke="black" d="M843.19,-32.0609C850.921,-37.3786 859.229,-43.7504 866.024,-50.5269 875.553,-60.0296 884.456,-71.8996 891.59,-82.4962"/>
<polygon fill="black" stroke="black" points="888.751,-84.5498 897.142,-91.018 894.616,-80.7287 888.751,-84.5498"/>
<text text-anchor="middle" x="934.524" y="-54.3269" font-family="Times,serif" font-size="14.00">pdcore:originalTitle</text>
</g>
<!-- 7eb00b85f74941c89c417ac72efa558a -->
<g id="node25" class="node"><title>7eb00b85f74941c89c417ac72efa558a</title>
<polygon fill="#ff7f0e" stroke="#ff7f0e" points="1063.52,-130.027 992.524,-130.027 992.524,-91.0269 1063.52,-91.0269 1063.52,-130.027"/>
<text text-anchor="middle" x="1028.02" y="-98.8269" font-family="Times,serif" font-size="14.00">Portugues</text>
</g>
<!-- http://postdata.linhd.uned.es/resource/Redaction/SerranillaTrans1&#45;&gt;7eb00b85f74941c89c417ac72efa558a -->
<g id="edge25" class="edge"><title>http://postdata.linhd.uned.es/resource/Redaction/SerranillaTrans1&#45;&gt;7eb00b85f74941c89c417ac72efa558a</title>
<path fill="none" stroke="black" d="M894.405,-25.4768C933.754,-30.9657 976.978,-39.2607 993.024,-50.5269 1003.91,-58.1724 1011.96,-70.3812 1017.58,-81.7144"/>
<polygon fill="black" stroke="black" points="1014.43,-83.2365 1021.73,-90.909 1020.81,-80.3548 1014.43,-83.2365"/>
<text text-anchor="middle" x="1053.02" y="-54.3269" font-family="Times,serif" font-size="14.00">pdcore:language</text>
</g>
<!-- http://postdata.linhd.uned.es/data/Serranilla_1&#45;&gt;http://postdata.linhd.uned.es/ontology/postdata&#45;core#PoeticWork -->
<g id="edge1" class="edge"><title>http://postdata.linhd.uned.es/data/Serranilla_1&#45;&gt;http://postdata.linhd.uned.es/ontology/postdata&#45;core#PoeticWork</title>
<path fill="none" stroke="black" d="M614.175,-123.493C578.5,-131.476 531.71,-142.816 491.024,-155.527 452.802,-167.468 410.377,-183.972 379.751,-196.489"/>
<polygon fill="black" stroke="black" points="378.158,-193.36 370.242,-200.402 380.822,-199.833 378.158,-193.36"/>
<text text-anchor="middle" x="494.524" y="-159.327" font-family="Times,serif" font-size="14.00">a</text>
</g>
<!-- http://postdata.linhd.uned.es/data/Redaction_1 -->
<g id="node11" class="node"><title>http://postdata.linhd.uned.es/data/Redaction_1</title>
<ellipse fill="#e377c2" stroke="#e377c2" cx="536.024" cy="-215.527" rx="94.5053" ry="16.0303"/>
<text text-anchor="middle" x="536.024" y="-211.827" font-family="Times,serif" font-size="14.00">postdata:Redaction_1</text>
</g>
<!-- http://postdata.linhd.uned.es/data/Serranilla_1&#45;&gt;http://postdata.linhd.uned.es/data/Redaction_1 -->
<g id="edge14" class="edge"><title>http://postdata.linhd.uned.es/data/Serranilla_1&#45;&gt;http://postdata.linhd.uned.es/data/Redaction_1</title>
<path fill="none" stroke="black" d="M601.674,-121.411C562.102,-128.628 518.036,-139.893 506.024,-155.527 497.63,-166.452 503.68,-180.086 512.485,-191.494"/>
<polygon fill="black" stroke="black" points="510.047,-194.028 519.216,-199.337 515.359,-189.469 510.047,-194.028"/>
<text text-anchor="middle" x="577.524" y="-159.327" font-family="Times,serif" font-size="14.00">pdcore:isRealisedThrough</text>
</g>
<!-- http://postdata.linhd.uned.es/data/AgentRole_1 -->
<g id="node13" class="node"><title>http://postdata.linhd.uned.es/data/AgentRole_1</title>
<ellipse fill="#e377c2" stroke="#e377c2" cx="776.024" cy="-215.527" rx="96.7474" ry="16.0303"/>
<text text-anchor="middle" x="776.024" y="-211.827" font-family="Times,serif" font-size="14.00">postdata:AgentRole_1</text>
</g>
<!-- http://postdata.linhd.uned.es/data/Serranilla_1&#45;&gt;http://postdata.linhd.uned.es/data/AgentRole_1 -->
<g id="edge4" class="edge"><title>http://postdata.linhd.uned.es/data/Serranilla_1&#45;&gt;http://postdata.linhd.uned.es/data/AgentRole_1</title>
<path fill="none" stroke="black" d="M710.524,-125.365C725.821,-132.386 742.408,-142.286 754.024,-155.527 762.359,-165.027 767.653,-177.98 770.952,-189.329"/>
<polygon fill="black" stroke="black" points="767.594,-190.326 773.451,-199.155 774.378,-188.601 767.594,-190.326"/>
<text text-anchor="middle" x="823.024" y="-159.327" font-family="Times,serif" font-size="14.00">pdcore:hasAgentRole</text>
</g>
<!-- http://postdata.linhd.uned.es/data/Ensemble_1 -->
<g id="node14" class="node"><title>http://postdata.linhd.uned.es/data/Ensemble_1</title>
<ellipse fill="#e377c2" stroke="#e377c2" cx="985.024" cy="-215.527" rx="94.0904" ry="16.0303"/>
<text text-anchor="middle" x="985.024" y="-211.827" font-family="Times,serif" font-size="14.00">postdata:Ensemble_1</text>
</g>
<!-- http://postdata.linhd.uned.es/data/Serranilla_1&#45;&gt;http://postdata.linhd.uned.es/data/Ensemble_1 -->
<g id="edge12" class="edge"><title>http://postdata.linhd.uned.es/data/Serranilla_1&#45;&gt;http://postdata.linhd.uned.es/data/Ensemble_1</title>
<path fill="none" stroke="black" d="M718.772,-124.51C736.097,-128.973 755.871,-133.785 774.024,-137.527 823.403,-147.706 838.637,-138.315 886.024,-155.527 911.466,-164.768 937.664,-180.718 956.715,-193.706"/>
<polygon fill="black" stroke="black" points="954.731,-196.589 964.937,-199.43 958.73,-190.844 954.731,-196.589"/>
<text text-anchor="middle" x="959.524" y="-159.327" font-family="Times,serif" font-size="14.00">pdcore:workOf</text>
</g>
<!-- e33239a55f784239a696bbc2b4c341b8 -->
<g id="node22" class="node"><title>e33239a55f784239a696bbc2b4c341b8</title>
<polygon fill="#ff7f0e" stroke="#ff7f0e" points="1166.52,-242.527 1097.52,-242.527 1097.52,-188.527 1166.52,-188.527 1166.52,-242.527"/>
<text text-anchor="middle" x="1132.02" y="-211.327" font-family="Times,serif" font-size="14.00">Serranilla</text>
<text text-anchor="middle" x="1132.02" y="-196.327" font-family="Times,serif" font-size="14.00"> &#160;&#160;&#160;VI &#160;&#160;&#160;</text>
</g>
<!-- http://postdata.linhd.uned.es/data/Serranilla_1&#45;&gt;e33239a55f784239a696bbc2b4c341b8 -->
<g id="edge23" class="edge"><title>http://postdata.linhd.uned.es/data/Serranilla_1&#45;&gt;e33239a55f784239a696bbc2b4c341b8</title>
<path fill="none" stroke="black" d="M716.31,-124.723C734.153,-129.457 754.915,-134.394 774.024,-137.527 875.645,-154.189 904.714,-132.241 1005.02,-155.527 1043.69,-164.503 1052.38,-171.043 1088.02,-188.527 1088.12,-188.573 1088.21,-188.62 1088.31,-188.667"/>
<polygon fill="black" stroke="black" points="1086.74,-191.798 1097.23,-193.306 1089.97,-185.587 1086.74,-191.798"/>
<text text-anchor="middle" x="1070.02" y="-159.327" font-family="Times,serif" font-size="14.00">dc:title</text>
</g>
<!-- http://postdata.linhd.uned.es/data/Redaction_1&#45;&gt;http://postdata.linhd.uned.es/ontology/postdata&#45;core#Redaction -->
<g id="edge24" class="edge"><title>http://postdata.linhd.uned.es/data/Redaction_1&#45;&gt;http://postdata.linhd.uned.es/ontology/postdata&#45;core#Redaction</title>
<path fill="none" stroke="black" d="M485.257,-229.279C468.331,-233.515 449.37,-238.242 432.024,-242.527 339.2,-265.455 303.813,-242.386 223.024,-293.527 189.589,-314.692 163.028,-352.95 148.16,-377.917"/>
<polygon fill="black" stroke="black" points="145.016,-376.362 143.044,-386.771 151.077,-379.864 145.016,-376.362"/>
<text text-anchor="middle" x="305.524" y="-264.327" font-family="Times,serif" font-size="14.00">a</text>
</g>
<!-- http://postdata.linhd.uned.es/data/Redaction_1&#45;&gt;http://postdata.linhd.uned.es/data/AgentRole_2 -->
<g id="edge10" class="edge"><title>http://postdata.linhd.uned.es/data/Redaction_1&#45;&gt;http://postdata.linhd.uned.es/data/AgentRole_2</title>
<path fill="none" stroke="black" d="M481.967,-228.937C448.725,-237.447 410.073,-249.205 397.024,-260.527 361.514,-291.34 342.984,-344.875 334.675,-376.52"/>
<polygon fill="black" stroke="black" points="331.247,-375.8 332.238,-386.348 338.042,-377.484 331.247,-375.8"/>
<text text-anchor="middle" x="456.024" y="-264.327" font-family="Times,serif" font-size="14.00">pdcore:hasAgentRole</text>
</g>
<!-- http://postdata.linhd.uned.es/data/Redaction_1&#45;&gt;http://postdata.linhd.uned.es/data/Serranilla_1 -->
<g id="edge18" class="edge"><title>http://postdata.linhd.uned.es/data/Redaction_1&#45;&gt;http://postdata.linhd.uned.es/data/Serranilla_1</title>
<path fill="none" stroke="black" d="M593.137,-202.519C612.949,-195.912 633.95,-185.82 649.024,-170.527 657.955,-161.466 663.313,-148.451 666.5,-136.949"/>
<polygon fill="black" stroke="black" points="669.965,-137.505 668.857,-126.968 663.152,-135.896 669.965,-137.505"/>
<text text-anchor="middle" x="700.024" y="-159.327" font-family="Times,serif" font-size="14.00">pdcore:realises</text>
</g>
<!-- abd6133f01704f50b35706f17844904a -->
<g id="node16" class="node"><title>abd6133f01704f50b35706f17844904a</title>
<polygon fill="#ff7f0e" stroke="#ff7f0e" points="512.524,-422.527 443.524,-422.527 443.524,-383.527 512.524,-383.527 512.524,-422.527"/>
<text text-anchor="middle" x="478.024" y="-391.327" font-family="Times,serif" font-size="14.00">Serranilla</text>
</g>
<!-- http://postdata.linhd.uned.es/data/Redaction_1&#45;&gt;abd6133f01704f50b35706f17844904a -->
<g id="edge17" class="edge"><title>http://postdata.linhd.uned.es/data/Redaction_1&#45;&gt;abd6133f01704f50b35706f17844904a</title>
<path fill="none" stroke="black" d="M531.179,-232.023C521.411,-263.264 499.233,-334.196 486.833,-373.855"/>
<polygon fill="black" stroke="black" points="483.475,-372.865 483.832,-383.454 490.156,-374.954 483.475,-372.865"/>
<text text-anchor="middle" x="576.524" y="-264.327" font-family="Times,serif" font-size="14.00">pdcore:originalTitle</text>
</g>
<!-- dc13f86fdb7444ef96ed2aec937d74a4 -->
<g id="node18" class="node"><title>dc13f86fdb7444ef96ed2aec937d74a4</title>
<polygon fill="#ff7f0e" stroke="#ff7f0e" points="827.024,-422.527 531.024,-422.527 531.024,-383.527 827.024,-383.527 827.024,-422.527"/>
<text text-anchor="middle" x="679.024" y="-391.327" font-family="Times,serif" font-size="14.00">https://www.camagueycuba.org/cienpoesias/1.html</text>
</g>
<!-- http://postdata.linhd.uned.es/data/Redaction_1&#45;&gt;dc13f86fdb7444ef96ed2aec937d74a4 -->
<g id="edge26" class="edge"><title>http://postdata.linhd.uned.es/data/Redaction_1&#45;&gt;dc13f86fdb7444ef96ed2aec937d74a4</title>
<path fill="none" stroke="black" d="M586.044,-229.38C603.607,-236.103 622.148,-246.052 635.024,-260.527 663.168,-292.164 673.311,-341.612 676.966,-372.891"/>
<polygon fill="black" stroke="black" points="673.514,-373.542 678.007,-383.137 680.478,-372.835 673.514,-373.542"/>
<text text-anchor="middle" x="703.024" y="-264.327" font-family="Times,serif" font-size="14.00">pdcore:additionalFile</text>
</g>
<!-- e90f8565d3124b1d99314707bca0b635 -->
<g id="node24" class="node"><title>e90f8565d3124b1d99314707bca0b635</title>
<polygon fill="#ff7f0e" stroke="#ff7f0e" points="942.524,-512.527 845.524,-512.527 845.524,-293.527 942.524,-293.527 942.524,-512.527"/>
<text text-anchor="middle" x="894.024" y="-481.327" font-family="Times,serif" font-size="14.00">Moça</text>
<text text-anchor="middle" x="894.024" y="-466.327" font-family="Times,serif" font-size="14.00">tan</text>
<text text-anchor="middle" x="894.024" y="-451.327" font-family="Times,serif" font-size="14.00">fermosa</text>
<text text-anchor="middle" x="894.024" y="-436.327" font-family="Times,serif" font-size="14.00">Non</text>
<text text-anchor="middle" x="894.024" y="-421.327" font-family="Times,serif" font-size="14.00">vi</text>
<text text-anchor="middle" x="894.024" y="-406.327" font-family="Times,serif" font-size="14.00">en</text>
<text text-anchor="middle" x="894.024" y="-391.327" font-family="Times,serif" font-size="14.00">la</text>
<text text-anchor="middle" x="894.024" y="-376.327" font-family="Times,serif" font-size="14.00">frontera,Como</text>
<text text-anchor="middle" x="894.024" y="-361.327" font-family="Times,serif" font-size="14.00">una</text>
<text text-anchor="middle" x="894.024" y="-346.327" font-family="Times,serif" font-size="14.00">vaquera</text>
<text text-anchor="middle" x="894.024" y="-331.327" font-family="Times,serif" font-size="14.00">De</text>
<text text-anchor="middle" x="894.024" y="-316.327" font-family="Times,serif" font-size="14.00">la</text>
<text text-anchor="middle" x="894.024" y="-301.327" font-family="Times,serif" font-size="14.00"> Finojosa....</text>
</g>
<!-- http://postdata.linhd.uned.es/data/Redaction_1&#45;&gt;e90f8565d3124b1d99314707bca0b635 -->
<g id="edge5" class="edge"><title>http://postdata.linhd.uned.es/data/Redaction_1&#45;&gt;e90f8565d3124b1d99314707bca0b635</title>
<path fill="none" stroke="black" d="M595.715,-228.167C618.91,-232.675 645.703,-237.863 670.024,-242.527 745.825,-257.062 779.947,-240.496 836.024,-293.527 836.839,-294.297 837.645,-295.082 838.442,-295.88"/>
<polygon fill="black" stroke="black" points="836.016,-298.412 845.37,-303.389 841.161,-293.666 836.016,-298.412"/>
<text text-anchor="middle" x="866.524" y="-264.327" font-family="Times,serif" font-size="14.00">pdcore:sampleText</text>
</g>
<!-- http://postdata.linhd.uned.es/data/Agent_1 -->
<g id="node12" class="node"><title>http://postdata.linhd.uned.es/data/Agent_1</title>
<ellipse fill="#e377c2" stroke="#e377c2" cx="1231.02" cy="-403.027" rx="79.3924" ry="16.0303"/>
<text text-anchor="middle" x="1231.02" y="-399.327" font-family="Times,serif" font-size="14.00">postdata:Agent_1</text>
</g>
<!-- http://postdata.linhd.uned.es/data/Agent_1&#45;&gt;http://postdata.linhd.uned.es/ontology/postdata&#45;core#Person -->
<g id="edge6" class="edge"><title>http://postdata.linhd.uned.es/data/Agent_1&#45;&gt;http://postdata.linhd.uned.es/ontology/postdata&#45;core#Person</title>
<path fill="none" stroke="black" d="M1219.58,-419.21C1203.27,-440.606 1172.06,-480.583 1143.02,-512.527 1123,-534.554 1098.68,-558.186 1081.02,-574.842"/>
<polygon fill="black" stroke="black" points="1078.32,-572.58 1073.42,-581.973 1083.1,-577.687 1078.32,-572.58"/>
<text text-anchor="middle" x="1128.52" y="-534.327" font-family="Times,serif" font-size="14.00">a</text>
</g>
<!-- 00c8b492e5164443838d3e0e9aa27c90 -->
<g id="node17" class="node"><title>00c8b492e5164443838d3e0e9aa27c90</title>
<polygon fill="#ff7f0e" stroke="#ff7f0e" points="1209.02,-632.527 1141.02,-632.527 1141.02,-563.527 1209.02,-563.527 1209.02,-632.527"/>
<text text-anchor="middle" x="1175.02" y="-601.327" font-family="Times,serif" font-size="14.00">López</text>
<text text-anchor="middle" x="1175.02" y="-586.327" font-family="Times,serif" font-size="14.00">de</text>
<text text-anchor="middle" x="1175.02" y="-571.327" font-family="Times,serif" font-size="14.00">Mendoza</text>
</g>
<!-- http://postdata.linhd.uned.es/data/Agent_1&#45;&gt;00c8b492e5164443838d3e0e9aa27c90 -->
<g id="edge20" class="edge"><title>http://postdata.linhd.uned.es/data/Agent_1&#45;&gt;00c8b492e5164443838d3e0e9aa27c90</title>
<path fill="none" stroke="black" d="M1221.98,-419.328C1208.88,-442.464 1185.17,-488.157 1176.02,-530.527 1174.47,-537.743 1173.62,-545.503 1173.24,-553.085"/>
<polygon fill="black" stroke="black" points="1169.74,-553.156 1172.97,-563.245 1176.73,-553.342 1169.74,-553.156"/>
<text text-anchor="middle" x="1220.02" y="-534.327" font-family="Times,serif" font-size="14.00">pdcore:surname</text>
</g>
<!-- 8ff02df409a34e9fa4030b2ca869aaee -->
<g id="node19" class="node"><title>8ff02df409a34e9fa4030b2ca869aaee</title>
<polygon fill="#ff7f0e" stroke="#ff7f0e" points="1321.52,-632.527 1250.52,-632.527 1250.52,-563.527 1321.52,-563.527 1321.52,-632.527"/>
<text text-anchor="middle" x="1286.02" y="-601.327" font-family="Times,serif" font-size="14.00">Marqués</text>
<text text-anchor="middle" x="1286.02" y="-586.327" font-family="Times,serif" font-size="14.00">de</text>
<text text-anchor="middle" x="1286.02" y="-571.327" font-family="Times,serif" font-size="14.00">Santillana</text>
</g>
<!-- http://postdata.linhd.uned.es/data/Agent_1&#45;&gt;8ff02df409a34e9fa4030b2ca869aaee -->
<g id="edge15" class="edge"><title>http://postdata.linhd.uned.es/data/Agent_1&#45;&gt;8ff02df409a34e9fa4030b2ca869aaee</title>
<path fill="none" stroke="black" d="M1235.43,-419.495C1243.62,-448.23 1261.45,-510.796 1273.6,-553.427"/>
<polygon fill="black" stroke="black" points="1270.3,-554.61 1276.4,-563.268 1277.03,-552.692 1270.3,-554.61"/>
<text text-anchor="middle" x="1330.02" y="-534.327" font-family="Times,serif" font-size="14.00">pdcore:positionName</text>
</g>
<!-- 61e45b84811f40fbb22a62f86024d082 -->
<g id="node23" class="node"><title>61e45b84811f40fbb22a62f86024d082</title>
<polygon fill="#ff7f0e" stroke="#ff7f0e" points="1454.02,-617.527 1400.02,-617.527 1400.02,-578.527 1454.02,-578.527 1454.02,-617.527"/>
<text text-anchor="middle" x="1427.02" y="-586.327" font-family="Times,serif" font-size="14.00">Iñigo</text>
</g>
<!-- http://postdata.linhd.uned.es/data/Agent_1&#45;&gt;61e45b84811f40fbb22a62f86024d082 -->
<g id="edge7" class="edge"><title>http://postdata.linhd.uned.es/data/Agent_1&#45;&gt;61e45b84811f40fbb22a62f86024d082</title>
<path fill="none" stroke="black" d="M1256,-418.639C1290.41,-439.759 1352.7,-481.686 1393.02,-530.527 1402.41,-541.888 1410.16,-556.264 1415.88,-568.741"/>
<polygon fill="black" stroke="black" points="1412.82,-570.479 1420.02,-578.246 1419.23,-567.681 1412.82,-570.479"/>
<text text-anchor="middle" x="1438.52" y="-534.327" font-family="Times,serif" font-size="14.00">pdcore:name</text>
</g>
<!-- http://postdata.linhd.uned.es/data/AgentRole_1&#45;&gt;http://postdata.linhd.uned.es/ontology/postdata&#45;core#CreatorRole -->
<g id="edge11" class="edge"><title>http://postdata.linhd.uned.es/data/AgentRole_1&#45;&gt;http://postdata.linhd.uned.es/ontology/postdata&#45;core#CreatorRole</title>
<path fill="none" stroke="black" d="M825.159,-229.586C842.988,-234.057 863.339,-238.854 882.024,-242.527 908.699,-247.771 982.382,-242.838 1003.02,-260.527 1036.9,-289.554 1045.07,-344.177 1046.82,-376.405"/>
<polygon fill="black" stroke="black" points="1043.32,-376.544 1047.19,-386.406 1050.32,-376.282 1043.32,-376.544"/>
<text text-anchor="middle" x="1020.52" y="-264.327" font-family="Times,serif" font-size="14.00">a</text>
</g>
<!-- http://postdata.linhd.uned.es/data/AgentRole_1&#45;&gt;http://postdata.linhd.uned.es/data/Agent_1 -->
<g id="edge9" class="edge"><title>http://postdata.linhd.uned.es/data/AgentRole_1&#45;&gt;http://postdata.linhd.uned.es/data/Agent_1</title>
<path fill="none" stroke="black" d="M824.313,-229.644C842.326,-234.2 863.015,-239.036 882.024,-242.527 998.275,-263.873 1044.45,-228.32 1143.02,-293.527 1175.85,-315.24 1202.42,-353.02 1217.47,-377.775"/>
<polygon fill="black" stroke="black" points="1214.57,-379.737 1222.67,-386.564 1220.59,-376.175 1214.57,-379.737"/>
<text text-anchor="middle" x="1156.02" y="-264.327" font-family="Times,serif" font-size="14.00">pdcore:hasAgent</text>
</g>
</g>
</svg>
