<?xml version="1.0" encoding="UTF-8" standalone="no"?>
<!DOCTYPE svg PUBLIC "-//W3C//DTD SVG 1.1//EN"
 "http://www.w3.org/Graphics/SVG/1.1/DTD/svg11.dtd">
<!-- Generated by graphviz version 2.38.0 (20140413.2041)
 -->
<!-- Title: G Pages: 1 -->
<svg width="1515pt" height="319pt"
 viewBox="0.00 0.00 1514.79 319.05" xmlns="http://www.w3.org/2000/svg" xmlns:xlink="http://www.w3.org/1999/xlink">
<g id="graph0" class="graph" transform="scale(1 1) rotate(0) translate(4 315.054)">
<title>G</title>
<polygon fill="white" stroke="none" points="-4,4 -4,-315.054 1510.79,-315.054 1510.79,4 -4,4"/>
<!-- http://postdata.linhd.uned.es/ontology/postdata&#45;core#CreatorRole -->
<g id="node1" class="node"><title>http://postdata.linhd.uned.es/ontology/postdata&#45;core#CreatorRole</title>
<ellipse fill="#1f77b4" stroke="#1f77b4" cx="1013.49" cy="-294.79" rx="86.9483" ry="16.0303"/>
<text text-anchor="middle" x="1013.49" y="-291.09" font-family="Times,serif" font-size="14.00">pdcore:CreatorRole</text>
</g>
<!-- http://postdata.linhd.uned.es/ontology/postdata&#45;core#Ensemble -->
<g id="node2" class="node"><title>http://postdata.linhd.uned.es/ontology/postdata&#45;core#Ensemble</title>
<ellipse fill="#1f77b4" stroke="#1f77b4" cx="78.4889" cy="-155.527" rx="78.4777" ry="16.0303"/>
<text text-anchor="middle" x="78.4889" y="-151.827" font-family="Times,serif" font-size="14.00">pdcore:Ensemble</text>
</g>
<!-- http://postdata.linhd.uned.es/ontology/postdata&#45;core#AgentRole -->
<g id="node3" class="node"><title>http://postdata.linhd.uned.es/ontology/postdata&#45;core#AgentRole</title>
<ellipse fill="#1f77b4" stroke="#1f77b4" cx="280.489" cy="-294.79" rx="82.0488" ry="16.0303"/>
<text text-anchor="middle" x="280.489" y="-291.09" font-family="Times,serif" font-size="14.00">pdcore:AgentRole</text>
</g>
<!-- http://postdata.linhd.uned.es/data/date_Las&#45;cien -->
<g id="node4" class="node"><title>http://postdata.linhd.uned.es/data/date_Las&#45;cien</title>
<ellipse fill="#e377c2" stroke="#e377c2" cx="274.489" cy="-155.527" rx="99.9045" ry="16.0303"/>
<text text-anchor="middle" x="274.489" y="-151.827" font-family="Times,serif" font-size="14.00">postdata:date_Las&#45;cien</text>
</g>
<!-- http://postdata.linhd.uned.es/data/PW_A&#45;la&#45;Muerte -->
<g id="node5" class="node"><title>http://postdata.linhd.uned.es/data/PW_A&#45;la&#45;Muerte</title>
<ellipse fill="#e377c2" stroke="#e377c2" cx="506.489" cy="-155.527" rx="113.689" ry="16.0303"/>
<text text-anchor="middle" x="506.489" y="-151.827" font-family="Times,serif" font-size="14.00">postdata:PW_A&#45;la&#45;Muerte</text>
</g>
<!-- http://postdata.linhd.uned.es/data/AgentRole_2 -->
<g id="node6" class="node"><title>http://postdata.linhd.uned.es/data/AgentRole_2</title>
<ellipse fill="#e377c2" stroke="#e377c2" cx="735.489" cy="-155.527" rx="96.7474" ry="16.0303"/>
<text text-anchor="middle" x="735.489" y="-151.827" font-family="Times,serif" font-size="14.00">postdata:AgentRole_2</text>
</g>
<!-- http://postdata.linhd.uned.es/data/AgentRole_2&#45;&gt;http://postdata.linhd.uned.es/ontology/postdata&#45;core#AgentRole -->
<g id="edge9" class="edge"><title>http://postdata.linhd.uned.es/data/AgentRole_2&#45;&gt;http://postdata.linhd.uned.es/ontology/postdata&#45;core#AgentRole</title>
<path fill="none" stroke="black" d="M718.098,-171.727C698.143,-188.275 663.741,-214.16 629.489,-227.527 580.886,-246.494 564.827,-236.233 513.489,-245.527 455.358,-256.051 389.464,-269.878 342.62,-280.034"/>
<polygon fill="black" stroke="black" points="341.655,-276.662 332.627,-282.207 343.142,-283.502 341.655,-276.662"/>
<text text-anchor="middle" x="516.989" y="-249.327" font-family="Times,serif" font-size="14.00">a</text>
</g>
<!-- http://postdata.linhd.uned.es/data/libreria&#45;VS -->
<g id="node8" class="node"><title>http://postdata.linhd.uned.es/data/libreria&#45;VS</title>
<ellipse fill="#e377c2" stroke="#e377c2" cx="469.489" cy="-294.79" rx="89.191" ry="16.0303"/>
<text text-anchor="middle" x="469.489" y="-291.09" font-family="Times,serif" font-size="14.00">postdata:libreria&#45;VS</text>
</g>
<!-- http://postdata.linhd.uned.es/data/AgentRole_2&#45;&gt;http://postdata.linhd.uned.es/data/libreria&#45;VS -->
<g id="edge15" class="edge"><title>http://postdata.linhd.uned.es/data/AgentRole_2&#45;&gt;http://postdata.linhd.uned.es/data/libreria&#45;VS</title>
<path fill="none" stroke="black" d="M717.133,-171.758C696.874,-187.839 662.717,-212.849 629.489,-227.527 598.922,-241.029 587.594,-233.315 556.489,-245.527 537.404,-253.02 517.312,-263.941 501.251,-273.5"/>
<polygon fill="black" stroke="black" points="499.031,-270.753 492.298,-278.934 502.663,-276.737 499.031,-270.753"/>
<text text-anchor="middle" x="602.489" y="-249.327" font-family="Times,serif" font-size="14.00">pdcore:hasAgent</text>
</g>
<!-- http://postdata.linhd.uned.es/kos/Definitely -->
<g id="node9" class="node"><title>http://postdata.linhd.uned.es/kos/Definitely</title>
<ellipse fill="#e377c2" stroke="#e377c2" cx="828.489" cy="-294.79" rx="79.8062" ry="16.0303"/>
<text text-anchor="middle" x="828.489" y="-291.09" font-family="Times,serif" font-size="14.00">pdskos:Definitely</text>
</g>
<!-- http://postdata.linhd.uned.es/data/AgentRole_2&#45;&gt;http://postdata.linhd.uned.es/kos/Definitely -->
<g id="edge1" class="edge"><title>http://postdata.linhd.uned.es/data/AgentRole_2&#45;&gt;http://postdata.linhd.uned.es/kos/Definitely</title>
<path fill="none" stroke="black" d="M741.563,-172.025C750.356,-193.309 768.064,-232.17 790.489,-260.527 793.589,-264.447 797.192,-268.27 800.921,-271.846"/>
<polygon fill="black" stroke="black" points="798.857,-274.697 808.631,-278.788 803.542,-269.496 798.857,-274.697"/>
<text text-anchor="middle" x="834.489" y="-249.327" font-family="Times,serif" font-size="14.00">pdcore:certainty</text>
</g>
<!-- http://postdata.linhd.uned.es/kos/Publisher -->
<g id="node13" class="node"><title>http://postdata.linhd.uned.es/kos/Publisher</title>
<ellipse fill="#e377c2" stroke="#e377c2" cx="653.489" cy="-294.79" rx="77.1494" ry="16.0303"/>
<text text-anchor="middle" x="653.489" y="-291.09" font-family="Times,serif" font-size="14.00">pdskos:Publisher</text>
</g>
<!-- http://postdata.linhd.uned.es/data/AgentRole_2&#45;&gt;http://postdata.linhd.uned.es/kos/Publisher -->
<g id="edge12" class="edge"><title>http://postdata.linhd.uned.es/data/AgentRole_2&#45;&gt;http://postdata.linhd.uned.es/kos/Publisher</title>
<path fill="none" stroke="black" d="M715.467,-171.699C696.144,-187.672 668.029,-214.741 655.489,-245.527 652.608,-252.601 651.523,-260.75 651.322,-268.314"/>
<polygon fill="black" stroke="black" points="647.825,-268.519 651.53,-278.445 654.824,-268.375 647.825,-268.519"/>
<text text-anchor="middle" x="710.489" y="-249.327" font-family="Times,serif" font-size="14.00">pdcore:roleFunction</text>
</g>
<!-- http://postdata.linhd.uned.es/data/CreatorRole_1 -->
<g id="node7" class="node"><title>http://postdata.linhd.uned.es/data/CreatorRole_1</title>
<ellipse fill="#e377c2" stroke="#e377c2" cx="952.489" cy="-155.527" rx="102.561" ry="16.0303"/>
<text text-anchor="middle" x="952.489" y="-151.827" font-family="Times,serif" font-size="14.00">postdata:CreatorRole_1</text>
</g>
<!-- http://postdata.linhd.uned.es/data/CreatorRole_1&#45;&gt;http://postdata.linhd.uned.es/ontology/postdata&#45;core#CreatorRole -->
<g id="edge8" class="edge"><title>http://postdata.linhd.uned.es/data/CreatorRole_1&#45;&gt;http://postdata.linhd.uned.es/ontology/postdata&#45;core#CreatorRole</title>
<path fill="none" stroke="black" d="M959.368,-172.006C969.848,-195.588 989.914,-240.743 1002.45,-268.95"/>
<polygon fill="black" stroke="black" points="999.282,-270.44 1006.54,-278.157 1005.68,-267.598 999.282,-270.44"/>
<text text-anchor="middle" x="1002.99" y="-249.327" font-family="Times,serif" font-size="14.00">a</text>
</g>
<!-- http://postdata.linhd.uned.es/data/CreatorRole_1&#45;&gt;http://postdata.linhd.uned.es/kos/Definitely -->
<g id="edge2" class="edge"><title>http://postdata.linhd.uned.es/data/CreatorRole_1&#45;&gt;http://postdata.linhd.uned.es/kos/Definitely</title>
<path fill="none" stroke="black" d="M943.955,-171.963C931.526,-193.52 906.815,-233.077 878.489,-260.527 873.772,-265.098 868.349,-269.434 862.852,-273.373"/>
<polygon fill="black" stroke="black" points="860.554,-270.703 854.246,-279.214 864.485,-276.495 860.554,-270.703"/>
<text text-anchor="middle" x="934.489" y="-249.327" font-family="Times,serif" font-size="14.00">pdcore:certainty</text>
</g>
<!-- http://postdata.linhd.uned.es/data/Menendez&#45;Pelayo -->
<g id="node12" class="node"><title>http://postdata.linhd.uned.es/data/Menendez&#45;Pelayo</title>
<ellipse fill="#e377c2" stroke="#e377c2" cx="1234.49" cy="-294.79" rx="115.931" ry="16.0303"/>
<text text-anchor="middle" x="1234.49" y="-291.09" font-family="Times,serif" font-size="14.00">postdata:Menendez&#45;Pelayo</text>
</g>
<!-- http://postdata.linhd.uned.es/data/CreatorRole_1&#45;&gt;http://postdata.linhd.uned.es/data/Menendez&#45;Pelayo -->
<g id="edge10" class="edge"><title>http://postdata.linhd.uned.es/data/CreatorRole_1&#45;&gt;http://postdata.linhd.uned.es/data/Menendez&#45;Pelayo</title>
<path fill="none" stroke="black" d="M973.648,-171.69C995.643,-187.027 1031.41,-210.795 1064.49,-227.527 1102.56,-246.788 1147.64,-264.126 1181.8,-276.231"/>
<polygon fill="black" stroke="black" points="1180.99,-279.655 1191.58,-279.66 1183.31,-273.049 1180.99,-279.655"/>
<text text-anchor="middle" x="1184.49" y="-249.327" font-family="Times,serif" font-size="14.00">pdcore:hasAgent</text>
</g>
<!-- http://postdata.linhd.uned.es/kos/Creator -->
<g id="node14" class="node"><title>http://postdata.linhd.uned.es/kos/Creator</title>
<ellipse fill="#e377c2" stroke="#e377c2" cx="1437.49" cy="-294.79" rx="69.0935" ry="16.0303"/>
<text text-anchor="middle" x="1437.49" y="-291.09" font-family="Times,serif" font-size="14.00">pdskos:Creator</text>
</g>
<!-- http://postdata.linhd.uned.es/data/CreatorRole_1&#45;&gt;http://postdata.linhd.uned.es/kos/Creator -->
<g id="edge11" class="edge"><title>http://postdata.linhd.uned.es/data/CreatorRole_1&#45;&gt;http://postdata.linhd.uned.es/kos/Creator</title>
<path fill="none" stroke="black" d="M970.522,-171.718C991.582,-188.518 1028.18,-214.878 1064.49,-227.527 1136.24,-252.523 1159.6,-232.714 1234.49,-245.527 1286.11,-254.36 1344.17,-268.609 1384.94,-279.34"/>
<polygon fill="black" stroke="black" points="1384.09,-282.737 1394.65,-281.918 1385.88,-275.971 1384.09,-282.737"/>
<text text-anchor="middle" x="1363.49" y="-249.327" font-family="Times,serif" font-size="14.00">pdcore:roleFunction</text>
</g>
<!-- http://postdata.linhd.uned.es/data/Ensemble_1 -->
<g id="node10" class="node"><title>http://postdata.linhd.uned.es/data/Ensemble_1</title>
<ellipse fill="#e377c2" stroke="#e377c2" cx="735.489" cy="-16.2635" rx="94.0904" ry="16.0303"/>
<text text-anchor="middle" x="735.489" y="-12.5635" font-family="Times,serif" font-size="14.00">postdata:Ensemble_1</text>
</g>
<!-- http://postdata.linhd.uned.es/data/Ensemble_1&#45;&gt;http://postdata.linhd.uned.es/ontology/postdata&#45;core#Ensemble -->
<g id="edge5" class="edge"><title>http://postdata.linhd.uned.es/data/Ensemble_1&#45;&gt;http://postdata.linhd.uned.es/ontology/postdata&#45;core#Ensemble</title>
<path fill="none" stroke="black" d="M646.144,-21.4462C508.044,-28.9477 249.856,-47.3937 165.489,-83.5269 139.769,-94.5422 115.544,-115.521 99.2216,-131.83"/>
<polygon fill="black" stroke="black" points="96.3284,-129.785 91.8714,-139.397 101.35,-134.663 96.3284,-129.785"/>
<text text-anchor="middle" x="314.989" y="-54.3269" font-family="Times,serif" font-size="14.00">a</text>
</g>
<!-- http://postdata.linhd.uned.es/data/Ensemble_1&#45;&gt;http://postdata.linhd.uned.es/data/date_Las&#45;cien -->
<g id="edge4" class="edge"><title>http://postdata.linhd.uned.es/data/Ensemble_1&#45;&gt;http://postdata.linhd.uned.es/data/date_Las&#45;cien</title>
<path fill="none" stroke="black" d="M651.828,-23.7239C578.834,-31.5105 471.183,-48.258 383.489,-83.5269 353.103,-95.7476 322.165,-116.907 301.051,-132.956"/>
<polygon fill="black" stroke="black" points="298.673,-130.371 292.911,-139.262 302.96,-135.905 298.673,-130.371"/>
<text text-anchor="middle" x="518.489" y="-54.3269" font-family="Times,serif" font-size="14.00">pdcore:date</text>
</g>
<!-- http://postdata.linhd.uned.es/data/Ensemble_1&#45;&gt;http://postdata.linhd.uned.es/data/PW_A&#45;la&#45;Muerte -->
<g id="edge7" class="edge"><title>http://postdata.linhd.uned.es/data/Ensemble_1&#45;&gt;http://postdata.linhd.uned.es/data/PW_A&#45;la&#45;Muerte</title>
<path fill="none" stroke="black" d="M694.334,-30.9757C680.095,-36.3396 664.262,-43.0159 650.489,-50.5269 606.569,-74.4775 560.49,-109.834 532.623,-132.525"/>
<polygon fill="black" stroke="black" points="530.085,-130.08 524.581,-139.133 534.529,-135.488 530.085,-130.08"/>
<text text-anchor="middle" x="690.989" y="-54.3269" font-family="Times,serif" font-size="14.00">pdcore:hasPart</text>
</g>
<!-- http://postdata.linhd.uned.es/data/Ensemble_1&#45;&gt;http://postdata.linhd.uned.es/data/AgentRole_2 -->
<g id="edge3" class="edge"><title>http://postdata.linhd.uned.es/data/Ensemble_1&#45;&gt;http://postdata.linhd.uned.es/data/AgentRole_2</title>
<path fill="none" stroke="black" d="M735.489,-32.7425C735.489,-56.0157 735.489,-100.3 735.489,-128.569"/>
<polygon fill="black" stroke="black" points="731.989,-128.894 735.489,-138.894 738.989,-128.894 731.989,-128.894"/>
<text text-anchor="middle" x="794.489" y="-54.3269" font-family="Times,serif" font-size="14.00">pdcore:hasAgentRole</text>
</g>
<!-- http://postdata.linhd.uned.es/data/Ensemble_1&#45;&gt;http://postdata.linhd.uned.es/data/CreatorRole_1 -->
<g id="edge6" class="edge"><title>http://postdata.linhd.uned.es/data/Ensemble_1&#45;&gt;http://postdata.linhd.uned.es/data/CreatorRole_1</title>
<path fill="none" stroke="black" d="M801.27,-28.0085C820.32,-32.978 840.534,-40.1694 857.489,-50.5269 891.167,-71.1007 920.137,-107.065 936.951,-130.84"/>
<polygon fill="black" stroke="black" points="934.226,-133.053 942.785,-139.297 939.988,-129.078 934.226,-133.053"/>
<text text-anchor="middle" x="935.489" y="-54.3269" font-family="Times,serif" font-size="14.00">pdcore:hasAgentRole</text>
</g>
<!-- http://postdata.linhd.uned.es/data/PW_Serranilla -->
<g id="node11" class="node"><title>http://postdata.linhd.uned.es/data/PW_Serranilla</title>
<ellipse fill="#e377c2" stroke="#e377c2" cx="1176.49" cy="-155.527" rx="103.476" ry="16.0303"/>
<text text-anchor="middle" x="1176.49" y="-151.827" font-family="Times,serif" font-size="14.00">postdata:PW_Serranilla</text>
</g>
<!-- http://postdata.linhd.uned.es/data/Ensemble_1&#45;&gt;http://postdata.linhd.uned.es/data/PW_Serranilla -->
<g id="edge13" class="edge"><title>http://postdata.linhd.uned.es/data/Ensemble_1&#45;&gt;http://postdata.linhd.uned.es/data/PW_Serranilla</title>
<path fill="none" stroke="black" d="M825.317,-21.1086C876.882,-25.164 942.339,-33.4816 998.489,-50.5269 1029.87,-60.0534 1035.94,-67.3933 1064.49,-83.5269 1092.62,-99.4244 1123.58,-119.234 1145.8,-133.886"/>
<polygon fill="black" stroke="black" points="1143.89,-136.821 1154.16,-139.427 1147.76,-130.986 1143.89,-136.821"/>
<text text-anchor="middle" x="1075.99" y="-54.3269" font-family="Times,serif" font-size="14.00">pdcore:hasPart</text>
</g>
<!-- 4d539ef440684738b7f9cbdbe6440b98 -->
<g id="node15" class="node"><title>4d539ef440684738b7f9cbdbe6440b98</title>
<polygon fill="#ff7f0e" stroke="#ff7f0e" points="1367.49,-227.527 1297.49,-227.527 1297.49,-83.5269 1367.49,-83.5269 1367.49,-227.527"/>
<text text-anchor="middle" x="1332.49" y="-196.327" font-family="Times,serif" font-size="14.00">Las</text>
<text text-anchor="middle" x="1332.49" y="-181.327" font-family="Times,serif" font-size="14.00">cien</text>
<text text-anchor="middle" x="1332.49" y="-166.327" font-family="Times,serif" font-size="14.00">mejores</text>
<text text-anchor="middle" x="1332.49" y="-151.327" font-family="Times,serif" font-size="14.00">poesías</text>
<text text-anchor="middle" x="1332.49" y="-136.327" font-family="Times,serif" font-size="14.00">de</text>
<text text-anchor="middle" x="1332.49" y="-121.327" font-family="Times,serif" font-size="14.00">la</text>
<text text-anchor="middle" x="1332.49" y="-106.327" font-family="Times,serif" font-size="14.00">lengua</text>
<text text-anchor="middle" x="1332.49" y="-91.3269" font-family="Times,serif" font-size="14.00">castellana</text>
</g>
<!-- http://postdata.linhd.uned.es/data/Ensemble_1&#45;&gt;4d539ef440684738b7f9cbdbe6440b98 -->
<g id="edge14" class="edge"><title>http://postdata.linhd.uned.es/data/Ensemble_1&#45;&gt;4d539ef440684738b7f9cbdbe6440b98</title>
<path fill="none" stroke="black" d="M828.971,-18.1219C966.802,-21.0861 1216.07,-33.4478 1288.49,-83.5269 1288.78,-83.7279 1289.07,-83.9316 1289.36,-84.1378"/>
<polygon fill="black" stroke="black" points="1287.36,-87.0274 1297.27,-90.768 1291.85,-81.6623 1287.36,-87.0274"/>
<text text-anchor="middle" x="1267.49" y="-54.3269" font-family="Times,serif" font-size="14.00">dc:title</text>
</g>
</g>
</svg>
