<?xml version="1.0" encoding="UTF-8" standalone="no"?>
<!DOCTYPE svg PUBLIC "-//W3C//DTD SVG 1.1//EN"
 "http://www.w3.org/Graphics/SVG/1.1/DTD/svg11.dtd">
<!-- Generated by graphviz version 2.38.0 (20140413.2041)
 -->
<!-- Title: G Pages: 1 -->
<svg width="1685pt" height="341pt"
 viewBox="0.00 0.00 1685.47 340.53" xmlns="http://www.w3.org/2000/svg" xmlns:xlink="http://www.w3.org/1999/xlink">
<g id="graph0" class="graph" transform="scale(1 1) rotate(0) translate(4 336.527)">
<title>G</title>
<polygon fill="white" stroke="none" points="-4,4 -4,-336.527 1681.47,-336.527 1681.47,4 -4,4"/>
<!-- http://postdata.linhd.uned.es/ontology/postdata&#45;dates#ExactDateExpression -->
<g id="node1" class="node"><title>http://postdata.linhd.uned.es/ontology/postdata&#45;dates#ExactDateExpression</title>
<ellipse fill="#1f77b4" stroke="#1f77b4" cx="469.468" cy="-313.027" rx="125.73" ry="16.0303"/>
<text text-anchor="middle" x="469.468" y="-309.327" font-family="Times,serif" font-size="14.00">pddates:ExactDateExpression</text>
</g>
<!-- http://postdata.linhd.uned.es/ontology/postdata&#45;core#Place -->
<g id="node2" class="node"><title>http://postdata.linhd.uned.es/ontology/postdata&#45;core#Place</title>
<ellipse fill="#1f77b4" stroke="#1f77b4" cx="887.468" cy="-223.027" rx="60.623" ry="16.0303"/>
<text text-anchor="middle" x="887.468" y="-219.327" font-family="Times,serif" font-size="14.00">pdcore:Place</text>
</g>
<!-- http://postdata.linhd.uned.es/ontology/postdata&#45;dates#DateEntity -->
<g id="node3" class="node"><title>http://postdata.linhd.uned.es/ontology/postdata&#45;dates#DateEntity</title>
<ellipse fill="#1f77b4" stroke="#1f77b4" cx="389.468" cy="-223.027" rx="84.7059" ry="16.0303"/>
<text text-anchor="middle" x="389.468" y="-219.327" font-family="Times,serif" font-size="14.00">pddates:DateEntity</text>
</g>
<!-- http://postdata.linhd.uned.es/ontology/postdata&#45;core#Organisation -->
<g id="node4" class="node"><title>http://postdata.linhd.uned.es/ontology/postdata&#45;core#Organisation</title>
<ellipse fill="#1f77b4" stroke="#1f77b4" cx="1282.47" cy="-118.027" rx="89.6056" ry="16.0303"/>
<text text-anchor="middle" x="1282.47" y="-114.327" font-family="Times,serif" font-size="14.00">pdcore:Organisation</text>
</g>
<!-- http://postdata.linhd.uned.es/ontology/postdata&#45;core#Person -->
<g id="node5" class="node"><title>http://postdata.linhd.uned.es/ontology/postdata&#45;core#Person</title>
<ellipse fill="#1f77b4" stroke="#1f77b4" cx="66.468" cy="-118.027" rx="66.4361" ry="16.0303"/>
<text text-anchor="middle" x="66.468" y="-114.327" font-family="Times,serif" font-size="14.00">pdcore:Person</text>
</g>
<!-- http://viaf.org/viaf/64018425 -->
<g id="node6" class="node"><title>http://viaf.org/viaf/64018425</title>
<ellipse fill="#e377c2" stroke="#e377c2" cx="216.468" cy="-118.027" rx="65.5227" ry="16.0303"/>
<text text-anchor="middle" x="216.468" y="-114.327" font-family="Times,serif" font-size="14.00">ns1:64018425</text>
</g>
<!-- http://postdata.linhd.uned.es/data/Date1 -->
<g id="node7" class="node"><title>http://postdata.linhd.uned.es/data/Date1</title>
<ellipse fill="#e377c2" stroke="#e377c2" cx="561.468" cy="-223.027" rx="69.0935" ry="16.0303"/>
<text text-anchor="middle" x="561.468" y="-219.327" font-family="Times,serif" font-size="14.00">postdata:Date1</text>
</g>
<!-- http://postdata.linhd.uned.es/data/Date1&#45;&gt;http://postdata.linhd.uned.es/ontology/postdata&#45;dates#ExactDateExpression -->
<g id="edge18" class="edge"><title>http://postdata.linhd.uned.es/data/Date1&#45;&gt;http://postdata.linhd.uned.es/ontology/postdata&#45;dates#ExactDateExpression</title>
<path fill="none" stroke="black" d="M545.861,-238.955C531.411,-252.777 509.717,-273.528 493.136,-289.388"/>
<polygon fill="black" stroke="black" points="490.268,-287.288 485.46,-296.73 495.106,-292.347 490.268,-287.288"/>
<text text-anchor="middle" x="524.968" y="-264.327" font-family="Times,serif" font-size="14.00">a</text>
</g>
<!-- 6307aeda8fc24497877082f7b0e934f7 -->
<g id="node17" class="node"><title>6307aeda8fc24497877082f7b0e934f7</title>
<polygon fill="#ff7f0e" stroke="#ff7f0e" points="693.468,-332.527 613.468,-332.527 613.468,-293.527 693.468,-293.527 693.468,-332.527"/>
<text text-anchor="middle" x="653.468" y="-301.327" font-family="Times,serif" font-size="14.00">1856&#45;11&#45;01</text>
</g>
<!-- http://postdata.linhd.uned.es/data/Date1&#45;&gt;6307aeda8fc24497877082f7b0e934f7 -->
<g id="edge9" class="edge"><title>http://postdata.linhd.uned.es/data/Date1&#45;&gt;6307aeda8fc24497877082f7b0e934f7</title>
<path fill="none" stroke="black" d="M577.075,-238.955C590.556,-251.85 610.341,-270.775 626.399,-286.134"/>
<polygon fill="black" stroke="black" points="624.292,-288.963 633.938,-293.346 629.131,-283.904 624.292,-288.963"/>
<text text-anchor="middle" x="696.468" y="-264.327" font-family="Times,serif" font-size="14.00">pddates:dateExpressionAsdate</text>
</g>
<!-- http://postdata.linhd.uned.es/data/DD&#45;Menendez&#45;Pelayo -->
<g id="node8" class="node"><title>http://postdata.linhd.uned.es/data/DD&#45;Menendez&#45;Pelayo</title>
<ellipse fill="#e377c2" stroke="#e377c2" cx="433.468" cy="-118.027" rx="132.872" ry="16.0303"/>
<text text-anchor="middle" x="433.468" y="-114.327" font-family="Times,serif" font-size="14.00">postdata:DD&#45;Menendez&#45;Pelayo</text>
</g>
<!-- http://postdata.linhd.uned.es/data/libreria&#45;VS -->
<g id="node9" class="node"><title>http://postdata.linhd.uned.es/data/libreria&#45;VS</title>
<ellipse fill="#e377c2" stroke="#e377c2" cx="1487.47" cy="-16.2635" rx="89.191" ry="16.0303"/>
<text text-anchor="middle" x="1487.47" y="-12.5635" font-family="Times,serif" font-size="14.00">postdata:libreria&#45;VS</text>
</g>
<!-- http://postdata.linhd.uned.es/data/libreria&#45;VS&#45;&gt;http://postdata.linhd.uned.es/ontology/postdata&#45;core#Organisation -->
<g id="edge11" class="edge"><title>http://postdata.linhd.uned.es/data/libreria&#45;VS&#45;&gt;http://postdata.linhd.uned.es/ontology/postdata&#45;core#Organisation</title>
<path fill="none" stroke="black" d="M1457.66,-31.7699C1421.57,-49.3306 1360.73,-78.9426 1321.08,-98.2353"/>
<polygon fill="black" stroke="black" points="1319.44,-95.1418 1311.98,-102.665 1322.5,-101.436 1319.44,-95.1418"/>
<text text-anchor="middle" x="1418.97" y="-54.3269" font-family="Times,serif" font-size="14.00">a</text>
</g>
<!-- http://postdata.linhd.uned.es/data/AgentRole_2 -->
<g id="node12" class="node"><title>http://postdata.linhd.uned.es/data/AgentRole_2</title>
<ellipse fill="#e377c2" stroke="#e377c2" cx="1487.47" cy="-118.027" rx="96.7474" ry="16.0303"/>
<text text-anchor="middle" x="1487.47" y="-114.327" font-family="Times,serif" font-size="14.00">postdata:AgentRole_2</text>
</g>
<!-- http://postdata.linhd.uned.es/data/libreria&#45;VS&#45;&gt;http://postdata.linhd.uned.es/data/AgentRole_2 -->
<g id="edge15" class="edge"><title>http://postdata.linhd.uned.es/data/libreria&#45;VS&#45;&gt;http://postdata.linhd.uned.es/data/AgentRole_2</title>
<path fill="none" stroke="black" d="M1487.47,-32.8515C1487.47,-48.5188 1487.47,-72.9344 1487.47,-91.4437"/>
<polygon fill="black" stroke="black" points="1483.97,-91.5483 1487.47,-101.548 1490.97,-91.5484 1483.97,-91.5483"/>
<text text-anchor="middle" x="1548.97" y="-54.3269" font-family="Times,serif" font-size="14.00">pdcore:isAgentRoleOf</text>
</g>
<!-- af3bab3be31b42c4a76a68eef87cee72 -->
<g id="node19" class="node"><title>af3bab3be31b42c4a76a68eef87cee72</title>
<polygon fill="#ff7f0e" stroke="#ff7f0e" points="1676.47,-152.527 1602.47,-152.527 1602.47,-83.5269 1676.47,-83.5269 1676.47,-152.527"/>
<text text-anchor="middle" x="1639.47" y="-121.327" font-family="Times,serif" font-size="14.00">Libreria</text>
<text text-anchor="middle" x="1639.47" y="-106.327" font-family="Times,serif" font-size="14.00">Victoriano</text>
<text text-anchor="middle" x="1639.47" y="-91.3269" font-family="Times,serif" font-size="14.00"> Soriano &#160;</text>
</g>
<!-- http://postdata.linhd.uned.es/data/libreria&#45;VS&#45;&gt;af3bab3be31b42c4a76a68eef87cee72 -->
<g id="edge2" class="edge"><title>http://postdata.linhd.uned.es/data/libreria&#45;VS&#45;&gt;af3bab3be31b42c4a76a68eef87cee72</title>
<path fill="none" stroke="black" d="M1563.49,-24.8603C1581.91,-29.8139 1600.33,-37.7832 1614.47,-50.5269 1621.4,-56.7741 1626.41,-65.1352 1630.04,-73.8156"/>
<polygon fill="black" stroke="black" points="1626.77,-75.0605 1633.46,-83.2752 1633.36,-72.6809 1626.77,-75.0605"/>
<text text-anchor="middle" x="1651.47" y="-54.3269" font-family="Times,serif" font-size="14.00">rdfs:label</text>
</g>
<!-- http://postdata.linhd.uned.es/data/BD&#45;M&#45;Menendez&#45;Pelayo -->
<g id="node10" class="node"><title>http://postdata.linhd.uned.es/data/BD&#45;M&#45;Menendez&#45;Pelayo</title>
<ellipse fill="#e377c2" stroke="#e377c2" cx="728.468" cy="-118.027" rx="144.5" ry="16.0303"/>
<text text-anchor="middle" x="728.468" y="-114.327" font-family="Times,serif" font-size="14.00">postdata:BD&#45;M&#45;Menendez&#45;Pelayo</text>
</g>
<!-- http://postdata.linhd.uned.es/data/BD&#45;M&#45;Menendez&#45;Pelayo&#45;&gt;http://postdata.linhd.uned.es/ontology/postdata&#45;dates#DateEntity -->
<g id="edge6" class="edge"><title>http://postdata.linhd.uned.es/data/BD&#45;M&#45;Menendez&#45;Pelayo&#45;&gt;http://postdata.linhd.uned.es/ontology/postdata&#45;dates#DateEntity</title>
<path fill="none" stroke="black" d="M680.975,-133.457C618.145,-152.547 507.735,-186.093 442.325,-205.967"/>
<polygon fill="black" stroke="black" points="441.17,-202.66 432.619,-208.916 443.205,-209.358 441.17,-202.66"/>
<text text-anchor="middle" x="562.968" y="-174.327" font-family="Times,serif" font-size="14.00">a</text>
</g>
<!-- http://postdata.linhd.uned.es/data/BD&#45;M&#45;Menendez&#45;Pelayo&#45;&gt;http://postdata.linhd.uned.es/data/Date1 -->
<g id="edge12" class="edge"><title>http://postdata.linhd.uned.es/data/BD&#45;M&#45;Menendez&#45;Pelayo&#45;&gt;http://postdata.linhd.uned.es/data/Date1</title>
<path fill="none" stroke="black" d="M674.472,-133.156C649.926,-141.36 621.514,-153.506 599.468,-170.527 589.87,-177.937 581.55,-188.387 575.162,-197.94"/>
<polygon fill="black" stroke="black" points="572.017,-196.367 569.652,-206.695 577.941,-200.096 572.017,-196.367"/>
<text text-anchor="middle" x="661.968" y="-174.327" font-family="Times,serif" font-size="14.00">pddates:isExpressedAs</text>
</g>
<!-- http://postdata.linhd.uned.es/kos/Definitely -->
<g id="node14" class="node"><title>http://postdata.linhd.uned.es/kos/Definitely</title>
<ellipse fill="#e377c2" stroke="#e377c2" cx="728.468" cy="-223.027" rx="79.8062" ry="16.0303"/>
<text text-anchor="middle" x="728.468" y="-219.327" font-family="Times,serif" font-size="14.00">pdskos:Definitely</text>
</g>
<!-- http://postdata.linhd.uned.es/data/BD&#45;M&#45;Menendez&#45;Pelayo&#45;&gt;http://postdata.linhd.uned.es/kos/Definitely -->
<g id="edge7" class="edge"><title>http://postdata.linhd.uned.es/data/BD&#45;M&#45;Menendez&#45;Pelayo&#45;&gt;http://postdata.linhd.uned.es/kos/Definitely</title>
<path fill="none" stroke="black" d="M728.468,-134.67C728.468,-151.024 728.468,-176.953 728.468,-196.321"/>
<polygon fill="black" stroke="black" points="724.968,-196.574 728.468,-206.574 731.968,-196.574 724.968,-196.574"/>
<text text-anchor="middle" x="772.468" y="-174.327" font-family="Times,serif" font-size="14.00">pdcore:certainty</text>
</g>
<!-- http://postdata.linhd.uned.es/data/Santander -->
<g id="node11" class="node"><title>http://postdata.linhd.uned.es/data/Santander</title>
<ellipse fill="#e377c2" stroke="#e377c2" cx="999.468" cy="-118.027" rx="84.2917" ry="16.0303"/>
<text text-anchor="middle" x="999.468" y="-114.327" font-family="Times,serif" font-size="14.00">postdata:Santander</text>
</g>
<!-- http://postdata.linhd.uned.es/data/Santander&#45;&gt;http://postdata.linhd.uned.es/ontology/postdata&#45;core#Place -->
<g id="edge4" class="edge"><title>http://postdata.linhd.uned.es/data/Santander&#45;&gt;http://postdata.linhd.uned.es/ontology/postdata&#45;core#Place</title>
<path fill="none" stroke="black" d="M982.942,-134.225C963.974,-151.668 932.713,-180.417 911.159,-200.24"/>
<polygon fill="black" stroke="black" points="908.689,-197.756 903.698,-207.101 913.428,-202.908 908.689,-197.756"/>
<text text-anchor="middle" x="946.968" y="-174.327" font-family="Times,serif" font-size="14.00">a</text>
</g>
<!-- https://www.wikidata.org/wiki/Q12233 -->
<g id="node13" class="node"><title>https://www.wikidata.org/wiki/Q12233</title>
<ellipse fill="#e377c2" stroke="#e377c2" cx="1025.47" cy="-223.027" rx="58.8803" ry="16.0303"/>
<text text-anchor="middle" x="1025.47" y="-219.327" font-family="Times,serif" font-size="14.00">ns2:Q12233</text>
</g>
<!-- http://postdata.linhd.uned.es/data/Santander&#45;&gt;https://www.wikidata.org/wiki/Q12233 -->
<g id="edge10" class="edge"><title>http://postdata.linhd.uned.es/data/Santander&#45;&gt;https://www.wikidata.org/wiki/Q12233</title>
<path fill="none" stroke="black" d="M1003.42,-134.67C1007.58,-151.176 1014.21,-177.436 1019.12,-196.86"/>
<polygon fill="black" stroke="black" points="1015.73,-197.734 1021.57,-206.574 1022.51,-196.021 1015.73,-197.734"/>
<text text-anchor="middle" x="1050.47" y="-174.327" font-family="Times,serif" font-size="14.00">owl:sameAs</text>
</g>
<!-- fc0e7ab2fbd341f0870358680705cd9f -->
<g id="node16" class="node"><title>fc0e7ab2fbd341f0870358680705cd9f</title>
<polygon fill="#ff7f0e" stroke="#ff7f0e" points="1158.47,-242.527 1102.47,-242.527 1102.47,-203.527 1158.47,-203.527 1158.47,-242.527"/>
<text text-anchor="middle" x="1130.47" y="-211.327" font-family="Times,serif" font-size="14.00">Ciudad</text>
</g>
<!-- http://postdata.linhd.uned.es/data/Santander&#45;&gt;fc0e7ab2fbd341f0870358680705cd9f -->
<g id="edge5" class="edge"><title>http://postdata.linhd.uned.es/data/Santander&#45;&gt;fc0e7ab2fbd341f0870358680705cd9f</title>
<path fill="none" stroke="black" d="M1030.09,-133.236C1048.13,-142.432 1070.8,-155.477 1088.47,-170.527 1096.9,-177.71 1104.91,-186.747 1111.64,-195.239"/>
<polygon fill="black" stroke="black" points="1109.06,-197.625 1117.9,-203.46 1114.62,-193.384 1109.06,-197.625"/>
<text text-anchor="middle" x="1157.47" y="-174.327" font-family="Times,serif" font-size="14.00">pdcore:typeOfPlace</text>
</g>
<!-- 401b415a52944d42a8ccb3b489bd5916 -->
<g id="node18" class="node"><title>401b415a52944d42a8ccb3b489bd5916</title>
<polygon fill="#ff7f0e" stroke="#ff7f0e" points="1289.97,-242.527 1218.97,-242.527 1218.97,-203.527 1289.97,-203.527 1289.97,-242.527"/>
<text text-anchor="middle" x="1254.47" y="-211.327" font-family="Times,serif" font-size="14.00">Santander</text>
</g>
<!-- http://postdata.linhd.uned.es/data/Santander&#45;&gt;401b415a52944d42a8ccb3b489bd5916 -->
<g id="edge17" class="edge"><title>http://postdata.linhd.uned.es/data/Santander&#45;&gt;401b415a52944d42a8ccb3b489bd5916</title>
<path fill="none" stroke="black" d="M1033.41,-133.107C1050.81,-139.848 1072.49,-147.521 1092.47,-152.527 1146.06,-165.956 1167.91,-142.407 1215.47,-170.527 1225.27,-176.323 1233.43,-185.625 1239.71,-194.738"/>
<polygon fill="black" stroke="black" points="1236.84,-196.734 1245.15,-203.298 1242.74,-192.98 1236.84,-196.734"/>
<text text-anchor="middle" x="1268.97" y="-174.327" font-family="Times,serif" font-size="14.00">pdcore:name</text>
</g>
<!-- http://postdata.linhd.uned.es/data/Menendez&#45;Pelayo -->
<g id="node15" class="node"><title>http://postdata.linhd.uned.es/data/Menendez&#45;Pelayo</title>
<ellipse fill="#e377c2" stroke="#e377c2" cx="532.468" cy="-16.2635" rx="115.931" ry="16.0303"/>
<text text-anchor="middle" x="532.468" y="-12.5635" font-family="Times,serif" font-size="14.00">postdata:Menendez&#45;Pelayo</text>
</g>
<!-- http://postdata.linhd.uned.es/data/Menendez&#45;Pelayo&#45;&gt;http://postdata.linhd.uned.es/ontology/postdata&#45;core#Person -->
<g id="edge3" class="edge"><title>http://postdata.linhd.uned.es/data/Menendez&#45;Pelayo&#45;&gt;http://postdata.linhd.uned.es/ontology/postdata&#45;core#Person</title>
<path fill="none" stroke="black" d="M440.504,-26.2184C360.301,-35.5863 241.465,-53.2527 141.468,-83.5269 128.437,-87.4722 114.693,-93.1344 102.582,-98.684"/>
<polygon fill="black" stroke="black" points="100.817,-95.6465 93.263,-103.076 103.801,-101.979 100.817,-95.6465"/>
<text text-anchor="middle" x="282.968" y="-54.3269" font-family="Times,serif" font-size="14.00">a</text>
</g>
<!-- http://postdata.linhd.uned.es/data/Menendez&#45;Pelayo&#45;&gt;http://viaf.org/viaf/64018425 -->
<g id="edge13" class="edge"><title>http://postdata.linhd.uned.es/data/Menendez&#45;Pelayo&#45;&gt;http://viaf.org/viaf/64018425</title>
<path fill="none" stroke="black" d="M474.735,-30.5212C425.431,-42.4617 352.944,-61.4897 291.468,-83.5269 278.969,-88.0075 265.64,-93.6604 253.74,-99.04"/>
<polygon fill="black" stroke="black" points="252.168,-95.9105 244.544,-103.268 255.092,-102.27 252.168,-95.9105"/>
<text text-anchor="middle" x="430.468" y="-54.3269" font-family="Times,serif" font-size="14.00">owl:sameAs</text>
</g>
<!-- http://postdata.linhd.uned.es/data/Menendez&#45;Pelayo&#45;&gt;http://postdata.linhd.uned.es/data/DD&#45;Menendez&#45;Pelayo -->
<g id="edge8" class="edge"><title>http://postdata.linhd.uned.es/data/Menendez&#45;Pelayo&#45;&gt;http://postdata.linhd.uned.es/data/DD&#45;Menendez&#45;Pelayo</title>
<path fill="none" stroke="black" d="M517.432,-32.4154C501.005,-48.969 474.525,-75.653 455.697,-94.6261"/>
<polygon fill="black" stroke="black" points="453.205,-92.1688 448.646,-101.732 458.174,-97.0996 453.205,-92.1688"/>
<text text-anchor="middle" x="547.968" y="-54.3269" font-family="Times,serif" font-size="14.00">pdcore:DeathDate</text>
</g>
<!-- http://postdata.linhd.uned.es/data/Menendez&#45;Pelayo&#45;&gt;http://postdata.linhd.uned.es/data/BD&#45;M&#45;Menendez&#45;Pelayo -->
<g id="edge1" class="edge"><title>http://postdata.linhd.uned.es/data/Menendez&#45;Pelayo&#45;&gt;http://postdata.linhd.uned.es/data/BD&#45;M&#45;Menendez&#45;Pelayo</title>
<path fill="none" stroke="black" d="M563.488,-31.9485C575.406,-37.6609 589.111,-44.3153 601.468,-50.5269 631.967,-65.8583 666.241,-83.8501 691.489,-97.2509"/>
<polygon fill="black" stroke="black" points="689.886,-100.363 700.359,-101.967 693.172,-94.1819 689.886,-100.363"/>
<text text-anchor="middle" x="675.468" y="-54.3269" font-family="Times,serif" font-size="14.00">pdcore:birthDate</text>
</g>
<!-- http://postdata.linhd.uned.es/data/Menendez&#45;Pelayo&#45;&gt;http://postdata.linhd.uned.es/data/Santander -->
<g id="edge16" class="edge"><title>http://postdata.linhd.uned.es/data/Menendez&#45;Pelayo&#45;&gt;http://postdata.linhd.uned.es/data/Santander</title>
<path fill="none" stroke="black" d="M606.171,-28.8389C677.157,-40.5555 787.326,-60.235 881.468,-83.5269 902.875,-88.8233 926.272,-95.3164 946.545,-101.171"/>
<polygon fill="black" stroke="black" points="945.645,-104.554 956.225,-103.986 947.6,-97.8329 945.645,-104.554"/>
<text text-anchor="middle" x="844.468" y="-54.3269" font-family="Times,serif" font-size="14.00">pdcore:birthPlace</text>
</g>
<!-- 39d2976621734f219ae12bb24bc4c5c1 -->
<g id="node20" class="node"><title>39d2976621734f219ae12bb24bc4c5c1</title>
<polygon fill="#ff7f0e" stroke="#ff7f0e" points="1174.97,-137.527 1101.97,-137.527 1101.97,-98.5269 1174.97,-98.5269 1174.97,-137.527"/>
<text text-anchor="middle" x="1138.47" y="-106.327" font-family="Times,serif" font-size="14.00">Marcelino</text>
</g>
<!-- http://postdata.linhd.uned.es/data/Menendez&#45;Pelayo&#45;&gt;39d2976621734f219ae12bb24bc4c5c1 -->
<g id="edge14" class="edge"><title>http://postdata.linhd.uned.es/data/Menendez&#45;Pelayo&#45;&gt;39d2976621734f219ae12bb24bc4c5c1</title>
<path fill="none" stroke="black" d="M638.789,-22.8289C777.813,-31.3052 1013,-50.1029 1092.47,-83.5269 1098.07,-85.8825 1103.63,-89.0396 1108.86,-92.4773"/>
<polygon fill="black" stroke="black" points="1107.08,-95.5117 1117.27,-98.4354 1111.13,-89.7993 1107.08,-95.5117"/>
<text text-anchor="middle" x="1062.97" y="-54.3269" font-family="Times,serif" font-size="14.00">pdcore:name</text>
</g>
</g>
</svg>
