<?xml version="1.0" encoding="UTF-8" standalone="no"?>
<!DOCTYPE svg PUBLIC "-//W3C//DTD SVG 1.1//EN"
 "http://www.w3.org/Graphics/SVG/1.1/DTD/svg11.dtd">
<!-- Generated by graphviz version 2.38.0 (20140413.2041)
 -->
<!-- Title: G Pages: 1 -->
<svg width="1414pt" height="403pt"
 viewBox="0.00 0.00 1413.97 402.58" xmlns="http://www.w3.org/2000/svg" xmlns:xlink="http://www.w3.org/1999/xlink">
<g id="graph0" class="graph" transform="scale(1 1) rotate(0) translate(4 398.581)">
<title>G</title>
<polygon fill="white" stroke="none" points="-4,4 -4,-398.581 1409.97,-398.581 1409.97,4 -4,4"/>
<!-- http://postdata.linhd.uned.es/ontology/postdata&#45;core#Role -->
<g id="node1" class="node"><title>http://postdata.linhd.uned.es/ontology/postdata&#45;core#Role</title>
<ellipse fill="#1f77b4" stroke="#1f77b4" cx="1347.28" cy="-378.317" rx="58.8803" ry="16.0303"/>
<text text-anchor="middle" x="1347.28" y="-374.617" font-family="Times,serif" font-size="14.00">pdcore:Role</text>
</g>
<!-- http://postdata.linhd.uned.es/ontology/postdata&#45;core#CreatorRole -->
<g id="node2" class="node"><title>http://postdata.linhd.uned.es/ontology/postdata&#45;core#CreatorRole</title>
<ellipse fill="#1f77b4" stroke="#1f77b4" cx="775.278" cy="-99.7904" rx="86.9483" ry="16.0303"/>
<text text-anchor="middle" x="775.278" y="-96.0904" font-family="Times,serif" font-size="14.00">pdcore:CreatorRole</text>
</g>
<!-- http://postdata.linhd.uned.es/ontology/postdata&#45;core#Ensemble -->
<g id="node3" class="node"><title>http://postdata.linhd.uned.es/ontology/postdata&#45;core#Ensemble</title>
<ellipse fill="#1f77b4" stroke="#1f77b4" cx="117.278" cy="-239.054" rx="78.4777" ry="16.0303"/>
<text text-anchor="middle" x="117.278" y="-235.354" font-family="Times,serif" font-size="14.00">pdcore:Ensemble</text>
</g>
<!-- http://postdata.linhd.uned.es/data/date_Las&#45;cien -->
<g id="node4" class="node"><title>http://postdata.linhd.uned.es/data/date_Las&#45;cien</title>
<ellipse fill="#e377c2" stroke="#e377c2" cx="313.278" cy="-239.054" rx="99.9045" ry="16.0303"/>
<text text-anchor="middle" x="313.278" y="-235.354" font-family="Times,serif" font-size="14.00">postdata:date_Las&#45;cien</text>
</g>
<!-- http://postdata.linhd.uned.es/data/Role_2 -->
<g id="node5" class="node"><title>http://postdata.linhd.uned.es/data/Role_2</title>
<ellipse fill="#e377c2" stroke="#e377c2" cx="1194.28" cy="-239.054" rx="73.5782" ry="16.0303"/>
<text text-anchor="middle" x="1194.28" y="-235.354" font-family="Times,serif" font-size="14.00">postdata:Role_2</text>
</g>
<!-- http://postdata.linhd.uned.es/data/Role_2&#45;&gt;http://postdata.linhd.uned.es/ontology/postdata&#45;core#Role -->
<g id="edge4" class="edge"><title>http://postdata.linhd.uned.es/data/Role_2&#45;&gt;http://postdata.linhd.uned.es/ontology/postdata&#45;core#Role</title>
<path fill="none" stroke="black" d="M1216.05,-254.785C1239.92,-271.43 1278.74,-300.005 1308.28,-329.054 1316.03,-336.678 1323.73,-345.793 1330.22,-354.038"/>
<polygon fill="black" stroke="black" points="1327.63,-356.41 1336.49,-362.216 1333.18,-352.151 1327.63,-356.41"/>
<text text-anchor="middle" x="1325.78" y="-332.854" font-family="Times,serif" font-size="14.00">a</text>
</g>
<!-- http://postdata.linhd.uned.es/data/libreria&#45;VS -->
<g id="node7" class="node"><title>http://postdata.linhd.uned.es/data/libreria&#45;VS</title>
<ellipse fill="#e377c2" stroke="#e377c2" cx="1011.28" cy="-378.317" rx="89.191" ry="16.0303"/>
<text text-anchor="middle" x="1011.28" y="-374.617" font-family="Times,serif" font-size="14.00">postdata:libreria&#45;VS</text>
</g>
<!-- http://postdata.linhd.uned.es/data/Role_2&#45;&gt;http://postdata.linhd.uned.es/data/libreria&#45;VS -->
<g id="edge14" class="edge"><title>http://postdata.linhd.uned.es/data/Role_2&#45;&gt;http://postdata.linhd.uned.es/data/libreria&#45;VS</title>
<path fill="none" stroke="black" d="M1177.93,-255.088C1161.53,-269.903 1135.35,-292.893 1111.28,-311.054 1089.51,-327.48 1063.85,-344.439 1043.97,-357.088"/>
<polygon fill="black" stroke="black" points="1041.86,-354.279 1035.28,-362.579 1045.6,-360.197 1041.86,-354.279"/>
<text text-anchor="middle" x="1130.28" y="-332.854" font-family="Times,serif" font-size="14.00">pdcore:isRoleOf</text>
</g>
<!-- http://postdata.linhd.uned.es/kos/definitely -->
<g id="node12" class="node"><title>http://postdata.linhd.uned.es/kos/definitely</title>
<ellipse fill="#e377c2" stroke="#e377c2" cx="419.278" cy="-378.317" rx="77.5641" ry="16.0303"/>
<text text-anchor="middle" x="419.278" y="-374.617" font-family="Times,serif" font-size="14.00">pdskos:definitely</text>
</g>
<!-- http://postdata.linhd.uned.es/data/Role_2&#45;&gt;http://postdata.linhd.uned.es/kos/definitely -->
<g id="edge16" class="edge"><title>http://postdata.linhd.uned.es/data/Role_2&#45;&gt;http://postdata.linhd.uned.es/kos/definitely</title>
<path fill="none" stroke="black" d="M1181.73,-255.343C1166.87,-272.234 1140.43,-298.677 1111.28,-311.054 1097.32,-316.979 678.794,-354.44 499.515,-370.27"/>
<polygon fill="black" stroke="black" points="499.003,-366.802 489.349,-371.167 499.618,-373.774 499.003,-366.802"/>
<text text-anchor="middle" x="980.278" y="-332.854" font-family="Times,serif" font-size="14.00">pdcore:certainty</text>
</g>
<!-- http://postdata.linhd.uned.es/kos/publisher -->
<g id="node14" class="node"><title>http://postdata.linhd.uned.es/kos/publisher</title>
<ellipse fill="#e377c2" stroke="#e377c2" cx="1194.28" cy="-378.317" rx="76.2353" ry="16.0303"/>
<text text-anchor="middle" x="1194.28" y="-374.617" font-family="Times,serif" font-size="14.00">pdskos:publisher</text>
</g>
<!-- http://postdata.linhd.uned.es/data/Role_2&#45;&gt;http://postdata.linhd.uned.es/kos/publisher -->
<g id="edge10" class="edge"><title>http://postdata.linhd.uned.es/data/Role_2&#45;&gt;http://postdata.linhd.uned.es/kos/publisher</title>
<path fill="none" stroke="black" d="M1194.28,-255.533C1194.28,-278.806 1194.28,-323.09 1194.28,-351.36"/>
<polygon fill="black" stroke="black" points="1190.78,-351.684 1194.28,-361.684 1197.78,-351.684 1190.78,-351.684"/>
<text text-anchor="middle" x="1249.28" y="-332.854" font-family="Times,serif" font-size="14.00">pdcore:roleFunction</text>
</g>
<!-- http://postdata.linhd.uned.es/data/Ensemble_1 -->
<g id="node6" class="node"><title>http://postdata.linhd.uned.es/data/Ensemble_1</title>
<ellipse fill="#e377c2" stroke="#e377c2" cx="576.278" cy="-99.7904" rx="94.0904" ry="16.0303"/>
<text text-anchor="middle" x="576.278" y="-96.0904" font-family="Times,serif" font-size="14.00">postdata:Ensemble_1</text>
</g>
<!-- http://postdata.linhd.uned.es/data/Ensemble_1&#45;&gt;http://postdata.linhd.uned.es/ontology/postdata&#45;core#Ensemble -->
<g id="edge1" class="edge"><title>http://postdata.linhd.uned.es/data/Ensemble_1&#45;&gt;http://postdata.linhd.uned.es/ontology/postdata&#45;core#Ensemble</title>
<path fill="none" stroke="black" d="M485.69,-104.202C407.924,-110.047 294.45,-125.658 204.278,-167.054 179.003,-178.657 154.881,-199.376 138.475,-215.448"/>
<polygon fill="black" stroke="black" points="135.634,-213.343 131.071,-222.904 140.601,-218.275 135.634,-213.343"/>
<text text-anchor="middle" x="295.778" y="-137.854" font-family="Times,serif" font-size="14.00">a</text>
</g>
<!-- http://postdata.linhd.uned.es/data/Ensemble_1&#45;&gt;http://postdata.linhd.uned.es/data/date_Las&#45;cien -->
<g id="edge7" class="edge"><title>http://postdata.linhd.uned.es/data/Ensemble_1&#45;&gt;http://postdata.linhd.uned.es/data/date_Las&#45;cien</title>
<path fill="none" stroke="black" d="M510.891,-111.515C489.005,-116.589 464.936,-123.846 444.278,-134.054 401.523,-155.18 359.713,-192 335.23,-215.685"/>
<polygon fill="black" stroke="black" points="332.59,-213.371 327.91,-222.877 337.496,-218.365 332.59,-213.371"/>
<text text-anchor="middle" x="476.278" y="-137.854" font-family="Times,serif" font-size="14.00">pdcore:date</text>
</g>
<!-- http://postdata.linhd.uned.es/data/Ensemble_1&#45;&gt;http://postdata.linhd.uned.es/data/Role_2 -->
<g id="edge3" class="edge"><title>http://postdata.linhd.uned.es/data/Ensemble_1&#45;&gt;http://postdata.linhd.uned.es/data/Role_2</title>
<path fill="none" stroke="black" d="M641.823,-111.457C654.237,-113.207 667.136,-114.841 679.278,-116.054 832.501,-131.357 874.649,-102.077 1025.28,-134.054 1065.33,-142.555 1076.1,-146.11 1111.28,-167.054 1134.1,-180.642 1156.8,-200.618 1172.67,-215.922"/>
<polygon fill="black" stroke="black" points="1170.3,-218.5 1179.89,-223.012 1175.21,-213.507 1170.3,-218.5"/>
<text text-anchor="middle" x="1125.28" y="-137.854" font-family="Times,serif" font-size="14.00">pdcore:hasAgent</text>
</g>
<!-- http://postdata.linhd.uned.es/data/CreatorRole_1 -->
<g id="node8" class="node"><title>http://postdata.linhd.uned.es/data/CreatorRole_1</title>
<ellipse fill="#e377c2" stroke="#e377c2" cx="652.278" cy="-16.2635" rx="102.561" ry="16.0303"/>
<text text-anchor="middle" x="652.278" y="-12.5635" font-family="Times,serif" font-size="14.00">postdata:CreatorRole_1</text>
</g>
<!-- http://postdata.linhd.uned.es/data/Ensemble_1&#45;&gt;http://postdata.linhd.uned.es/data/CreatorRole_1 -->
<g id="edge11" class="edge"><title>http://postdata.linhd.uned.es/data/Ensemble_1&#45;&gt;http://postdata.linhd.uned.es/data/CreatorRole_1</title>
<path fill="none" stroke="black" d="M606.676,-84.3414C615.099,-79.2731 623.72,-72.9562 630.278,-65.5269 636.17,-58.852 640.75,-50.3345 644.168,-42.3185"/>
<polygon fill="black" stroke="black" points="647.449,-43.5368 647.771,-32.9468 640.915,-41.0246 647.449,-43.5368"/>
<text text-anchor="middle" x="690.278" y="-54.3269" font-family="Times,serif" font-size="14.00">pdcore:hasCreator</text>
</g>
<!-- http://postdata.linhd.uned.es/resource/Place/Madrid -->
<g id="node10" class="node"><title>http://postdata.linhd.uned.es/resource/Place/Madrid</title>
<ellipse fill="#e377c2" stroke="#e377c2" cx="487.278" cy="-239.054" rx="56.6372" ry="16.0303"/>
<text text-anchor="middle" x="487.278" y="-235.354" font-family="Times,serif" font-size="14.00">ns1:Madrid</text>
</g>
<!-- http://postdata.linhd.uned.es/data/Ensemble_1&#45;&gt;http://postdata.linhd.uned.es/resource/Place/Madrid -->
<g id="edge5" class="edge"><title>http://postdata.linhd.uned.es/data/Ensemble_1&#45;&gt;http://postdata.linhd.uned.es/resource/Place/Madrid</title>
<path fill="none" stroke="black" d="M543.913,-115.202C535.604,-120.176 527.318,-126.453 521.278,-134.054 503.017,-157.036 494.413,-190.167 490.462,-212.82"/>
<polygon fill="black" stroke="black" points="487.002,-212.292 488.914,-222.713 493.918,-213.374 487.002,-212.292"/>
<text text-anchor="middle" x="582.278" y="-137.854" font-family="Times,serif" font-size="14.00">pdcore:hasProvenance</text>
</g>
<!-- http://postdata.linhd.uned.es/data/PW_Serranilla -->
<g id="node11" class="node"><title>http://postdata.linhd.uned.es/data/PW_Serranilla</title>
<ellipse fill="#e377c2" stroke="#e377c2" cx="665.278" cy="-239.054" rx="103.476" ry="16.0303"/>
<text text-anchor="middle" x="665.278" y="-235.354" font-family="Times,serif" font-size="14.00">postdata:PW_Serranilla</text>
</g>
<!-- http://postdata.linhd.uned.es/data/Ensemble_1&#45;&gt;http://postdata.linhd.uned.es/data/PW_Serranilla -->
<g id="edge8" class="edge"><title>http://postdata.linhd.uned.es/data/Ensemble_1&#45;&gt;http://postdata.linhd.uned.es/data/PW_Serranilla</title>
<path fill="none" stroke="black" d="M618.367,-114.514C627.762,-119.355 636.835,-125.739 643.278,-134.054 660.666,-156.495 665.101,-189.518 665.871,-212.303"/>
<polygon fill="black" stroke="black" points="662.375,-212.618 665.996,-222.575 669.374,-212.533 662.375,-212.618"/>
<text text-anchor="middle" x="692.778" y="-137.854" font-family="Times,serif" font-size="14.00">pdcore:hasPart</text>
</g>
<!-- http://postdata.linhd.uned.es/data/PW_A&#45;la&#45;Muerte -->
<g id="node13" class="node"><title>http://postdata.linhd.uned.es/data/PW_A&#45;la&#45;Muerte</title>
<ellipse fill="#e377c2" stroke="#e377c2" cx="900.278" cy="-239.054" rx="113.689" ry="16.0303"/>
<text text-anchor="middle" x="900.278" y="-235.354" font-family="Times,serif" font-size="14.00">postdata:PW_A&#45;la&#45;Muerte</text>
</g>
<!-- http://postdata.linhd.uned.es/data/Ensemble_1&#45;&gt;http://postdata.linhd.uned.es/data/PW_A&#45;la&#45;Muerte -->
<g id="edge12" class="edge"><title>http://postdata.linhd.uned.es/data/Ensemble_1&#45;&gt;http://postdata.linhd.uned.es/data/PW_A&#45;la&#45;Muerte</title>
<path fill="none" stroke="black" d="M649.261,-110.085C677.438,-115.153 709.512,-122.776 737.278,-134.054 789.016,-155.069 842.345,-192.69 873.348,-216.459"/>
<polygon fill="black" stroke="black" points="871.435,-219.405 881.481,-222.771 875.727,-213.875 871.435,-219.405"/>
<text text-anchor="middle" x="806.778" y="-137.854" font-family="Times,serif" font-size="14.00">pdcore:hasPart</text>
</g>
<!-- 8f07dcb2b0a8408bb464d9247696fa48 -->
<g id="node15" class="node"><title>8f07dcb2b0a8408bb464d9247696fa48</title>
<polygon fill="#ff7f0e" stroke="#ff7f0e" points="1102.28,-311.054 1032.28,-311.054 1032.28,-167.054 1102.28,-167.054 1102.28,-311.054"/>
<text text-anchor="middle" x="1067.28" y="-279.854" font-family="Times,serif" font-size="14.00">Las</text>
<text text-anchor="middle" x="1067.28" y="-264.854" font-family="Times,serif" font-size="14.00">cien</text>
<text text-anchor="middle" x="1067.28" y="-249.854" font-family="Times,serif" font-size="14.00">mejores</text>
<text text-anchor="middle" x="1067.28" y="-234.854" font-family="Times,serif" font-size="14.00">poesías</text>
<text text-anchor="middle" x="1067.28" y="-219.854" font-family="Times,serif" font-size="14.00">de</text>
<text text-anchor="middle" x="1067.28" y="-204.854" font-family="Times,serif" font-size="14.00">la</text>
<text text-anchor="middle" x="1067.28" y="-189.854" font-family="Times,serif" font-size="14.00">lengua</text>
<text text-anchor="middle" x="1067.28" y="-174.854" font-family="Times,serif" font-size="14.00">castellana</text>
</g>
<!-- http://postdata.linhd.uned.es/data/Ensemble_1&#45;&gt;8f07dcb2b0a8408bb464d9247696fa48 -->
<g id="edge2" class="edge"><title>http://postdata.linhd.uned.es/data/Ensemble_1&#45;&gt;8f07dcb2b0a8408bb464d9247696fa48</title>
<path fill="none" stroke="black" d="M643.538,-111.181C655.433,-112.898 667.71,-114.592 679.278,-116.054 755.948,-125.742 959.618,-123.241 1023.28,-167.054 1023.57,-167.254 1023.86,-167.457 1024.15,-167.663"/>
<polygon fill="black" stroke="black" points="1022.15,-170.555 1032.07,-174.278 1026.64,-165.182 1022.15,-170.555"/>
<text text-anchor="middle" x="1002.28" y="-137.854" font-family="Times,serif" font-size="14.00">dc:title</text>
</g>
<!-- http://postdata.linhd.uned.es/data/CreatorRole_1&#45;&gt;http://postdata.linhd.uned.es/ontology/postdata&#45;core#CreatorRole -->
<g id="edge6" class="edge"><title>http://postdata.linhd.uned.es/data/CreatorRole_1&#45;&gt;http://postdata.linhd.uned.es/ontology/postdata&#45;core#CreatorRole</title>
<path fill="none" stroke="black" d="M706.439,-30.26C719.713,-35.1482 733.258,-41.7355 744.278,-50.5269 752.282,-56.9122 758.857,-65.9532 763.86,-74.4868"/>
<polygon fill="black" stroke="black" points="760.838,-76.2571 768.664,-83.398 766.999,-72.9348 760.838,-76.2571"/>
<text text-anchor="middle" x="761.778" y="-54.3269" font-family="Times,serif" font-size="14.00">a</text>
</g>
<!-- http://postdata.linhd.uned.es/data/CreatorRole_1&#45;&gt;http://postdata.linhd.uned.es/data/Ensemble_1 -->
<g id="edge15" class="edge"><title>http://postdata.linhd.uned.es/data/CreatorRole_1&#45;&gt;http://postdata.linhd.uned.es/data/Ensemble_1</title>
<path fill="none" stroke="black" d="M579.352,-27.733C553.588,-33.0423 529.057,-40.5252 521.278,-50.5269 513.103,-61.037 520.842,-71.0313 532.833,-79.1703"/>
<polygon fill="black" stroke="black" points="531.299,-82.332 541.672,-84.4921 534.91,-76.3352 531.299,-82.332"/>
<text text-anchor="middle" x="573.778" y="-54.3269" font-family="Times,serif" font-size="14.00">pdcore:isCreatorOf</text>
</g>
<!-- http://postdata.linhd.uned.es/data/Menendez&#45;Pelayo -->
<g id="node9" class="node"><title>http://postdata.linhd.uned.es/data/Menendez&#45;Pelayo</title>
<ellipse fill="#e377c2" stroke="#e377c2" cx="996.278" cy="-99.7904" rx="115.931" ry="16.0303"/>
<text text-anchor="middle" x="996.278" y="-96.0904" font-family="Times,serif" font-size="14.00">postdata:Menendez&#45;Pelayo</text>
</g>
<!-- http://postdata.linhd.uned.es/data/CreatorRole_1&#45;&gt;http://postdata.linhd.uned.es/data/Menendez&#45;Pelayo -->
<g id="edge13" class="edge"><title>http://postdata.linhd.uned.es/data/CreatorRole_1&#45;&gt;http://postdata.linhd.uned.es/data/Menendez&#45;Pelayo</title>
<path fill="none" stroke="black" d="M706.406,-30.0917C767.056,-44.4656 865.382,-67.7684 930.436,-83.1861"/>
<polygon fill="black" stroke="black" points="929.644,-86.5953 940.182,-85.4958 931.259,-79.784 929.644,-86.5953"/>
<text text-anchor="middle" x="900.278" y="-54.3269" font-family="Times,serif" font-size="14.00">pdcore:isRoleOf</text>
</g>
<!-- http://postdata.linhd.uned.es/data/CreatorRole_1&#45;&gt;http://postdata.linhd.uned.es/kos/definitely -->
<g id="edge9" class="edge"><title>http://postdata.linhd.uned.es/data/CreatorRole_1&#45;&gt;http://postdata.linhd.uned.es/kos/definitely</title>
<path fill="none" stroke="black" d="M565.852,-25.0426C410.826,-40.9892 95.5344,-83.1626 30.2779,-167.054 -9.01715,-217.57 -11.0027,-262.147 30.2779,-311.054 68.1776,-355.955 229.945,-370.434 332.563,-375.101"/>
<polygon fill="black" stroke="black" points="332.469,-378.6 342.611,-375.535 332.772,-371.607 332.469,-378.6"/>
<text text-anchor="middle" x="113.278" y="-137.854" font-family="Times,serif" font-size="14.00">pdcore:certainty</text>
</g>
</g>
</svg>
