<?xml version="1.0" encoding="UTF-8" standalone="no"?>
<!DOCTYPE svg PUBLIC "-//W3C//DTD SVG 1.1//EN"
 "http://www.w3.org/Graphics/SVG/1.1/DTD/svg11.dtd">
<!-- Generated by graphviz version 2.38.0 (20140413.2041)
 -->
<!-- Title: G Pages: 1 -->
<svg width="1682pt" height="341pt"
 viewBox="0.00 0.00 1681.81 340.53" xmlns="http://www.w3.org/2000/svg" xmlns:xlink="http://www.w3.org/1999/xlink">
<g id="graph0" class="graph" transform="scale(1 1) rotate(0) translate(4 336.527)">
<title>G</title>
<polygon fill="white" stroke="none" points="-4,4 -4,-336.527 1677.81,-336.527 1677.81,4 -4,4"/>
<!-- http://postdata.linhd.uned.es/ontology/postdata&#45;core#Person -->
<g id="node1" class="node"><title>http://postdata.linhd.uned.es/ontology/postdata&#45;core#Person</title>
<ellipse fill="#1f77b4" stroke="#1f77b4" cx="127.811" cy="-118.027" rx="66.4361" ry="16.0303"/>
<text text-anchor="middle" x="127.811" y="-114.327" font-family="Times,serif" font-size="14.00">pdcore:Person</text>
</g>
<!-- http://postdata.linhd.uned.es/ontology/postdata&#45;dates#DateEntity -->
<g id="node2" class="node"><title>http://postdata.linhd.uned.es/ontology/postdata&#45;dates#DateEntity</title>
<ellipse fill="#1f77b4" stroke="#1f77b4" cx="565.811" cy="-223.027" rx="84.7059" ry="16.0303"/>
<text text-anchor="middle" x="565.811" y="-219.327" font-family="Times,serif" font-size="14.00">pddates:DateEntity</text>
</g>
<!-- http://postdata.linhd.uned.es/ontology/postdata&#45;core#Place -->
<g id="node3" class="node"><title>http://postdata.linhd.uned.es/ontology/postdata&#45;core#Place</title>
<ellipse fill="#1f77b4" stroke="#1f77b4" cx="60.8112" cy="-223.027" rx="60.623" ry="16.0303"/>
<text text-anchor="middle" x="60.8112" y="-219.327" font-family="Times,serif" font-size="14.00">pdcore:Place</text>
</g>
<!-- http://postdata.linhd.uned.es/ontology/postdata&#45;core#Organisation -->
<g id="node4" class="node"><title>http://postdata.linhd.uned.es/ontology/postdata&#45;core#Organisation</title>
<ellipse fill="#1f77b4" stroke="#1f77b4" cx="1318.81" cy="-118.027" rx="89.6056" ry="16.0303"/>
<text text-anchor="middle" x="1318.81" y="-114.327" font-family="Times,serif" font-size="14.00">pdcore:Organisation</text>
</g>
<!-- http://postdata.linhd.uned.es/ontology/postdata&#45;dates#ExactDateExpression -->
<g id="node5" class="node"><title>http://postdata.linhd.uned.es/ontology/postdata&#45;dates#ExactDateExpression</title>
<ellipse fill="#1f77b4" stroke="#1f77b4" cx="819.811" cy="-313.027" rx="125.73" ry="16.0303"/>
<text text-anchor="middle" x="819.811" y="-309.327" font-family="Times,serif" font-size="14.00">pddates:ExactDateExpression</text>
</g>
<!-- http://postdata.linhd.uned.es/data/Santander -->
<g id="node6" class="node"><title>http://postdata.linhd.uned.es/data/Santander</title>
<ellipse fill="#e377c2" stroke="#e377c2" cx="296.811" cy="-118.027" rx="84.2917" ry="16.0303"/>
<text text-anchor="middle" x="296.811" y="-114.327" font-family="Times,serif" font-size="14.00">postdata:Santander</text>
</g>
<!-- http://postdata.linhd.uned.es/data/Santander&#45;&gt;http://postdata.linhd.uned.es/ontology/postdata&#45;core#Place -->
<g id="edge15" class="edge"><title>http://postdata.linhd.uned.es/data/Santander&#45;&gt;http://postdata.linhd.uned.es/ontology/postdata&#45;core#Place</title>
<path fill="none" stroke="black" d="M264.491,-133.133C221.827,-151.753 146.742,-184.523 100.626,-204.65"/>
<polygon fill="black" stroke="black" points="99.0119,-201.536 91.2468,-208.744 101.812,-207.951 99.0119,-201.536"/>
<text text-anchor="middle" x="182.311" y="-174.327" font-family="Times,serif" font-size="14.00">a</text>
</g>
<!-- https://www.wikidata.org/wiki/Q12233 -->
<g id="node9" class="node"><title>https://www.wikidata.org/wiki/Q12233</title>
<ellipse fill="#e377c2" stroke="#e377c2" cx="198.811" cy="-223.027" rx="58.8803" ry="16.0303"/>
<text text-anchor="middle" x="198.811" y="-219.327" font-family="Times,serif" font-size="14.00">ns2:Q12233</text>
</g>
<!-- http://postdata.linhd.uned.es/data/Santander&#45;&gt;https://www.wikidata.org/wiki/Q12233 -->
<g id="edge17" class="edge"><title>http://postdata.linhd.uned.es/data/Santander&#45;&gt;https://www.wikidata.org/wiki/Q12233</title>
<path fill="none" stroke="black" d="M270.874,-133.72C256.312,-142.909 238.562,-155.784 225.811,-170.527 219.022,-178.377 213.331,-188.229 208.951,-197.207"/>
<polygon fill="black" stroke="black" points="205.691,-195.921 204.723,-206.472 212.059,-198.827 205.691,-195.921"/>
<text text-anchor="middle" x="259.811" y="-174.327" font-family="Times,serif" font-size="14.00">owl:sameAs</text>
</g>
<!-- 39a4df2d063e418a9816b40284a3a9e1 -->
<g id="node17" class="node"><title>39a4df2d063e418a9816b40284a3a9e1</title>
<polygon fill="#ff7f0e" stroke="#ff7f0e" points="331.811,-242.527 275.811,-242.527 275.811,-203.527 331.811,-203.527 331.811,-242.527"/>
<text text-anchor="middle" x="303.811" y="-211.327" font-family="Times,serif" font-size="14.00">Ciudad</text>
</g>
<!-- http://postdata.linhd.uned.es/data/Santander&#45;&gt;39a4df2d063e418a9816b40284a3a9e1 -->
<g id="edge18" class="edge"><title>http://postdata.linhd.uned.es/data/Santander&#45;&gt;39a4df2d063e418a9816b40284a3a9e1</title>
<path fill="none" stroke="black" d="M296.4,-134.38C296.191,-147.88 296.252,-168.046 297.811,-185.527 298.041,-188.101 298.347,-190.769 298.699,-193.436"/>
<polygon fill="black" stroke="black" points="295.269,-194.162 300.225,-203.526 302.19,-193.115 295.269,-194.162"/>
<text text-anchor="middle" x="351.811" y="-174.327" font-family="Times,serif" font-size="14.00">pdcore:typeOfPlace</text>
</g>
<!-- 941b3161960f44ed930215680970fcc0 -->
<g id="node20" class="node"><title>941b3161960f44ed930215680970fcc0</title>
<polygon fill="#ff7f0e" stroke="#ff7f0e" points="463.311,-242.527 392.311,-242.527 392.311,-203.527 463.311,-203.527 463.311,-242.527"/>
<text text-anchor="middle" x="427.811" y="-211.327" font-family="Times,serif" font-size="14.00">Santander</text>
</g>
<!-- http://postdata.linhd.uned.es/data/Santander&#45;&gt;941b3161960f44ed930215680970fcc0 -->
<g id="edge9" class="edge"><title>http://postdata.linhd.uned.es/data/Santander&#45;&gt;941b3161960f44ed930215680970fcc0</title>
<path fill="none" stroke="black" d="M341.663,-131.871C363.35,-139.99 388.39,-152.436 405.811,-170.527 412.113,-177.071 416.745,-185.698 420.087,-194.017"/>
<polygon fill="black" stroke="black" points="416.806,-195.236 423.441,-203.497 423.405,-192.902 416.806,-195.236"/>
<text text-anchor="middle" x="452.311" y="-174.327" font-family="Times,serif" font-size="14.00">pdcore:name</text>
</g>
<!-- http://postdata.linhd.uned.es/kos/definitely -->
<g id="node7" class="node"><title>http://postdata.linhd.uned.es/kos/definitely</title>
<ellipse fill="#e377c2" stroke="#e377c2" cx="746.811" cy="-223.027" rx="77.5641" ry="16.0303"/>
<text text-anchor="middle" x="746.811" y="-219.327" font-family="Times,serif" font-size="14.00">pdskos:definitely</text>
</g>
<!-- http://viaf.org/viaf/64018425 -->
<g id="node8" class="node"><title>http://viaf.org/viaf/64018425</title>
<ellipse fill="#e377c2" stroke="#e377c2" cx="464.811" cy="-118.027" rx="65.5227" ry="16.0303"/>
<text text-anchor="middle" x="464.811" y="-114.327" font-family="Times,serif" font-size="14.00">ns1:64018425</text>
</g>
<!-- http://postdata.linhd.uned.es/data/libreria&#45;VS -->
<g id="node10" class="node"><title>http://postdata.linhd.uned.es/data/libreria&#45;VS</title>
<ellipse fill="#e377c2" stroke="#e377c2" cx="1499.81" cy="-16.2635" rx="89.191" ry="16.0303"/>
<text text-anchor="middle" x="1499.81" y="-12.5635" font-family="Times,serif" font-size="14.00">postdata:libreria&#45;VS</text>
</g>
<!-- http://postdata.linhd.uned.es/data/libreria&#45;VS&#45;&gt;http://postdata.linhd.uned.es/ontology/postdata&#45;core#Organisation -->
<g id="edge12" class="edge"><title>http://postdata.linhd.uned.es/data/libreria&#45;VS&#45;&gt;http://postdata.linhd.uned.es/ontology/postdata&#45;core#Organisation</title>
<path fill="none" stroke="black" d="M1473.1,-31.9839C1441.6,-49.3483 1389.11,-78.2791 1354.23,-97.5027"/>
<polygon fill="black" stroke="black" points="1352.4,-94.5162 1345.33,-102.409 1355.78,-100.647 1352.4,-94.5162"/>
<text text-anchor="middle" x="1440.31" y="-54.3269" font-family="Times,serif" font-size="14.00">a</text>
</g>
<!-- http://postdata.linhd.uned.es/data/Role_2 -->
<g id="node15" class="node"><title>http://postdata.linhd.uned.es/data/Role_2</title>
<ellipse fill="#e377c2" stroke="#e377c2" cx="1499.81" cy="-118.027" rx="73.5782" ry="16.0303"/>
<text text-anchor="middle" x="1499.81" y="-114.327" font-family="Times,serif" font-size="14.00">postdata:Role_2</text>
</g>
<!-- http://postdata.linhd.uned.es/data/libreria&#45;VS&#45;&gt;http://postdata.linhd.uned.es/data/Role_2 -->
<g id="edge14" class="edge"><title>http://postdata.linhd.uned.es/data/libreria&#45;VS&#45;&gt;http://postdata.linhd.uned.es/data/Role_2</title>
<path fill="none" stroke="black" d="M1499.81,-32.8515C1499.81,-48.5188 1499.81,-72.9344 1499.81,-91.4437"/>
<polygon fill="black" stroke="black" points="1496.31,-91.5483 1499.81,-101.548 1503.31,-91.5484 1496.31,-91.5483"/>
<text text-anchor="middle" x="1542.31" y="-54.3269" font-family="Times,serif" font-size="14.00">pdcore:hasRole</text>
</g>
<!-- d4b92075f3224fd190c2ae66a7da8117 -->
<g id="node18" class="node"><title>d4b92075f3224fd190c2ae66a7da8117</title>
<polygon fill="#ff7f0e" stroke="#ff7f0e" points="1665.81,-152.527 1591.81,-152.527 1591.81,-83.5269 1665.81,-83.5269 1665.81,-152.527"/>
<text text-anchor="middle" x="1628.81" y="-121.327" font-family="Times,serif" font-size="14.00">Libreria</text>
<text text-anchor="middle" x="1628.81" y="-106.327" font-family="Times,serif" font-size="14.00">Victoriano</text>
<text text-anchor="middle" x="1628.81" y="-91.3269" font-family="Times,serif" font-size="14.00"> Soriano &#160;</text>
</g>
<!-- http://postdata.linhd.uned.es/data/libreria&#45;VS&#45;&gt;d4b92075f3224fd190c2ae66a7da8117 -->
<g id="edge3" class="edge"><title>http://postdata.linhd.uned.es/data/libreria&#45;VS&#45;&gt;d4b92075f3224fd190c2ae66a7da8117</title>
<path fill="none" stroke="black" d="M1550.99,-29.7912C1564.28,-34.7298 1577.9,-41.4591 1588.81,-50.5269 1596.74,-57.115 1603.5,-65.7041 1609.08,-74.5098"/>
<polygon fill="black" stroke="black" points="1606.18,-76.4826 1614.27,-83.3218 1612.21,-72.9293 1606.18,-76.4826"/>
<text text-anchor="middle" x="1638.31" y="-54.3269" font-family="Times,serif" font-size="14.00">pdcore:name</text>
</g>
<!-- http://postdata.linhd.uned.es/data/Menendez&#45;Pelayo -->
<g id="node11" class="node"><title>http://postdata.linhd.uned.es/data/Menendez&#45;Pelayo</title>
<ellipse fill="#e377c2" stroke="#e377c2" cx="578.811" cy="-16.2635" rx="115.931" ry="16.0303"/>
<text text-anchor="middle" x="578.811" y="-12.5635" font-family="Times,serif" font-size="14.00">postdata:Menendez&#45;Pelayo</text>
</g>
<!-- http://postdata.linhd.uned.es/data/Menendez&#45;Pelayo&#45;&gt;http://postdata.linhd.uned.es/ontology/postdata&#45;core#Person -->
<g id="edge10" class="edge"><title>http://postdata.linhd.uned.es/data/Menendez&#45;Pelayo&#45;&gt;http://postdata.linhd.uned.es/ontology/postdata&#45;core#Person</title>
<path fill="none" stroke="black" d="M489.448,-26.7087C412.532,-36.3315 299.205,-54.0975 203.811,-83.5269 190.765,-87.5518 176.972,-93.1824 164.77,-98.6801"/>
<polygon fill="black" stroke="black" points="162.977,-95.653 155.37,-103.027 165.915,-102.006 162.977,-95.653"/>
<text text-anchor="middle" x="339.311" y="-54.3269" font-family="Times,serif" font-size="14.00">a</text>
</g>
<!-- http://postdata.linhd.uned.es/data/Menendez&#45;Pelayo&#45;&gt;http://postdata.linhd.uned.es/data/Santander -->
<g id="edge11" class="edge"><title>http://postdata.linhd.uned.es/data/Menendez&#45;Pelayo&#45;&gt;http://postdata.linhd.uned.es/data/Santander</title>
<path fill="none" stroke="black" d="M506.108,-29.0234C480.334,-34.2463 451.392,-41.3331 425.811,-50.5269 391.6,-62.8225 354.975,-82.3818 329.525,-97.1116"/>
<polygon fill="black" stroke="black" points="327.536,-94.2205 320.679,-102.297 331.076,-100.259 327.536,-94.2205"/>
<text text-anchor="middle" x="473.811" y="-54.3269" font-family="Times,serif" font-size="14.00">pdcore:birthPlace</text>
</g>
<!-- http://postdata.linhd.uned.es/data/Menendez&#45;Pelayo&#45;&gt;http://viaf.org/viaf/64018425 -->
<g id="edge6" class="edge"><title>http://postdata.linhd.uned.es/data/Menendez&#45;Pelayo&#45;&gt;http://viaf.org/viaf/64018425</title>
<path fill="none" stroke="black" d="M561.497,-32.4154C542.303,-49.2126 511.189,-76.4405 489.457,-95.4586"/>
<polygon fill="black" stroke="black" points="487.135,-92.8398 481.915,-102.059 491.745,-98.1076 487.135,-92.8398"/>
<text text-anchor="middle" x="572.811" y="-54.3269" font-family="Times,serif" font-size="14.00">owl:sameAs</text>
</g>
<!-- http://postdata.linhd.uned.es/data/BD&#45;M&#45;Menendez&#45;Pelayo -->
<g id="node12" class="node"><title>http://postdata.linhd.uned.es/data/BD&#45;M&#45;Menendez&#45;Pelayo</title>
<ellipse fill="#e377c2" stroke="#e377c2" cx="692.811" cy="-118.027" rx="144.5" ry="16.0303"/>
<text text-anchor="middle" x="692.811" y="-114.327" font-family="Times,serif" font-size="14.00">postdata:BD&#45;M&#45;Menendez&#45;Pelayo</text>
</g>
<!-- http://postdata.linhd.uned.es/data/Menendez&#45;Pelayo&#45;&gt;http://postdata.linhd.uned.es/data/BD&#45;M&#45;Menendez&#45;Pelayo -->
<g id="edge5" class="edge"><title>http://postdata.linhd.uned.es/data/Menendez&#45;Pelayo&#45;&gt;http://postdata.linhd.uned.es/data/BD&#45;M&#45;Menendez&#45;Pelayo</title>
<path fill="none" stroke="black" d="M596.125,-32.4154C615.209,-49.1155 646.074,-76.1261 667.787,-95.128"/>
<polygon fill="black" stroke="black" points="665.504,-97.7807 675.334,-101.732 670.114,-92.5129 665.504,-97.7807"/>
<text text-anchor="middle" x="678.811" y="-54.3269" font-family="Times,serif" font-size="14.00">pdcore:birthDate</text>
</g>
<!-- http://postdata.linhd.uned.es/data/DD&#45;Menendez&#45;Pelayo -->
<g id="node14" class="node"><title>http://postdata.linhd.uned.es/data/DD&#45;Menendez&#45;Pelayo</title>
<ellipse fill="#e377c2" stroke="#e377c2" cx="987.811" cy="-118.027" rx="132.872" ry="16.0303"/>
<text text-anchor="middle" x="987.811" y="-114.327" font-family="Times,serif" font-size="14.00">postdata:DD&#45;Menendez&#45;Pelayo</text>
</g>
<!-- http://postdata.linhd.uned.es/data/Menendez&#45;Pelayo&#45;&gt;http://postdata.linhd.uned.es/data/DD&#45;Menendez&#45;Pelayo -->
<g id="edge4" class="edge"><title>http://postdata.linhd.uned.es/data/Menendez&#45;Pelayo&#45;&gt;http://postdata.linhd.uned.es/data/DD&#45;Menendez&#45;Pelayo</title>
<path fill="none" stroke="black" d="M639.131,-30.1626C666.546,-36.1478 699.366,-43.4841 728.811,-50.5269 796.253,-66.6582 873.171,-86.6052 925.545,-100.423"/>
<polygon fill="black" stroke="black" points="924.794,-103.845 935.356,-103.016 926.582,-97.0769 924.794,-103.845"/>
<text text-anchor="middle" x="835.311" y="-54.3269" font-family="Times,serif" font-size="14.00">pdcore:DeathDate</text>
</g>
<!-- 775dbd2b412d49aa8c7eb61a04e57425 -->
<g id="node19" class="node"><title>775dbd2b412d49aa8c7eb61a04e57425</title>
<polygon fill="#ff7f0e" stroke="#ff7f0e" points="1211.31,-137.527 1138.31,-137.527 1138.31,-98.5269 1211.31,-98.5269 1211.31,-137.527"/>
<text text-anchor="middle" x="1174.81" y="-106.327" font-family="Times,serif" font-size="14.00">Marcelino</text>
</g>
<!-- http://postdata.linhd.uned.es/data/Menendez&#45;Pelayo&#45;&gt;775dbd2b412d49aa8c7eb61a04e57425 -->
<g id="edge13" class="edge"><title>http://postdata.linhd.uned.es/data/Menendez&#45;Pelayo&#45;&gt;775dbd2b412d49aa8c7eb61a04e57425</title>
<path fill="none" stroke="black" d="M683.613,-23.2341C820.325,-32.1577 1051.33,-51.448 1129.81,-83.5269 1135.36,-85.7932 1140.83,-88.9039 1145.96,-92.3226"/>
<polygon fill="black" stroke="black" points="1144.04,-95.2534 1154.19,-98.2721 1148.14,-89.5791 1144.04,-95.2534"/>
<text text-anchor="middle" x="1101.31" y="-54.3269" font-family="Times,serif" font-size="14.00">pdcore:name</text>
</g>
<!-- http://postdata.linhd.uned.es/data/BD&#45;M&#45;Menendez&#45;Pelayo&#45;&gt;http://postdata.linhd.uned.es/ontology/postdata&#45;dates#DateEntity -->
<g id="edge1" class="edge"><title>http://postdata.linhd.uned.es/data/BD&#45;M&#45;Menendez&#45;Pelayo&#45;&gt;http://postdata.linhd.uned.es/ontology/postdata&#45;dates#DateEntity</title>
<path fill="none" stroke="black" d="M674.072,-134.225C652.375,-151.822 616.493,-180.923 592.034,-200.759"/>
<polygon fill="black" stroke="black" points="589.777,-198.084 584.214,-207.101 594.186,-203.521 589.777,-198.084"/>
<text text-anchor="middle" x="633.311" y="-174.327" font-family="Times,serif" font-size="14.00">a</text>
</g>
<!-- http://postdata.linhd.uned.es/data/BD&#45;M&#45;Menendez&#45;Pelayo&#45;&gt;http://postdata.linhd.uned.es/kos/definitely -->
<g id="edge8" class="edge"><title>http://postdata.linhd.uned.es/data/BD&#45;M&#45;Menendez&#45;Pelayo&#45;&gt;http://postdata.linhd.uned.es/kos/definitely</title>
<path fill="none" stroke="black" d="M701.013,-134.67C709.786,-151.404 723.815,-178.164 734.037,-197.662"/>
<polygon fill="black" stroke="black" points="730.966,-199.342 738.709,-206.574 737.166,-196.092 730.966,-199.342"/>
<text text-anchor="middle" x="770.811" y="-174.327" font-family="Times,serif" font-size="14.00">pdcore:certainty</text>
</g>
<!-- http://postdata.linhd.uned.es/data/Date1 -->
<g id="node13" class="node"><title>http://postdata.linhd.uned.es/data/Date1</title>
<ellipse fill="#e377c2" stroke="#e377c2" cx="911.811" cy="-223.027" rx="69.0935" ry="16.0303"/>
<text text-anchor="middle" x="911.811" y="-219.327" font-family="Times,serif" font-size="14.00">postdata:Date1</text>
</g>
<!-- http://postdata.linhd.uned.es/data/BD&#45;M&#45;Menendez&#45;Pelayo&#45;&gt;http://postdata.linhd.uned.es/data/Date1 -->
<g id="edge2" class="edge"><title>http://postdata.linhd.uned.es/data/BD&#45;M&#45;Menendez&#45;Pelayo&#45;&gt;http://postdata.linhd.uned.es/data/Date1</title>
<path fill="none" stroke="black" d="M732.21,-133.753C757.318,-143.474 790.361,-156.894 818.811,-170.527 839.221,-180.307 861.416,-192.534 879.004,-202.62"/>
<polygon fill="black" stroke="black" points="877.338,-205.7 887.747,-207.675 880.841,-199.64 877.338,-205.7"/>
<text text-anchor="middle" x="910.311" y="-174.327" font-family="Times,serif" font-size="14.00">pddates:isExpressedAs</text>
</g>
<!-- http://postdata.linhd.uned.es/data/Date1&#45;&gt;http://postdata.linhd.uned.es/ontology/postdata&#45;dates#ExactDateExpression -->
<g id="edge16" class="edge"><title>http://postdata.linhd.uned.es/data/Date1&#45;&gt;http://postdata.linhd.uned.es/ontology/postdata&#45;dates#ExactDateExpression</title>
<path fill="none" stroke="black" d="M896.205,-238.955C881.754,-252.777 860.061,-273.528 843.479,-289.388"/>
<polygon fill="black" stroke="black" points="840.611,-287.288 835.804,-296.73 845.449,-292.347 840.611,-287.288"/>
<text text-anchor="middle" x="875.311" y="-264.327" font-family="Times,serif" font-size="14.00">a</text>
</g>
<!-- 3eb96716699149d5a071cd965faeb350 -->
<g id="node16" class="node"><title>3eb96716699149d5a071cd965faeb350</title>
<polygon fill="#ff7f0e" stroke="#ff7f0e" points="1043.81,-332.527 963.811,-332.527 963.811,-293.527 1043.81,-293.527 1043.81,-332.527"/>
<text text-anchor="middle" x="1003.81" y="-301.327" font-family="Times,serif" font-size="14.00">1856&#45;11&#45;01</text>
</g>
<!-- http://postdata.linhd.uned.es/data/Date1&#45;&gt;3eb96716699149d5a071cd965faeb350 -->
<g id="edge7" class="edge"><title>http://postdata.linhd.uned.es/data/Date1&#45;&gt;3eb96716699149d5a071cd965faeb350</title>
<path fill="none" stroke="black" d="M927.418,-238.955C940.899,-251.85 960.684,-270.775 976.742,-286.134"/>
<polygon fill="black" stroke="black" points="974.635,-288.963 984.281,-293.346 979.474,-283.904 974.635,-288.963"/>
<text text-anchor="middle" x="1046.81" y="-264.327" font-family="Times,serif" font-size="14.00">pddates:dateExpressionAsdate</text>
</g>
</g>
</svg>
